<?xml version="1.0" encoding="UTF-8"?>
<svg id="Layer_1" data-name="Layer 1" xmlns="http://www.w3.org/2000/svg" viewBox="0 0 424.74 219.08">
  <defs>
    <style>
      .cls-1 {
        fill: #182974;
      }

      .cls-1, .cls-2 {
        stroke-width: 0px;
      }

      .cls-2 {
        fill: #fff;
      }
    </style>
  </defs>
  <g>
    <path class="cls-1" d="m145.64,179.24c11.39,2.88,21.58-1.55,25.67-10.99,1.21-2.8.86-4.46-1.98-6.02-15.58-8.53-26.74-21.08-33.61-37.49-1.49-3.57-12.41-5.74-13.72-2.55-1.28,3.11-.39,7.14-.37,10.76,0,1.34.83,3.19.22,3.89-.69.79-2.84,1.16-3.87.67-4.49-2.12-8.1,1.43-12.19,1.7-.46.03-1,2.52-1.1,3.89-.36,5.13-.14,10.34-.92,15.4-1.15,7.39-7.47,11.24-16.11,10.49-6.5-.57-11.93-6.32-12.1-12.98-.11-4.16-.29-8.35.05-12.49.34-4.08-1.39-5.21-5.14-5.17-12.5.12-24.99.05-37.49.02-2.49,0-5.01-.06-7.48-.36-8.79-1.08-11.32,1.16-12.7,10.1-.36,2.33-2.4,5.34-4.43,6.19-1.77.73-5.08-.61-6.85-2.07-1.24-1.02-1.98-4.31-1.25-5.66,1.09-2.02,3.48-3.67,5.69-4.64,2.18-.95,4.98-.43,7.21-1.31,4.03-1.59,5.1-4.91,3-8.77-2.43-4.47-2.36-9-.48-13.45,1.23-2.93,1.94-5.15-.45-8.11-1.89-2.34-1.39-5.49,2.68-5.38,3.21.09,4.36-1.65,5.4-4.09,3.63-8.54,7.39-17.03,10.96-25.6,1.02-2.46,2.11-3.74,5.14-3.22,4.42.77,7.42-1.71,8.74-5.71,1.39-4.21-.59-7.3-4.14-9.73-2.42-1.65-5.11-3.37-6.64-5.74-1.23-1.9-1.96-5.49-.95-7.11,1.13-1.81,4.61-3.35,6.81-3.05,4.25.57,6.61-.53,8.11-4.45,1.6-4.18,3.39-8.31,5.29-12.37,3.83-8.2,12.5-10.75,20.46-6.38,1.86,1.02,4.18,1.18,5.96,1.65.22,2.5.7,4.87.57,7.22-.16,2.93-.35,6.01-1.38,8.7-2.43,6.35-5.22,12.57-8.17,18.7-1.28,2.65-1.05,4.67.78,6.79,3.52,4.09,6.9,7.63,13.36,6.46,7.79-1.4,14.65,3.85,15.71,11.68.81,6.05.74,12.23,1.07,18.59,3.67,1.12,6.87.86,9.25-2.47,1.97-2.76,4.32-2.47,7.02-1.27,6.07,2.71,8.45,1.63,9.45-5.04,2.59-17.33,9.98-32.11,22.11-44.75,5.6-5.84,2.46-16-5.42-18.58-1.87-.61-3.89-.8-5.85-1.09-5.08-.76-8.58-5.19-8.02-10.23.54-4.9,5-8.39,10.25-8.02,4.8.34,8.52,4.45,8.43,9.39-.02,1.15-.4,2.3-.47,3.45-.67,11.36,8.55,17.75,18.8,12.64,10.45-5.21,21.49-8.18,33-8.33,14.54-.19,28.23,3.77,40.56,11.69,9.94,6.39,18.18,14.57,24,24.89,2.28,4.05,4.96,3.93,7.39,1.24,2.21-2.45,4.14-5.69,4.83-8.88,1.51-6.93,5.69-11.65,11.93-12.02,5.65-.34,10.48,3.96,12.51,10.8,1.8,6.06,4.64,11.33,11.3,13.46,5.3,1.69,7.16,1,9.31-3.96,4.35-10.04,8.72-20.07,13.05-30.12,3.75-8.71,11.01-11.72,19.74-8.38,1.75.67,3.85.36,5.71.82,1.74.44,3.94.88,4.87,2.12.67.89-.27,3.14-.74,4.7-1.3,4.34-3.03,8.58-4.01,12.98-.55,2.48,4.68,5.06,7.22,3.75.72-.37,1.24-1.22,1.97-1.47.81-.28,1.9-.39,2.62-.05.46.22.86,1.73.58,2.07-.53.64-1.8,1.38-2.38,1.14-3.97-1.64-6.68-.99-8.11,3.44-.26.82-1.91,1.84-2.75,1.71-4.05-.64-5.09,2.23-6.28,4.95-8.09,18.54-16.16,37.1-24.21,55.66-.45,1.03-.73,2.13-1.28,3.78,1.79.19,3.2.53,4.58.44,3.45-.22,5.47,1.14,6.9,4.4.69,1.57,2.92,3.13,4.62,3.35.96.12,2.18-2.59,3.43-3.88,1.33-1.37,2.98-2.44,4.21-3.89,1.22-1.43,2.91-3.13,2.97-4.76.31-8.65.11-17.33.19-25.99.09-10.01,5.18-15.22,14.4-15.18,6.87.03,14.95,6.24,14.16,15.36-.34,3.96-.84,6.89-4.16,9.79-7.22,6.3-4.34,17.08,4.93,20.02,3.31,1.05,6.7,1.88,10,2.96,4.1,1.35,7.07,3.85,7.05,8.54-.01,4.68-2.98,7.2-7.09,8.5-6.65,2.12-10.76,7.38-10.86,14.26-.05,3,.5,6.11-.14,8.97-.76,3.4-1.89,7.07-3.98,9.75-3.74,4.8-3.09,9.07,2.68,11.56,1.05.45,2.72.63,3.04,1.39.94,2.23,2.47,5.23,1.65,6.9-.79,1.62-4.8,3.25-6.29,2.54-1.89-.9-2.85-4.07-3.79-6.43-.34-.85.66-2.16.83-3.3.77-4.98-2.06-8.37-7.07-8.58-11.38-.47-15.28-4.55-15.36-16.08-.02-3.17-.15-6.34,0-9.5.18-3.85-1.47-5.35-5.33-5.31-12.66.14-25.33.27-37.99-.02-4.19-.1-8.5-1.06-12.47-2.43-5.67-1.97-9.87.98-11.9,8.33-.61,2.21-2.62,4.89-4.61,5.59-1.74.61-4.93-.68-6.41-2.19-1.29-1.31-2.07-4.61-1.29-6.09,1.04-1.97,3.68-3.28,5.88-4.39.99-.5,2.58.18,3.89.34,6.23.75,9.95-3.41,8.76-9.6-.34-1.76-.7-3.9-.02-5.4,4.33-9.43-1.68-14.84-7.85-19.72-7.65-6.06-10.26-5.05-11.97,4.09-2.78,14.86-9.86,27.37-20.36,38.01-2.32,2.35-2.89,4.22-1.49,7.3,4.33,9.53,12.65,11.99,21.92,12.85,8.09.75,16.19,1.33,24.29,1.98,4.45.36,6.6,2.77,6.36,7.22-.39,7.3,1.36,14.04,4.41,20.67,4.49,9.73-1.59,18.83-12.38,19.39-11.58.61-21.67-4.4-31.93-8.41-18.52-7.24-36.53-6.48-54.48,1.66-3.76,1.7-7.64,3.25-11.62,4.3-7.53,1.98-15.22-4.16-13.97-11.72,1.07-6.44,3.07-12.93,5.89-18.8,3.3-6.87,9.35-10.24,17.39-10.39,9.58-.19,19.15-1.16,28.71-1.91,1.44-.11,3.14-.55,4.14-1.47,1.21-1.12,2.56-2.97,2.45-4.39-.11-1.35-1.9-3.47-3.17-3.64-2.78-.37-6.01-.45-8.52.61-17.54,7.47-35.34,8.3-53.4,2.52-3.29-1.05-5.34-.29-7.37,2.12-4.97,5.87-6.04,12.45-3.28,19.49,3.29,8.38-2.92,16.9-9.33,18.67-8.3,2.3-16.38-2.03-17.97-11.02-.64-3.62,1.12-7.96,2.69-11.57,1.04-2.39,2.21-4.02-.35-5.88v.04Zm57.98-113.13c-2.33.45-5.31.83-8.17,1.61-15.8,4.31-25.08,19.59-23.54,34.45,1.72,16.52,15.26,28.84,31.66,29.61,5.48.26,7.85,3.6,6.24,8.89-.33,1.1-.75,2.19-1.25,3.23-2.06,4.3.21,7.08,3.51,9.14,3.29,2.05,7.69.38,9.65-3.43,1.95-3.81.26-6.75-2.64-9.13-1.11-.92-3.01-.98-3.95-1.99-1.49-1.6-2.97-3.56-3.42-5.59-.17-.75,2.52-2.28,4.05-3.21,1.69-1.02,3.47-2.15,5.36-2.54,2.62-.55,5.66-1.27,8-.45,3.76,1.31,7.48,1.77,9.16-1.82,1.14-2.43-.12-6.04-.49-9.1-.37-3.11-1.85-6.35-1.33-9.27,3.84-21.59-10.31-39.39-32.85-40.4Zm94.53,38.93c4.49-.5,8.12-.79,11.72-1.32,11.98-1.78,18.22-15.91,11.61-26.03-1.25-1.91-2.32-3.98-3.24-6.08-3.51-7.98-11.89-11.19-20.3-8.61-3.38,1.04-7.37.09-11.08.02-3.72-.07-7.51-.66-11.13-.12-3.26.49-4.1,2.66-2.86,6.28,2.13,6.21,4.23,12.66,4.76,19.14.67,8.24,4.97,12.59,12.12,14.94,2.95.97,6.11,1.3,8.4,1.77Zm-249.62,7.39h27.02c0-9.81-.03-19.27.02-28.73.01-2.31-.38-4.93.53-6.88,3.08-6.6-.65-10.89-4.7-16.5-7.81,17.8-15.23,34.69-22.87,52.11Zm82.03-13.69c-.15-.34-.94-3.26-1.46-3.21-2.1.2-4.84.73-6.02,2.2-2.55,3.18-4.62,3.89-8.4,1.83-5.04-2.75-10.81-.14-13,5.17-1.79,4.33.19,7.47,4.79,8.1,2.9.4,5.74,1.28,8.6,1.96.93.22,1.91.8,2.76.64,5.27-.98,12.64-9.93,12.72-16.69Zm112.34,101.6c.56-.52,1.12-1.04,1.68-1.55-.51-1.16-1.27-2.29-1.48-3.5-.26-1.53-.08-3.13-.08-4.7,0-2.42.89-6.37-.15-6.96-2.78-1.58-6.38-2.13-9.66-2.16-.81,0-2,3.49-2.37,5.5-.42,2.25-.36,4.68-.02,6.96.3,2.01,1.26,3.91,1.94,5.86.88-1.91,1.74-3.83,2.65-5.73.12-.26.46-.42.68-.63,2.27,2.31,4.54,4.61,6.8,6.92Zm33.59-9.88c-.02-6.22-1.92-8.98-6.48-9.41-4.38-.42-6.98,1.63-7.97,6.29-1.24,5.82.62,11.05,4.41,12.44,6.02,2.21,10.06-1.55,10.03-9.32Zm7.2,2.92c3.32.56,2.75,8.16,9.09,5.67-1.4-2.57-2.48-4.55-3.67-6.73,3.27-2.45,4.11-6.33,1.57-8.62-2.18-1.97-6.33-2.37-9.55-2.22-.9.04-1.75,4.46-2.33,6.93-.33,1.42-.28,3.02-.01,4.48.43,2.36,1.18,4.67,1.8,7,.96-2.02,1.91-4.03,3.09-6.52Zm-22.7,5.81c-2.8-3.98-3.38-7.21-1.06-11.41,1.74-3.16-1.48-6.05-4.88-6.45-2.75-.32-7.15-2.23-8,2.17-.9,4.64-.29,9.58-.16,14.39.02.69,1.1,1.35,1.69,2.02.63-.64,1.62-1.18,1.8-1.93.39-1.58.37-3.26.53-5.09,4.19,1.43,3.57,7.88,10.08,6.3Zm-31.85-8.22c-3.36-1.87-5.44-3.03-7.52-4.19,2.15-1.01,4.3-2.02,6.7-3.15-.59-4.26-4.2-2.44-6.49-2.44-1.33,0-3.75,1.58-3.82,2.58-.39,5.21-.18,10.46-.18,15.99,3.47,0,6.12.12,8.75-.08.73-.05,1.38-1.06,2.07-1.63-.66-.63-1.21-1.58-1.99-1.83-1.65-.54-3.41-.71-5.13-1.03,0-.42,0-.85,0-1.27,2.3-.89,4.6-1.78,7.61-2.95Zm-37.15-47.65c-.02.72-.05,1.45-.07,2.17,1.66,1.41,3.58,4.18,4.93,3.92,2.06-.39,4.85-2.62,5.28-4.52.58-2.55-1.39-5.35-4.73-4.72-1.93.36-3.61,2.06-5.4,3.15Zm60.31-32.12c-2.75-2.1-4.29-4.18-5.83-4.19-1.54,0-3.1,2.06-4.65,3.22,1.37,1.51,2.53,3.86,4.17,4.27,1.35.34,3.28-1.61,6.3-3.31Z"/>
    <path class="cls-1" d="m392.16,74.15c-4-.07-7.57-3.47-7.51-7.14.05-3.6,3.81-7.16,7.6-7.2,3.6-.03,7.46,3.75,7.45,7.3-.01,3.66-3.71,7.11-7.53,7.04Z"/>
    <path class="cls-1" d="m145.65,179.19c-2.05-1.32-3.95-3.24-6.19-3.82-3.53-.91-5.37-2.65-4.82-6.22.51-3.32,2.84-4.78,6.12-4.31,3.86.54,4.38,3.21,4.21,6.59-.13,2.57.44,5.18.69,7.79,0,.02,0-.03,0-.03Z"/>
    <path class="cls-1" d="m77.46,10.96c-4.45-.98-6.48-3.08-5.68-5.94.56-1.98,3.25-3.36,4.99-5.01,1.65,1.81,4.36,3.48,4.61,5.46.2,1.65-2.5,3.65-3.92,5.5Z"/>
    <path class="cls-1" d="m415.87,130.04c3.77,1.17,9.68-.59,8.77,6.41-.44,3.38-3.24,4.31-6.01,3.4-5.49-1.81-3.38-6.07-2.76-9.82Z"/>
    <path class="cls-1" d="m290.06,164.48c-2.16,1.42-3.51,2.99-4.59,2.82-1.14-.18-2.76-2-2.78-3.13-.03-1.07,1.87-3.18,2.69-3.07,1.38.18,2.58,1.75,4.69,3.38Z"/>
    <path class="cls-1" d="m213.07,80.78c-2.18,1.48-3.47,3.04-4.62,2.95-1.06-.09-2.77-2-2.72-3.04.05-1.04,1.84-2.68,3-2.8,1.06-.11,2.3,1.45,4.33,2.9Z"/>
    <path class="cls-1" d="m284.25,189.31c-.55-.8-1.73-1.93-1.52-2.32.48-.9,1.61-1.92,2.53-1.97.75-.04,2.13,1.2,2.22,1.99.14,1.2-.59,2.49-.95,3.75-.76-.48-1.52-.96-2.28-1.45Z"/>
    <path class="cls-1" d="m256.72,186.55c-1.61,1.2-2.46,2.34-3.21,2.27-1-.09-1.91-1.11-2.86-1.73.68-.75,1.31-2.06,2.04-2.12,1.03-.08,2.13.77,4.03,1.57Z"/>
  </g>
  <rect class="cls-1" x="213.32" y="179.22" width="81.44" height="23.37"/>
  <g>
    <path class="cls-2" d="m227.47,185.37v-1.25h4.13v1.25h-4.13Zm1.02-.16c-.21-.26-.38-.5-.49-.74-.11-.23-.17-.48-.17-.74,0-.39.1-.74.3-1.05.2-.3.47-.54.8-.72.33-.18.69-.26,1.09-.26.22,0,.45.03.67.09.22.06.41.14.56.25l-.58,1.07c-.1-.05-.2-.09-.3-.11-.1-.02-.2-.03-.3-.03-.26,0-.45.07-.59.21s-.21.32-.21.53c0,.13.03.25.08.37.05.12.13.23.24.35l-1.12.78Zm-.18,12.62v-11.25h2.43v11.25h-2.43Zm2.43,0v-2.1h1.78v2.1h-1.78Zm1.78,0v-2.1c.06,0,.11.02.15.07.04.05.07.12.1.21.03.09.04.2.06.33s.02.27.02.43,0,.31-.02.44c-.01.13-.03.25-.06.34-.03.09-.06.16-.1.21-.04.05-.09.07-.15.07Z"/>
    <path class="cls-2" d="m232.52,197.83c-.05,0-.1-.02-.14-.07-.04-.05-.07-.12-.1-.21-.02-.09-.04-.2-.06-.34-.02-.13-.02-.28-.02-.44,0-.21.01-.4.03-.55.02-.15.06-.27.1-.36.05-.09.11-.13.18-.13v2.1Zm0,0v-2.1h4v2.1h-4Zm4,0v-2.1c.05,0,.1.02.14.07.04.05.08.12.1.21.02.09.04.2.05.33s.03.27.03.43,0,.31-.03.44c-.02.13-.03.25-.05.34-.02.09-.05.16-.1.21-.04.05-.09.07-.14.07Z"/>
    <path class="cls-2" d="m236.52,197.83c-.05,0-.1-.02-.14-.07-.04-.05-.08-.12-.1-.21-.02-.09-.04-.2-.06-.34-.02-.13-.02-.28-.02-.44,0-.21.01-.4.03-.55.02-.15.06-.27.1-.36.05-.09.11-.13.18-.13v2.1Zm0,0v-2.1h4v2.1h-4Zm4,0v-2.1c.05,0,.1.02.14.07.04.05.08.12.1.21.02.09.04.2.06.33s.02.27.02.43,0,.31-.02.44c-.02.13-.03.25-.06.34-.02.09-.05.16-.1.21-.04.05-.09.07-.14.07Z"/>
    <path class="cls-2" d="m240.52,197.83c-.05,0-.1-.02-.14-.07-.04-.05-.08-.12-.1-.21-.02-.09-.04-.2-.06-.34-.02-.13-.02-.28-.02-.44,0-.21.01-.4.03-.55.02-.15.06-.27.1-.36.05-.09.11-.13.18-.13v2.1Zm0,0v-2.1h11.36l-2.03,1.74v-3.23c0-.58-.08-1.03-.23-1.38-.15-.34-.37-.59-.65-.75s-.61-.24-.99-.24c-.46,0-.89.1-1.3.29-.41.19-.79.44-1.15.74s-.69.62-.98.96c-.3.34-.57.67-.8.98-.23.31-.43.55-.58.74l-.51-1.66c.47-.62.9-1.18,1.3-1.68.39-.5.8-.94,1.22-1.3s.87-.65,1.37-.85,1.08-.3,1.75-.3,1.29.12,1.8.35c.51.24.93.56,1.26.98.33.42.57.89.73,1.43.15.54.23,1.11.23,1.7v3.58h-11.78Zm1.12-2.1v-9.15h2.45v9.15h-2.45Zm10.34,2.1v-2.1h1.68v2.1h-1.68Zm1.68,0v-2.1c.05,0,.1.02.14.07.04.05.07.12.1.21.02.09.04.2.06.33.02.13.02.27.02.43s0,.31-.02.44c-.02.13-.03.25-.06.34-.02.09-.05.16-.1.21-.04.05-.09.07-.14.07Z"/>
    <path class="cls-2" d="m253.66,197.83c-.05,0-.1-.02-.14-.07-.04-.05-.08-.12-.1-.21-.02-.09-.04-.2-.06-.34-.02-.13-.02-.28-.02-.44,0-.21.01-.4.03-.55.02-.15.06-.27.1-.36.05-.09.11-.13.18-.13v2.1Zm0,0v-2.1h4v2.1h-4Zm4,0v-2.1c.05,0,.1.02.14.07.04.05.08.12.1.21.02.09.04.2.06.33s.02.27.02.43,0,.31-.02.44c-.02.13-.03.25-.06.34-.02.09-.05.16-.1.21-.04.05-.09.07-.14.07Z"/>
    <path class="cls-2" d="m257.66,197.83c-.05,0-.1-.02-.14-.07-.04-.05-.08-.12-.1-.21-.02-.09-.04-.2-.06-.34-.02-.13-.02-.28-.02-.44,0-.21.01-.4.03-.55.02-.15.06-.27.1-.36.05-.09.11-.13.18-.13v2.1Zm0,0v-2.1h4v2.1h-4Zm4,0v-2.1c.05,0,.1.02.14.07.04.05.08.12.1.21.02.09.04.2.06.33s.02.27.02.43,0,.31-.02.44c-.02.13-.03.25-.06.34-.02.09-.05.16-.1.21-.04.05-.09.07-.14.07Z"/>
    <path class="cls-2" d="m261.66,197.83c-.05,0-.1-.02-.14-.07-.04-.05-.08-.12-.1-.21-.02-.09-.04-.2-.06-.34-.02-.13-.02-.28-.02-.44,0-.21.01-.4.03-.55.02-.15.06-.27.1-.36.05-.09.11-.13.18-.13v2.1Zm0,0v-2.1h6.82l-.85.66v-2.59c0-.62-.19-1.09-.58-1.42-.38-.33-1-.49-1.86-.49-.24,0-.55.02-.94.05-.39.03-.83.08-1.3.14l-.22-1.92c.45-.11.9-.2,1.37-.27.46-.08.91-.11,1.35-.11.9,0,1.69.16,2.38.49s1.24.78,1.64,1.38c.4.59.6,1.31.6,2.15v4.03h-8.42Zm2.56-9.36v-1.95h2.46v1.95h-2.46Z"/>
  </g>
</svg>