<?xml version="1.0" encoding="UTF-8"?>
<svg id="Layer_1" data-name="Layer 1" xmlns="http://www.w3.org/2000/svg" viewBox="0 0 88.43 84.99">
  <defs>
    <style>
      .cls-1 {
        fill: #293071;
        stroke-width: 0px;
      }
    </style>
  </defs>
  <path class="cls-1" d="m1.77,67.72h8.43c.57,0,1.09-.34,1.32-.87.88-2.04,2.88-3.36,5.1-3.36s4.22,1.32,5.09,3.36c.23.53.75.87,1.32.87h42.38c.58,0,1.09-.34,1.32-.87.87-2.04,2.87-3.36,5.09-3.36s4.22,1.32,5.09,3.36c.23.53.74.87,1.32.87h8.43c.79,0,1.43-.64,1.43-1.44v-22.56c0-.38-.15-.75-.42-1.01l-24.93-24.93c-.27-.27-.63-.42-1.02-.42H1.77c-.79,0-1.43.64-1.43,1.44v47.49c0,.79.64,1.44,1.43,1.44Zm7.54-2.87H3.2V20.23h57.93l24.09,24.09v20.53h-6.11c-1.49-2.6-4.25-4.23-7.3-4.23s-5.81,1.63-7.3,4.23H23.91c-1.49-2.6-4.25-4.23-7.3-4.23s-5.81,1.63-7.3,4.23Z"/>
  <path class="cls-1" d="m58.76,49.62h27.89c.79,0,1.43-.64,1.43-1.44s-.64-1.44-1.43-1.44h-26.46v-27.95c0-.79-.64-1.44-1.43-1.44s-1.44.64-1.44,1.44v29.39c0,.79.64,1.44,1.44,1.44Z"/>
  <path class="cls-1" d="m71.82,77.44c4.64,0,8.41-3.77,8.41-8.41s-3.77-8.41-8.41-8.41-8.41,3.77-8.41,8.41,3.77,8.41,8.41,8.41Zm0-13.95c3.06,0,5.54,2.48,5.54,5.54s-2.49,5.54-5.54,5.54-5.54-2.49-5.54-5.54,2.49-5.54,5.54-5.54Z"/>
  <path class="cls-1" d="m71.82,73.54c2.48,0,4.5-2.02,4.5-4.5s-2.02-4.5-4.5-4.5-4.5,2.02-4.5,4.5,2.02,4.5,4.5,4.5Zm0-6.13c.9,0,1.63.73,1.63,1.63s-.73,1.63-1.63,1.63-1.63-.73-1.63-1.63.73-1.63,1.63-1.63Z"/>
  <path class="cls-1" d="m16.61,77.44c4.63,0,8.41-3.77,8.41-8.41s-3.77-8.41-8.41-8.41-8.41,3.77-8.41,8.41,3.77,8.41,8.41,8.41Zm0-13.95c3.05,0,5.54,2.48,5.54,5.54s-2.48,5.54-5.54,5.54-5.54-2.49-5.54-5.54,2.49-5.54,5.54-5.54Z"/>
  <path class="cls-1" d="m16.61,73.54c2.48,0,4.5-2.02,4.5-4.5s-2.02-4.5-4.5-4.5-4.5,2.02-4.5,4.5,2.02,4.5,4.5,4.5Zm0-6.13c.9,0,1.62.73,1.62,1.63s-.73,1.63-1.62,1.63-1.63-.73-1.63-1.63.73-1.63,1.63-1.63Z"/>
  <path class="cls-1" d="m34.9,54.52c6.18,0,11.2-5.03,11.2-11.2s-5.03-11.2-11.2-11.2-11.2,5.02-11.2,11.2,5.02,11.2,11.2,11.2Zm0-19.53c4.6,0,8.33,3.73,8.33,8.33s-3.74,8.33-8.33,8.33-8.33-3.74-8.33-8.33,3.74-8.33,8.33-8.33Z"/>
  <path class="cls-1" d="m34.9,49.61c.79,0,1.44-.64,1.44-1.43v-9.72c0-.79-.64-1.43-1.44-1.43s-1.43.64-1.43,1.43v9.72c0,.79.64,1.43,1.43,1.43Z"/>
  <path class="cls-1" d="m30.04,44.75h9.72c.79,0,1.43-.64,1.43-1.43s-.64-1.43-1.43-1.43h-9.72c-.79,0-1.44.64-1.44,1.43s.64,1.43,1.44,1.43Z"/>
  <path class="cls-1" d="m40.06,20.23h13.21c.79,0,1.44-.64,1.44-1.43v-5.04c0-3.57-2.91-6.48-6.48-6.48h-3.12c-3.57,0-6.48,2.91-6.48,6.48v5.04c0,.79.64,1.43,1.43,1.43Zm11.77-2.87h-10.34v-3.61c0-1.99,1.62-3.61,3.61-3.61h3.12c1.99,0,3.61,1.62,3.61,3.61v3.61Z"/>
  <path class="cls-1" d="m46.96,6.36c.79,0,1.44-.64,1.44-1.44V1.44c0-.79-.64-1.44-1.44-1.44s-1.43.64-1.43,1.44v3.49c0,.79.64,1.44,1.43,1.44Z"/>
  <path class="cls-1" d="m42.51,7.39c.24,0,.49-.06.71-.19.69-.4.92-1.27.53-1.96l-1.74-3.02c-.4-.69-1.27-.92-1.96-.53-.69.4-.92,1.27-.53,1.96l1.74,3.02c.27.46.75.72,1.25.72Z"/>
  <path class="cls-1" d="m39.16,10.51c.5,0,.98-.26,1.25-.72.4-.69.16-1.56-.53-1.96l-3.02-1.74c-.69-.4-1.56-.16-1.96.52-.4.69-.16,1.56.53,1.96l3.02,1.74c.23.13.47.19.72.19Z"/>
  <path class="cls-1" d="m54.46,11.03c.24,0,.49-.06.72-.19l3.02-1.74c.69-.4.92-1.27.52-1.96-.4-.69-1.27-.92-1.96-.52l-3.02,1.74c-.69.4-.92,1.27-.52,1.96.27.46.75.72,1.24.72Z"/>
  <path class="cls-1" d="m51.33,7.69c.5,0,.98-.26,1.24-.72l1.75-3.02c.4-.69.16-1.56-.52-1.96-.69-.4-1.56-.16-1.96.52l-1.75,3.02c-.4.69-.16,1.56.52,1.96.23.13.47.19.72.19Z"/>
  <path class="cls-1" d="m82.08,40.09c.79,0,1.44-.64,1.44-1.44,0-7.45-6.06-13.51-13.51-13.51-.79,0-1.43.64-1.43,1.43s.64,1.43,1.43,1.43c5.87,0,10.64,4.77,10.64,10.64,0,.79.64,1.44,1.44,1.44Z"/>
  <path class="cls-1" d="m1.44,78.24h85.56c.79,0,1.43-.64,1.43-1.44s-.64-1.43-1.43-1.43H1.44c-.79,0-1.44.64-1.44,1.43s.64,1.44,1.44,1.44Z"/>
  <path class="cls-1" d="m19.08,84.99h50.27c.79,0,1.44-.64,1.44-1.44s-.64-1.43-1.44-1.43H19.08c-.79,0-1.43.64-1.43,1.43s.64,1.44,1.43,1.44Z"/>
</svg>