<?xml version="1.0" encoding="UTF-8"?>
<svg id="Layer_1" data-name="Layer 1" xmlns="http://www.w3.org/2000/svg" viewBox="0 0 42.55 43.43">
  <defs>
    <style>
      .cls-1 {
        fill: #3895d1;
        stroke-width: 0px;
      }
    </style>
  </defs>
  <g id="_650_Mask_Art_Arts_Paint" data-name="650, Mask, Art, Arts, Paint">
    <g>
      <path class="cls-1" d="m35.35,31.43c-.36-.29-.94-.22-1.3.14-2.59,3.17-6.33,3.1-8.78,0-.29-.36-.86-.43-1.3-.14-.43.29-.43.86-.14,1.3,3.31,4.18,8.5,3.96,11.66,0,.29-.43.22-1.01-.14-1.3Z"/>
      <path class="cls-1" d="m36.93,20.2h-3.67c-.5,0-.94.43-.94.94s.43.94.94.94h3.67c.5,0,.94-.43.94-.94-.07-.58-.43-.94-.94-.94Z"/>
      <path class="cls-1" d="m26.85,21.14c0-.5-.43-.94-.94-.94h-3.67c-.5,0-.94.43-.94.94s.43.94.94.94h3.67c.5-.07.94-.5.94-.94Z"/>
      <path class="cls-1" d="m29.59,29.35c.5,0,.94-.43.94-.94v-2.74c0-.5-.43-.94-.94-.94s-.94.43-.94.94v2.74c0,.5.43.94.94.94Z"/>
      <path class="cls-1" d="m16.63,9.19h3.67c.5,0,.94-.43.94-.94s-.43-.94-.94-.94h-3.67c-.5,0-.94.43-.94.94s.43.94.94.94Z"/>
      <path class="cls-1" d="m10.15,8.25c0-.5-.43-.94-.94-.94h-3.67c-.5,0-.94.43-.94.94s.43.94.94.94h3.67c.58,0,.94-.43.94-.94Z"/>
      <path class="cls-1" d="m12.89,16.53c.5,0,.94-.43.94-.94v-2.74c0-.5-.43-.94-.94-.94s-.94.43-.94.94v2.74c.07.5.5.94.94.94Z"/>
      <path class="cls-1" d="m42.55,15.24c0-1.66-1.58-2.81-3.17-2.3-4.18,1.3-9.14,1.51-13.53,1.15,0-15.98,0-10.44,0-11.66,0-1.66-1.58-2.81-3.17-2.3C16.7,1.99,8.35,1.7,3.17.12,1.58-.38,0,.84,0,2.42v15.12c0,8.71,8.35,14.9,16.63,12.53v.36c0,8.5,7.99,14.69,16.2,12.6,4.97-1.3,8.71-5.47,9.5-10.8.22-1.58.07-2.16.14-8.57l.07-8.42ZM1.87,17.54V2.42c0-.36.29-.58.58-.58.36,0,3.89,1.37,10.58,1.37s10.01-1.37,10.37-1.37c.29,0,.58.22.58.58,0,1.15,0-4.25,0,11.45-3.53-.5-4.1-1.01-4.9-1.01-1.37,0-2.45,1.08-2.45,2.45v4.25c-3.02-1.94-6.91-1.44-9.57,1.94-.29.36-.29.94.14,1.3.36.29.94.22,1.3-.14,2.3-2.88,5.61-3.1,8.06-.79l.07.07v6.34c-6.98,2.3-14.76-2.95-14.76-10.73Zm38.73,14.47c-.65,4.54-3.81,8.14-8.13,9.21-7.13,1.8-13.97-3.6-13.97-10.87v-15.12c0-.43.36-.65.79-.58,5.62,1.73,14.33,1.94,20.66,0,.36-.14.79.14.79.58v8.42c-.07,6.7.07,7.05-.14,8.35Z"/>
      <path class="cls-1" d="m6.62,33.95c-1.51,0-2.74,1.22-2.74,2.74s1.22,2.74,2.74,2.74,2.74-1.22,2.74-2.74-1.22-2.74-2.74-2.74Zm0,3.67c-.5,0-.94-.43-.94-.94s.43-.94.94-.94.94.43.94.94-.43.94-.94.94Z"/>
      <path class="cls-1" d="m34.63,8.25c1.8,0,3.24-1.44,3.24-3.24s-1.44-3.24-3.24-3.24-3.24,1.44-3.24,3.24,1.44,3.24,3.24,3.24Zm0-4.61c.72,0,1.37.65,1.37,1.37s-.65,1.37-1.37,1.37c-.79,0-1.37-.65-1.37-1.37s.58-1.37,1.37-1.37Z"/>
      <path class="cls-1" d="m29.59,10.99c.5,0,.94-.43.94-.94s-.43-.94-.94-.94-.94.43-.94.94.43.94.94.94Z"/>
      <path class="cls-1" d="m15.77,37.63c-.5,0-.94.43-.94.94s.43.94.94.94.94-.43.94-.94-.43-.94-.94-.94Z"/>
    </g>
  </g>
</svg>