<?xml version="1.0" encoding="UTF-8"?>
<svg id="Layer_1" data-name="Layer 1" xmlns="http://www.w3.org/2000/svg" viewBox="0 0 53.68 91.68">
  <defs>
    <style>
      .cls-1 {
        fill: #3895d1;
        stroke-width: 0px;
      }
    </style>
  </defs>
  <path class="cls-1" d="m26.84,91.68c14.8,0,26.84-12.04,26.84-26.84,0-.45,0-.93-.04-1.44.06-.33.06-.68-.02-1.01l-.08-.31c-.29-2.86-1.05-5.64-2.23-8.27-3.97-13.89-12.13-39.04-22.57-52.87-.45-.59-1.15-.94-1.9-.94s-1.45.35-1.9.94C14.51,14.76,6.34,39.91,2.38,53.8c-1.19,2.63-1.94,5.41-2.23,8.27l-.08.31c-.08.31-.08.64-.02.95-.03.54-.05,1.04-.05,1.51,0,14.8,12.04,26.84,26.84,26.84ZM4.82,63.13v-.23c.01-.06.02-.13.03-.2.24-2.46.88-4.84,1.91-7.09.05-.11.09-.23.13-.34,3.61-12.67,10.82-35.1,19.94-48.8,9.12,13.7,16.33,36.14,19.94,48.8.03.12.08.23.13.34,1.04,2.25,1.68,4.63,1.91,7.09,0,.06,0,.13.03.19v.24c.05.65.07,1.2.07,1.71,0,12.18-9.91,22.09-22.09,22.09s-22.09-9.91-22.09-22.09c0-.51.02-1.07.07-1.71h.02Z"/>
  <path class="cls-1" d="m26.91,81.42h0c6.23-.13,18.25-3.99,19.16-17.66.12-1.83-1.27-3.41-3.09-3.54h0c-1.81-.11-3.41,1.27-3.53,3.09-.06.88-.19,1.71-.4,2.55-1.39,5.49-5.83,7.64-9.32,8.47-1.64.39-2.83.44-2.96.44-1.83.04-3.28,1.57-3.24,3.39.04,1.79,1.53,3.25,3.39,3.25h-.01Zm15.86-19.31h.09c.78.05,1.38.73,1.33,1.52-.82,12.3-11.68,15.77-17.34,15.89-.77,0-1.41-.63-1.42-1.4-.02-.78.61-1.43,1.39-1.45.15,0,1.53-.05,3.35-.49,3.27-.79,9.01-3.11,10.72-9.85.24-.95.39-1.89.45-2.89.05-.75.68-1.33,1.43-1.33Z"/>
</svg>