<?xml version="1.0" encoding="UTF-8"?>
<svg id="Layer_1" data-name="Layer 1" xmlns="http://www.w3.org/2000/svg" viewBox="0 0 51.53 46.27">
  <defs>
    <style>
      .cls-1 {
        fill: #3895d1;
        stroke-width: 0px;
      }
    </style>
  </defs>
  <g id="_436_Buds_Ear_Cleaning_Clean" data-name="436, Buds, Ear, Cleaning, Clean">
    <g>
      <path class="cls-1" d="m17.54,42.71c-5.34,0-9.7-4.72-9.7-10.5h0c0-.89-.36-1.69-1.07-2.14C2.32,26.78-.17,21.53,0,16.02.19,11.74,1.97,7.74,5.08,4.72,8.19,1.69,12.29,0,16.56,0h.09c4.45,0,8.63,1.69,11.74,4.8,3.2,3.11,4.89,7.38,4.89,11.83,0,.62-.53,1.16-1.16,1.16s-1.16-.53-1.16-1.16c0-3.91-1.51-7.56-4.27-10.23-2.76-2.67-6.32-4.18-10.14-4.18h-.09c-7.74.09-14.06,6.14-14.33,13.88,0,4.8,2.14,9.34,5.96,12.19,1.25.89,1.96,2.4,1.96,3.92h0c0,4.54,3.38,8.28,7.47,8.28s7.47-3.65,7.47-8.28c0-.62.53-1.16,1.16-1.16s1.16.53,1.16,1.16c-.09,5.78-4.45,10.5-9.79,10.5Z"/>
      <path class="cls-1" d="m18.34,33.37h-3.11c-.62,0-1.16-.53-1.16-1.16s.53-1.16,1.16-1.16h3.11c1.07,0,2.05-.89,2.05-2.05s-.98-1.87-2.05-1.87h-1.6c-2.85,0-5.61-1.16-7.56-3.2-1.96-2.05-3.03-4.8-2.85-7.74.09-2.58,1.25-5.07,3.03-6.85,1.87-1.87,4.27-2.94,6.85-3.03,2.85-.18,5.61.89,7.74,2.85,2.05,1.96,3.2,4.72,3.2,7.56,0,.62-.53,1.16-1.16,1.16s-1.16-.53-1.16-1.16c0-2.31-.89-4.36-2.58-5.96-1.6-1.6-3.83-2.4-6.05-2.22-4.18.18-7.65,3.65-7.83,7.83-.09,2.31.71,4.45,2.22,6.05,1.6,1.6,3.65,2.58,5.96,2.58h1.6c2.31,0,4.27,1.87,4.27,4.27s-1.78,4.09-4.09,4.09Z"/>
      <path class="cls-1" d="m32.75,32.21c-.27,0-.53-.09-.71-.27l-4.45-3.56c-1.16-.98-1.96-2.31-1.96-3.83-.09-1.25.36-2.49,1.25-3.38.89-.89,2.05-1.33,3.38-1.25,1.42.09,2.85.8,3.83,1.96l3.56,4.45c.36.45.36,1.07-.09,1.51l-3.92,3.92c-.27.36-.53.44-.89.44Zm-2.76-9.97c-.62,0-1.16.18-1.51.62-.44.45-.62.98-.62,1.69.09.8.44,1.6,1.16,2.14l3.65,2.94,2.49-2.49-2.94-3.65c-.44-.8-1.25-1.25-2.13-1.25h-.09Z"/>
      <path class="cls-1" d="m48.68,45.82c-.71,0-1.42-.27-1.96-.8l-13.97-13.97c-.44-.44-.44-1.16,0-1.6l2.4-2.4c.18-.18.53-.36.8-.36s.53.09.8.36l13.97,13.97c1.07,1.07,1.07,2.85,0,3.92-.62.62-1.33.89-2.05.89Zm-13.52-15.48l13.17,13.17c.18.18.53.18.8,0,.18-.18.18-.53,0-.8l-13.17-13.17-.8.8Z"/>
      <rect class="cls-1" x="40.14" y="7.38" width="2.22" height="2.22"/>
      <rect class="cls-1" x="42.36" y="5.16" width="2.22" height="2.22"/>
      <rect class="cls-1" x="37.91" y="5.16" width="2.22" height="2.22"/>
      <rect class="cls-1" x="40.14" y="2.94" width="2.22" height="2.22"/>
      <rect class="cls-1" x="2.32" y="44.04" width="2.22" height="2.22"/>
      <rect class="cls-1" x="4.55" y="41.82" width="2.22" height="2.22"/>
      <rect class="cls-1" x=".1" y="41.82" width="2.22" height="2.22"/>
      <rect class="cls-1" x="2.32" y="39.59" width="2.22" height="2.22"/>
    </g>
  </g>
</svg>