<?xml version="1.0" encoding="UTF-8"?>
<svg id="Layer_1" data-name="Layer 1" xmlns="http://www.w3.org/2000/svg" viewBox="0 0 37.7 86.23">
  <defs>
    <style>
      .cls-1 {
        fill: none;
        stroke: #3495d6;
        stroke-miterlimit: 10;
        stroke-width: 2px;
      }
    </style>
  </defs>
  <path class="cls-1" d="m9.57,84.36c-.06,0-.12-.01-.19-.03-.24-.09-.38-.34-.33-.59l6.1-34.51-13.71-2.43c-.17-.03-.32-.14-.39-.3-.07-.16-.06-.34.03-.49L27.68,2.13c.13-.22.4-.31.64-.22.24.09.38.34.33.59l-6.1,34.51,13.72,2.43c.17.03.32.14.39.3.07.16.06.34-.03.49l-26.61,43.88c-.1.16-.27.25-.45.25ZM2.38,45.9l13.47,2.38c.29.05.48.32.43.61l-5.7,32.26,24.74-40.81-13.48-2.38c-.29-.05-.48-.32-.43-.61L27.12,5.09,2.38,45.9Z"/>
</svg>