<?xml version="1.0" encoding="UTF-8"?>
<svg id="Layer_1" data-name="Layer 1" xmlns="http://www.w3.org/2000/svg" viewBox="0 0 84.42 88.53">
  <defs>
    <style>
      .cls-1 {
        fill: #293071;
        stroke-width: 0px;
      }
    </style>
  </defs>
  <g id="B68_Award_Award_Badge_Badge_Medal" data-name="B68 ,Award ,Award Badge ,Badge ,Medal">
    <g>
      <path class="cls-1" d="m41.44,49.78c1.07,0,2-.91,2-1.98s-.92-1.82-2-1.82c-6.14,0-11.2-5.02-11.2-11.09,0-1.06-.92-1.98-2-1.98s-2,.91-2,1.98c.15,8.21,6.91,14.89,15.2,14.89Z"/>
      <path class="cls-1" d="m41.44,23.63c6.14,0,11.21,5.02,11.21,11.09,0,1.06.92,1.98,2,1.98s2-.91,2-1.98c0-8.21-6.75-14.89-15.04-14.89-1.07,0-2,.91-2,1.98-.15,1.06.77,1.82,1.84,1.82Z"/>
      <path class="cls-1" d="m41.44,57.38c12.59,0,22.72-10.03,22.72-22.49s-10.13-22.49-22.72-22.49-22.72,10.03-22.72,22.49,10.13,22.49,22.72,22.49Zm0-41.19c10.44,0,18.88,8.36,18.88,18.69s-8.44,18.69-18.88,18.69-18.88-8.36-18.88-18.69,8.44-18.69,18.88-18.69Z"/>
      <path class="cls-1" d="m59.1,64.82c2.46-1.37,4.14-3.65,5.07-6.38.15-.61.61-1.06,1.23-1.22,5.68-1.67,9.06-7.45,7.67-13.22-.15-.61,0-1.22.46-1.67,3.99-4.26,3.99-10.94,0-15.2-.46-.46-.61-1.06-.46-1.67,1.38-5.78-2-11.55-7.67-13.22-.61-.15-1.07-.61-1.23-1.22-1.69-5.62-7.52-8.97-13.35-7.6-.61.15-1.23,0-1.69-.46-4.3-3.95-11.05-3.95-15.35,0-.46.46-1.07.61-1.69.46-5.83-1.37-11.67,1.98-13.35,7.6-.15.61-.61,1.06-1.23,1.22-5.68,1.67-9.06,7.45-7.67,13.22.15.61,0,1.22-.46,1.67-3.99,4.26-3.99,10.94,0,15.2.46.46.61,1.06.46,1.67-1.38,5.78,1.99,11.55,7.67,13.22.61.15,1.07.61,1.23,1.22.77,2.74,2.61,4.86,5.07,6.38l-8.29,21.13c-.31.76-.15,1.52.46,1.98.46.61,1.23.76,2,.46l23.64-7.75,23.18,7.75c1.54.46,2.92-.91,2.46-2.43l-8.14-21.13Zm-40.37-11.25c-3.68-1.06-5.99-4.86-5.07-8.66.46-1.82-.15-3.8-1.38-5.17-2.61-2.74-2.76-7.14,0-10.03,1.23-1.37,1.84-3.34,1.38-5.17-.92-3.8,1.38-7.6,5.07-8.66,1.84-.61,3.22-1.98,3.84-3.8,1.07-3.8,5.07-5.93,8.75-5.02.61.15,1.38.15,1.23.15,1.38,0,2.76-.46,3.84-1.52,2.76-2.58,7.21-2.58,10.13,0,1.38,1.37,3.38,1.82,5.22,1.37,3.68-.91,7.68,1.22,8.75,5.02.61,1.82,2,3.19,3.84,3.8,3.68,1.06,5.99,4.86,5.07,8.66-.46,1.82.15,3.65,1.38,5.02,2.61,2.89,2.61,7.14,0,10.03-1.23,1.37-1.84,3.34-1.38,5.02.92,3.8-1.38,7.6-5.07,8.66-1.84.61-3.22,1.98-3.68,3.65-1.38,4.41-6.29,6.38-10.44,4.41-.92-.46-1.84-.15-2.46.61-2.46,3.65-7.52,4.26-10.9,1.67-.61-.46-1.07-1.06-1.53-1.67-.46-.76-1.53-1.06-2.46-.61-4.14,1.98-9.06-.15-10.44-4.41-.46-1.37-1.84-2.74-3.68-3.34Zm8.6,12.61c1.53.3,3.22.3,4.76-.15.61-.15,1.23,0,1.69.46,1.53,1.37,3.53,2.43,5.83,2.89v7.9l-19.03,6.23,6.75-17.33Zm16.12,11.09v-7.9c2.15-.3,4.14-1.37,5.83-2.89.46-.46,1.07-.61,1.69-.46,1.54.3,3.22.46,4.76.15l6.6,17.33-18.88-6.23Z"/>
      <path class="cls-1" d="m5.83,63.46c-3.22,0-5.83,2.58-5.83,5.78s2.61,5.78,5.83,5.78,5.83-2.58,5.83-5.78-2.76-5.78-5.83-5.78Zm0,7.6c-1.07,0-2-.91-2-1.98s.92-1.98,2-1.98,2,.91,2,1.98c-.15,1.06-1.07,1.98-2,1.98Z"/>
      <path class="cls-1" d="m76.75,71.05c-4.3,0-7.67,3.34-7.67,7.6s3.38,7.6,7.67,7.6,7.68-3.34,7.68-7.6-3.38-7.6-7.68-7.6Zm0,11.4c-2.15,0-3.84-1.67-3.84-3.8s1.69-3.8,3.84-3.8,3.84,1.67,3.84,3.8-1.69,3.8-3.84,3.8Z"/>
    </g>
  </g>
</svg>