<?xml version="1.0" encoding="UTF-8"?>
<svg id="Layer_1" data-name="Layer 1" xmlns="http://www.w3.org/2000/svg" viewBox="0 0 43.04 51.83">
  <defs>
    <style>
      .cls-1 {
        fill: #3895d1;
        stroke-width: 0px;
      }
    </style>
  </defs>
  <g id="D_-_747_dad_family_father_people" data-name="D - 747, dad, family, father, people">
    <g>
      <path class="cls-1" d="m21.53,15.15c4.13,0,7.58-3.36,7.58-7.58S25.75,0,21.53,0s-7.58,3.36-7.58,7.58,3.44,7.58,7.58,7.58Zm0-12.92c2.93,0,5.42,2.41,5.42,5.42s-2.41,5.42-5.42,5.42-5.42-2.41-5.42-5.42,2.5-5.42,5.42-5.42Z"/>
      <path class="cls-1" d="m41.93,27.12l-9.47-9.47c-.17-.17-.52-.34-.78-.34H11.37c-.26,0-.52.09-.77.34L1.12,27.12c-.69.69-1.12,1.64-1.12,2.67,0,2.07,1.72,3.79,3.79,3.79,1.03,0,1.98-.43,2.67-1.12l4.31-4.31v22.56c0,.6.52,1.12,1.12,1.12h6.89c.6,0,1.12-.52,1.12-1.12v-12.92h3.36v12.92c0,.6.52,1.12,1.12,1.12h6.89c.6,0,1.12-.52,1.12-1.12v-22.56l4.31,4.31c1.46,1.46,3.87,1.46,5.34,0,1.38-1.46,1.38-3.87-.09-5.34Zm-1.46,3.79c-.6.6-1.64.6-2.32,0l-6.2-6.2c-.34-.34-.78-.43-1.21-.26s-.69.52-.69,1.03v24.11h-4.65v-12.92c0-.6-.52-1.12-1.12-1.12h-5.51c-.6,0-1.12.52-1.12,1.12v12.92h-4.74v-24.02c0-.43-.26-.86-.69-1.03-.43-.17-.86-.09-1.21.26l-6.2,6.2c-.34.34-.69.43-1.12.43-.86,0-1.64-.69-1.64-1.64,0-.43.17-.86.43-1.12l9.3-9.21h19.37l9.21,9.21c.69.6.69,1.64.09,2.24Z"/>
    </g>
  </g>
</svg>