<?xml version="1.0" encoding="UTF-8"?>
<svg id="Layer_1" data-name="Layer 1" xmlns="http://www.w3.org/2000/svg" viewBox="0 0 47.43 38.4">
  <defs>
    <style>
      .cls-1 {
        fill: #3895d1;
        stroke-width: 0px;
      }
    </style>
  </defs>
  <path class="cls-1" d="m26.29,0H.75c-.41,0-.75.38-.75.82v31.14c0,.45.35.82.75.82h18.86v4.74c0,.57.66,1.1,1.13.71.53-.43,1.06-.87,1.59-1.3.39-.32.78-.64,1.17-.96.1-.08.25-.17.37-.26.08.05.15.1.2.16.34.34.76.62,1.13.93.58.47,1.16.95,1.74,1.42.32.27.64.17.85-.08.17-.13.29-.34.29-.64v-4.74h18.59c.22,0,.39-.09.51-.22,0,0,.02-.02.03-.03,0,0,0-.01.01-.02.12-.13.2-.32.2-.56V.82c0-.45-.34-.82-.75-.82h-20.39Zm-6.67,31.14H1.51V1.65h18.11v29.49Zm6.97,4.75c-.78-.64-1.56-1.28-2.34-1.92-.19-.16-.57-.16-.76,0-.79.64-1.58,1.28-2.37,1.93V1.65h5.47v34.24ZM28.09,1.65h17.83v29.49h-17.83V1.65Z"/>
  <path class="cls-1" d="m4.93,9.39h10.64c.65,0,.65-1.1,0-1.1H4.93c-.65,0-.65,1.1,0,1.1Z"/>
  <path class="cls-1" d="m4.93,14.01h10.64c.65,0,.65-1.1,0-1.1H4.93c-.65,0-.65,1.1,0,1.1Z"/>
  <path class="cls-1" d="m4.93,18.63h10.64c.65,0,.65-1.1,0-1.1H4.93c-.65,0-.65,1.1,0,1.1Z"/>
  <path class="cls-1" d="m4.93,23.25h10.64c.65,0,.65-1.1,0-1.1H4.93c-.65,0-.65,1.1,0,1.1Z"/>
  <path class="cls-1" d="m42.56,8.29h-10.64c-.65,0-.65,1.1,0,1.1h10.64c.65,0,.65-1.1,0-1.1Z"/>
  <path class="cls-1" d="m42.56,12.91h-10.64c-.65,0-.65,1.1,0,1.1h10.64c.65,0,.65-1.1,0-1.1Z"/>
  <path class="cls-1" d="m42.56,17.53h-10.64c-.65,0-.65,1.1,0,1.1h10.64c.65,0,.65-1.1,0-1.1Z"/>
  <path class="cls-1" d="m42.56,22.15h-10.64c-.65,0-.65,1.1,0,1.1h10.64c.65,0,.65-1.1,0-1.1Z"/>
</svg>