<?xml version="1.0" encoding="UTF-8"?>
<svg id="Layer_1" data-name="Layer 1" xmlns="http://www.w3.org/2000/svg" viewBox="0 0 60.63 51.15">
  <defs>
    <style>
      .cls-1 {
        fill: #3895d1;
        stroke: #3895d1;
        stroke-miterlimit: 10;
      }
    </style>
  </defs>
  <path class="cls-1" d="m39.41,50.47l-.32-.47c-2-2.91-5.52-7.42-7.01-7.96-.86-.31-1.99-1.02-3.36-2.1-1.54.39-3.3.71-5.02.38-5.31-1.04-8.67-7.48-9.4-9.01-7.48-.53-11.86-5.01-12.34-12.64-.95-1.36-1.45-2.96-1.45-4.63,0-4.48,3.65-8.13,8.13-8.13.16,0,.32,0,.49.02C10.8,2.62,14.22.5,17.96.5c1.34,0,2.64.26,3.87.78,8.14-1.62,16.35-.69,22.58,2.54.34-.03.67-.05,1-.05,5.66,0,10.26,4.6,10.26,10.26,0,.23,0,.46-.03.71,4.68,7.12,5.79,14.05,2.97,18.57-1.66,2.66-4.49,4.03-7.61,3.72-.76,2.55-1.86,4.23-3.29,4.97-2.62,1.37-5.74,1.59-7.31,1.6l2.41,4.67-3.38,2.19Zm-10.42-11.82l.23.19c1.35,1.1,2.47,1.82,3.25,2.1,2.07.74,6.03,6.18,7.26,7.93l1.54-1-2.85-5.53,1.04.07s4.4.28,7.7-1.44c1.2-.63,2.18-2.26,2.84-4.73l.13-.5.73.09c2.77.37,5.29-.81,6.76-3.15,2.59-4.15,1.45-10.68-3.06-17.47l-.11-.17.02-.2c.03-.29.04-.56.04-.81,0-5.01-4.08-9.09-9.09-9.09-.34,0-.69.02-1.04.06l-.18.02-.16-.08c-6.06-3.2-14.13-4.1-22.14-2.48l-.18.04-.17-.08c-1.13-.5-2.32-.76-3.56-.76-3.41,0-6.54,2.01-7.96,5.12l-.18.39-.42-.05c-.26-.03-.53-.04-.78-.04-3.83,0-6.95,3.12-6.95,6.95,0,1.48.46,2.89,1.33,4.08l.1.14v.17c.4,7.07,4.41,11.23,11.31,11.7.26.02.36.02.46.06l.25.08.1.24c.03.08,3.4,7.62,8.7,8.65,1.26.25,2.69.12,4.78-.44l.29-.08Z"/>
  <path class="cls-1" d="m9.47,15.51c-3.36,0-6.42-1.86-7.97-4.85l1.04-.54c1.35,2.6,4,4.21,6.93,4.21,3.85,0,7.08-2.75,7.7-6.54l1.16.19c-.7,4.36-4.43,7.53-8.85,7.53Z"/>
  <path class="cls-1" d="m21.18,9.22c-4.04,0-7.59-2.72-8.65-6.61l1.13-.31c.92,3.38,4.01,5.74,7.52,5.74,4.03,0,7.36-3.02,7.76-7.02l1.17.12c-.46,4.6-4.29,8.08-8.92,8.08Z"/>
  <path class="cls-1" d="m57.16,22.57c-4.94,0-8.97-4.02-8.97-8.97,0-.19,0-.37.02-.56l1.17.07c-.01.16-.01.32-.01.49,0,4.3,3.5,7.8,7.8,7.8.44,0,.88-.04,1.31-.11l.19,1.16c-.49.08-1,.13-1.5.13Z"/>
  <path class="cls-1" d="m27.04,33.54c-3.2-1.45-5.26-4.66-5.26-8.17,0-4.94,4.02-8.97,8.97-8.97,3.43,0,6.51,1.91,8.03,4.98l-1.05.52c-1.33-2.67-4-4.33-6.99-4.33-4.3,0-7.8,3.5-7.8,7.8,0,3.05,1.8,5.84,4.57,7.1l-.48,1.07Z"/>
  <path class="cls-1" d="m44.06,36.24c-.75,0-1.49-.09-2.21-.27l.29-1.14c.62.16,1.27.24,1.92.24,4.3,0,7.8-3.5,7.8-7.8s-3.5-7.8-7.8-7.8-7.8,3.5-7.8,7.8c0,.82.13,1.62.37,2.39l-1.11.36c-.29-.89-.43-1.81-.43-2.75,0-4.94,4.02-8.97,8.97-8.97s8.97,4.02,8.97,8.97-4.02,8.97-8.97,8.97Z"/>
  <path class="cls-1" d="m41.51,43.08l-.97-.66c.87-1.29,1.34-2.8,1.34-4.36,0-4.3-3.5-7.8-7.8-7.8s-7.8,3.5-7.8,7.8c0,.53.05,1.06.16,1.58l-1.15.24c-.12-.59-.18-1.21-.18-1.82,0-4.94,4.02-8.97,8.97-8.97s8.97,4.02,8.97,8.97c0,1.8-.53,3.54-1.54,5.02Z"/>
  <path class="cls-1" d="m17.12,34.34c-.31,0-.61-.02-.91-.05l.12-1.17c.26.03.53.04.79.04,2.51,0,4.87-1.22,6.34-3.26l.95.68c-1.68,2.34-4.41,3.74-7.29,3.74Z"/>
  <path class="cls-1" d="m9.61,30.27c-.95-1.45-1.45-3.15-1.45-4.89,0-2.35.9-4.56,2.53-6.25l.84.82c-1.42,1.46-2.2,3.39-2.2,5.43,0,1.52.44,2.99,1.26,4.25l-.98.64Z"/>
  <path class="cls-1" d="m58.63,32.05c-1.39-1.15-3.15-1.78-4.96-1.78-.39,0-.79.03-1.17.09l-.17-1.16c.44-.07.9-.1,1.35-.1,2.08,0,4.1.73,5.7,2.05l-.75.9Z"/>
  <path class="cls-1" d="m45.84,42.43c-.74-1.33-1.13-2.84-1.13-4.37,0-.88.13-1.74.38-2.58l1.12.34c-.22.72-.33,1.48-.33,2.24,0,1.33.34,2.64.98,3.8l-1.02.57Z"/>
  <path class="cls-1" d="m52.64,26.72l-.57-1.02c1.57-.88,2.8-2.28,3.46-3.95l1.09.43c-.76,1.92-2.17,3.54-3.97,4.55Z"/>
  <path class="cls-1" d="m34.44,7.55l-.71-.93c1.48-1.13,3.25-1.75,5.11-1.82l.04,1.17c-1.62.06-3.15.6-4.44,1.58Z"/>
  <path class="cls-1" d="m46.1,19.43l-.91-.74c1.13-1.38,1.75-3.13,1.75-4.93,0-.15,0-.3-.01-.45l1.17-.07c0,.17.01.35.01.52,0,2.06-.72,4.07-2.02,5.67Z"/>
  <path class="cls-1" d="m47.15,13.82c-4.94,0-8.97-4.02-8.97-8.97,0-.91.14-1.8.4-2.66l1.12.35c-.23.75-.35,1.52-.35,2.31,0,4.3,3.5,7.8,7.8,7.8,2.54,0,4.93-1.25,6.39-3.33l.96.67c-1.68,2.4-4.43,3.83-7.35,3.83Z"/>
  <path class="cls-1" d="m34.24,17.69l-.91-.74c1.13-1.39,1.76-3.14,1.76-4.93,0-3.78-2.69-7.01-6.41-7.67l.21-1.15c4.27.77,7.37,4.48,7.37,8.83,0,2.06-.72,4.08-2.02,5.67Z"/>
  <path class="cls-1" d="m24.07,20.39c-3.43-1.32-5.74-4.69-5.74-8.37,0-1.32.28-2.58.83-3.77l1.06.49c-.48,1.03-.72,2.13-.72,3.28,0,3.2,2,6.12,4.99,7.28l-.42,1.09Z"/>
  <path class="cls-1" d="m16.95,22.21c-4.24,0-7.94-3.01-8.79-7.16l1.15-.23c.74,3.61,3.95,6.22,7.64,6.22,2.09,0,4.05-.82,5.52-2.3l.83.83c-1.7,1.7-3.95,2.64-6.35,2.64Z"/>
</svg>