<?xml version="1.0" encoding="UTF-8"?>
<svg id="Layer_1" data-name="Layer 1" xmlns="http://www.w3.org/2000/svg" viewBox="0 0 57.94 57.89">
  <defs>
    <style>
      .cls-1 {
        fill: #3895d1;
        stroke-width: 0px;
      }
    </style>
  </defs>
  <path class="cls-1" d="m34.81,48.3c.3-.25.63-.4,1.04-.33.77.14,1.32,1.12.58,1.95-.87.67-1.74.09-1.89-.59-.08-.39.05-.72.27-1.03Z"/>
  <path class="cls-1" d="m43.68,57.89c-.13-.13-.31-.11-.46-.16-.57-.2-1.04-.52-1.47-.94-1.27-1.28-2.55-2.55-3.83-3.83-.58-.58-.62-1.05-.17-1.72.2-.34.7-.52,1.1-.39.26.08.48.22.68.42,1.27,1.27,2.54,2.54,3.81,3.81.62.62,1.2.62,1.81,0,3.31-3.31,6.62-6.62,9.93-9.92.6-.6.6-1.19,0-1.79-.52-.52-1.04-1.04-1.57-1.57-.24-.24-.25-.24-.5,0-.26.25-.53.49-.76.76-.39.45-1.22.49-1.68.05-.49-.46-.51-1.22-.04-1.72.27-.28.54-.56.83-.83.16-.15.17-.26,0-.42-.77-.76-1.53-1.52-2.29-2.29-.18-.19-.31-.14-.47.02-.96.97-1.93,1.94-2.9,2.9-.53.53-1.24.52-1.75,0-.44-.46-.44-1.17.03-1.64.91-.92,1.83-1.84,2.75-2.75q.43-.43,0-.85c-.68-.68-1.37-1.37-2.05-2.05-.23-.23-.24-.23-.48,0-.26.26-.52.52-.78.78-.48.47-1.23.49-1.7.03-.45-.44-.47-1.19-.03-1.68.27-.29.56-.57.85-.85.16-.15.17-.26,0-.42-.8-.79-1.6-1.59-2.39-2.39-.16-.16-.27-.15-.42,0-.52.53-1.04,1.05-1.56,1.57-3.2,3.2-6.41,6.4-9.61,9.61-.06.06-.13.13-.19.19-.1.09-.1.19,0,.29.06.06.13.13.19.19,1.45,1.45,2.89,2.89,4.34,4.34.3.3.52.64.48,1.08-.03.3-.14.56-.42.71-.62.45-1.13.41-1.67-.13-1.52-1.51-3.04-3.03-4.55-4.55-.16-.16-.24-.18-.41,0-1.83,1.84-3.67,3.67-5.5,5.51-.25.25-.52.45-.85.59-5.17,2.37-10.33,4.74-15.49,7.1-.78.36-1.52.02-1.7-.76-.07-.31.04-.59.16-.86,2.16-4.7,4.31-9.4,6.47-14.1.04-.09.09-.18.12-.27.38-1.07,1.06-1.92,1.88-2.71,1.59-1.53,3.12-3.11,4.69-4.66.19-.19.17-.28,0-.46-5.02-5-10.03-10.01-15.03-15.02-1.4-1.4-1.44-3.36-.1-4.81.53-.57,1.09-1.11,1.64-1.66C5.46,6.83,8.3,4,11.13,1.16c.54-.54,1.16-.94,1.93-1.05.24-.13.51-.12.77-.1.09,0,.17.02.26,0,.78.1,1.44.44,1.99,1,4.95,4.95,9.89,9.89,14.84,14.83.06.06.13.12.19.19.14.18.29.2.44.01.06-.07.13-.13.19-.19,3.9-3.89,7.79-7.79,11.69-11.68.73-.73,1.56-1.26,2.61-1.4,1.18-.16,2.23.14,3.18.84.23.17.44.37.65.58,1.34,1.34,2.68,2.68,4.02,4.02.88.89,1.33,1.96,1.29,3.21-.03.97-.37,1.84-1.02,2.59-.45.52-.95,1-1.43,1.48-3.57,3.57-7.14,7.14-10.71,10.71-.06.06-.12.13-.19.19-.12.11-.13.21,0,.33.07.07.14.14.21.21,4.96,4.96,9.92,9.92,14.88,14.88,1.22,1.22,1.38,3.02.4,4.43-.09.13-.2.25-.31.36-3.47,3.46-6.93,6.93-10.39,10.39-.53.53-1.16.82-1.91.88h-1.02ZM22.18,10.92c-.99.99-1.97,1.98-2.96,2.96-.52.51-1.34.43-1.74-.17-.32-.47-.25-1.03.2-1.49.99-1,1.98-2,2.98-2.99.15-.15.15-.22,0-.37-.82-.8-1.63-1.61-2.43-2.43-.17-.17-.25-.14-.39.01-.28.3-.57.58-.87.87-.31.3-.67.42-1.09.31-.81-.22-1.12-1.16-.59-1.8.31-.37.66-.7,1-1.03.12-.12.12-.18,0-.3-.6-.59-1.19-1.18-1.78-1.77-.57-.56-1.18-.56-1.75.01-3.35,3.34-6.69,6.69-10.04,10.03-.6.6-.6,1.21,0,1.82,5,4.99,10,9.99,14.99,14.99.17.17.25.19.43,0,1.57-1.58,3.14-3.15,4.72-4.73,2.23-2.23,4.46-4.46,6.69-6.69.09-.09.26-.16.07-.34-.89-.87-1.77-1.76-2.65-2.65-.1-.1-.16-.1-.26,0-.29.3-.59.6-.89.89-.52.51-1.19.53-1.67.05-.44-.44-.41-1.13.06-1.63.3-.31.6-.61.9-.92.08-.08.12-.13.02-.24-.9-.89-1.79-1.79-2.71-2.72-.09.11-.17.21-.25.29Zm17.98-.14c-9.05,9.04-18.1,18.09-27.15,27.13-.18.18-.19.27,0,.46,2.17,2.16,4.34,4.32,6.5,6.5.2.2.3.23.52.01,6.1-6.11,12.2-12.21,18.31-18.31,2.95-2.95,5.9-5.9,8.85-8.84.15-.15.18-.23,0-.39-.42-.4-.84-.8-1.22-1.23-.19-.21-.29-.17-.46.01-2.61,2.62-5.22,5.22-7.83,7.83-.44.44-.88.9-1.35,1.32-.6.52-1.52.24-1.77-.51-.17-.52.04-.92.4-1.29,2.18-2.17,4.35-4.35,6.52-6.52.83-.83,1.67-1.66,2.5-2.5.08-.08.19-.13.05-.28-1.21-1.2-2.42-2.41-3.68-3.66-.06.09-.12.19-.19.27Zm5.23-5.22c-1.09,1.07-2.16,2.16-3.25,3.23-.12.12-.13.18,0,.3,2.23,2.22,4.46,4.45,6.69,6.69.12.12.18.12.3,0,1.05-1.06,2.11-2.1,3.15-3.16.76-.77.76-1.91,0-2.68-1.43-1.45-2.88-2.88-4.32-4.32-.36-.36-.8-.55-1.3-.54-.5,0-.93.14-1.27.47ZM11.52,40.13s-.03.04-.05.08c-.88,1.92-1.76,3.83-2.64,5.75-.07.15-.02.23.08.33.91.9,1.81,1.8,2.71,2.71.13.14.23.12.38.05,1.18-.55,2.36-1.08,3.54-1.62.76-.34,1.51-.69,2.27-1.03-2.1-2.1-4.19-4.18-6.28-6.26Zm-5.24,11.53c1.09-.5,2.17-1,3.24-1.5-.6-.6-1.19-1.19-1.8-1.8-.49,1.07-.99,2.16-1.49,3.24.01.02.03.04.04.05Z"/>
  <path class="cls-1" d="m33.74,27.4c0,.63-.51,1.15-1.13,1.15-.61,0-1.12-.51-1.12-1.12,0-.64.5-1.15,1.13-1.14.61,0,1.12.51,1.12,1.12Z"/>
</svg>