<?xml version="1.0" encoding="UTF-8"?>
<svg id="Layer_1" data-name="Layer 1" xmlns="http://www.w3.org/2000/svg" viewBox="0 0 68.5 60.63">
  <defs>
    <style>
      .cls-1 {
        fill: none;
        stroke: #3895d1;
        stroke-linecap: round;
        stroke-linejoin: round;
        stroke-width: 3px;
      }
    </style>
  </defs>
  <path class="cls-1" d="m48.29,42.68c2.15-2.86,1.82-6.27,1.35-9.34-.47-3.09-2.27-5.96-3.18-9.02-.86-2.88-2.98-3.49-5.26-2.89-2.53.66-3.78,3.69-2.58,6.24,2.26,4.79,2.31,9.23-.35,13.92-1.22,2.16-2.69,3.05-4.95,2.93-3.62-.2-7.24-.41-10.85-.77-1.15-.11-2.46-.44-3.34-1.13-3.9-3.04-5.75-11.08-3.78-15.68.42-.98.85-1.97,1.11-3,1.07-4.2,2.98-7.14,7.85-8,3.73-.66,5.07-3.7,3.64-8.94-4.8,1.03-9.72,1.78-14.42,3.26-1.56.49-2.93,2.66-3.72,4.37-2.21,4.77-4.15,9.67-6.01,14.58-.57,1.5-1.07,3.36-.7,4.82,1.25,4.93,3.17,9.69,4.32,14.64,1.04,4.45,3.4,6.58,7.93,7.18,4.3.58,8.47,2.07,12.75,2.86,5.33.99,10.63,0,15.69-1.53,7.36-2.24,14.62-4.69,22.48-4.04"/>
  <path class="cls-1" d="m31.82,9.74c4.15.39,8.27.89,11.97,3,6.69,3.81,9.96,9.86,11.02,17.59h12.18"/>
  <path class="cls-1" d="m22.83,7.49c.14-1.74.28-3.48.48-5.99-3.21,1.01-5.8,1.76-8.34,2.65-1.42.5-2.75,1.24-4.13,1.84-2.18.95-3.59,2.09-4.28,4.83-1.16,4.64-3.33,9.02-5.08,13.51"/>
  <path class="cls-1" d="m58.77,34.07c-2.74.75-5.49,1.5-8.23,2.25"/>
  <path class="cls-1" d="m43.79,17.6l-6.74-2.25"/>
  <path class="cls-1" d="m31.07,14.23h2.99"/>
</svg>