<?xml version="1.0" encoding="UTF-8"?>
<svg id="Layer_1" data-name="Layer 1" xmlns="http://www.w3.org/2000/svg" viewBox="0 0 50 31.44">
  <defs>
    <style>
      .cls-1 {
        fill: #3895d1;
        stroke-width: 0px;
      }
    </style>
  </defs>
  <g>
    <path class="cls-1" d="m25.04,2.08s.35-.21,1.08-.5c.36-.14.82-.3,1.37-.47.55-.16,1.2-.33,1.94-.45.49-.08,1.03-.14,1.61-.16.58-.03,1.2-.01,1.84.09.32.09.65.11.99.16.34.05.69.12,1.02.29.67.26,1.38.52,2.09.84.72.32,1.39.79,2.15,1.15.81.29,1.38,1.02,2.25,1.3.8.41,1.6.86,2.44,1.29.8.53,1.74.81,2.69,1.13.44.24.92.42,1.42.56.12.03.25.07.37.1.15.03.31.07.46.1l.15.03.14.04s.1.03.14.05l.1.06.05.03s.03.02.05.04c.03.03.06.07.07.11.02.04.03.09.02.12l-.03.12-.12.24s0,.02-.02.03l-.03.03-.05.06-.1.12-.1.12-.05.06-.03.04-.13.16c-.18.21-.34.42-.51.65-.33.44-.63.91-.93,1.4-.73.87-1.59,1.64-2.4,2.5-.87.8-1.79,1.59-2.82,2.26-.93.81-2.02,1.46-3.21,1.94-1.07.71-2.29,1.18-3.55,1.55-.39.11-.78.25-1.17.38l-.31.11c-.17.05-.34.11-.51.16-.35.11-.72.22-1.09.32.08-.46.16-.91.23-1.37l.05-.3.03-.18c.02-.12.05-.24.08-.36.09-.65.16-1.31.21-1.97.02-.33.05-.67.07-1,0-.17.02-.33.03-.5.01-.22.02-.43.03-.65v-.23s.02-.02.03-.02h.03s.05-.04.05-.04l.1-.06.35-.2c.14-.08.29-.17.43-.26.28-.18.56-.37.83-.57.54-.41,1.03-.87,1.46-1.4.46-.5.89-1.03,1.29-1.58.1-.14.2-.28.3-.42l.07-.11.04-.05.02-.03h0s0-.02,0-.02h0c-.08-.06.73.49.38.26h0s0,0,0,0c-.01,0-.02,0-.01,0,0,0,0,0,0,0,0,0,0,0,0,0h0c.08-.4-.12.55-.09.45h0s0,0,0,0h-.03s-.13-.05-.13-.05c-.35-.1-.7-.22-1.05-.35-.72-.17-1.42-.44-2.08-.78-.66-.34-1.28-.74-1.89-1.15-.63-.36-1.24-.75-1.87-1.06-.63-.32-1.29-.55-1.97-.6-.67-.11-1.37-.06-2.06.08-.34.07-.69.16-1.03.26-.17.05-.34.11-.51.16l-.26.09-.07.02-.13.05-.25.09h0s-.43-.18-.43-.18l-.25-.1c-.17-.06-.34-.13-.51-.18-.34-.11-.69-.21-1.03-.27-.69-.13-1.4-.15-2.07-.01-.67.14-1.31.36-1.95.64-.64.29-1.27.64-1.89,1.02-.66.31-1.29.69-1.94,1.04-.65.35-1.32.68-2.03.89-.09.03-.17.06-.26.09l-.13.04-.1.03s-.03.01-.05.01h-.02s-.05.01-.05.01c-.01,0-.04,0-.04.02l.02.04.02.04s0,.01.02.03l.05.07.03.04.04.05.08.1.16.2c.11.13.21.27.33.4.22.26.46.51.71.73.48.48,1,.91,1.52,1.32.26.2.53.4.81.59.14.1.27.19.41.28l.05.03.09.06.2.13.1.06.05.03s.04.02.03.04v.24c.04.37.07.46.09.64.02.17.04.33.05.5.03.33.04.67.05,1,.02.67.04,1.33.15,1.98.01.16.03.33.04.49l.02.16.03.19c.02.14.04.28.07.43.01.07.02.14.03.21v.1s0,.08,0,.08v.08s-.02.04-.02.04c0,.01-.01.01-.02.02l-.08.07c-.07.03-.15.06-.22.09l-.06.02h-.01s-.03,0-.03,0h-.05s-.2-.06-.2-.06c-.13-.03-.27-.06-.4-.1l-.38-.11c-.16-.05-.32-.09-.48-.14-.32-.1-.63-.2-.94-.32-1.25-.41-2.38-1.05-3.55-1.55-1.12-.6-2.24-1.17-3.2-1.94-.53-.31-1.01-.69-1.47-1.09-.46-.4-.89-.81-1.35-1.17-.87-.79-1.69-1.62-2.41-2.5-.6-.97-1.38-1.76-1.99-2.65l-.08-.12-.08-.11.02-.13c0-.07.03-.12.04-.16.02-.04.04-.08.07-.12s.07-.08.12-.12c.06-.04.15-.08.28-.08h-.11c.9-.22,1.74-.57,2.61-.78.94-.33,1.87-.65,2.69-1.13.83-.44,1.78-.65,2.44-1.29.75-.48,1.61-.75,2.25-1.3.66-.55,1.45-.81,2.15-1.15.71-.34,1.41-.63,2.09-.84.77-.25,1.53-.4,2.25-.48.72-.08,1.4-.08,2.03-.04,1.26.09,2.3.34,3.12.58.83.25,1.44.49,1.85.66.41.17.61.28.6.3,0,.02-.28-.06-.8-.22-.52-.16-1.29-.4-2.3-.62-1.01-.21-2.29-.4-3.77-.3-.74.05-1.53.19-2.34.43-.81.24-1.65.59-2.5,1.02-.68.35-1.32.84-2.09,1.17-.72.42-1.42.95-2.23,1.34-.7.59-1.59.93-2.46,1.35-.87.43-1.8.79-2.74,1.2-.83.39-1.76.58-2.67.83l-.09-.3s0,.03.02.05c.02.03.04.05.06.06.02.01.02.02,0,0-.02,0-.06-.02-.1-.03.07-.07.13-.15.2-.22l.08.11c.5.93,1.18,1.78,1.96,2.56.64.9,1.51,1.63,2.36,2.4.75.88,1.74,1.54,2.75,2.17,1.01.64,2.01,1.33,3.12,1.86,1.08.59,2.26,1.03,3.45,1.48.3.09.61.18.92.27.15.04.31.09.46.13.05.02.04,0,.05.01h.02s.02,0,.02,0c.01,0,.03,0,.04,0,0-.01,0-.02,0-.04v-.02s0,0,0,0v-.03s-.01-.08-.01-.08c-.02-.17-.03-.33-.05-.5-.12-.66-.19-1.34-.24-2.02-.03-.34-.05-.68-.07-1.02-.01-.29-.03-.59-.04-.89v-.02s-.02,0-.02,0h-.02s0,0,0,0h0s0,0,0,0l-.06-.03c-.15-.09-.3-.18-.45-.28-.3-.2-.58-.41-.86-.63-.56-.44-1.09-.93-1.6-1.44-.26-.25-.5-.52-.73-.81-.11-.14-.22-.29-.33-.43l-.16-.22-.17-.24-.1-.14-.13-.19-.06-.1-.03-.05-.03-.05-.1-.19s-.04-.06-.05-.09v-.07s-.01-.15-.01-.15c0-.05.04-.13.07-.16l.11-.1.06-.05s.02-.02.04-.02l.05-.02.2-.08c.07-.03.15-.05.22-.07.07-.02.16-.05.2-.06l.15-.05s.05-.02.07-.03l.06-.03c.08-.03.16-.07.24-.11.65-.23,1.29-.5,1.92-.81.63-.31,1.25-.66,1.86-1.05.63-.36,1.27-.74,1.97-1.07.69-.33,1.44-.6,2.23-.73.8-.04,1.59.02,2.37.15.39.06.77.15,1.14.24.19.05.38.1.56.16l.28.09.07.02s0,0,0,0h.03s0-.01,0-.01l.06-.03c.09-.04.18-.07.27-.11.18-.07.37-.13.55-.19.37-.12.75-.21,1.14-.28.78-.14,1.59-.17,2.38-.04.8.1,1.56.37,2.25.7.69.33,1.33.72,1.95,1.1.64.35,1.24.72,1.86,1.05.62.33,1.26.62,1.92.81.33.1.66.19.99.28l.12.03h.03s0,0,0,0h0s.27.11.15.06l.03.02s.04.03.06.05c.03.03.07.07.09.11.05.08.08.15.09.24.01.08,0,.18-.02.27,0,.03-.02.05-.03.07v.02s-.04.05-.03.04h0s0,0,0,0h0s-.02.04-.02.04l-.04.06-.08.11c-.11.15-.22.3-.33.44-.45.58-.93,1.12-1.41,1.65-.49.53-1.02,1.03-1.58,1.47-.28.22-.57.43-.87.62-.15.1-.3.19-.45.28l-.06.03s-.01,0-.01,0h0s-.02,0-.02,0c0,0-.01,0-.02,0v.02c-.02.12-.02.25-.03.37-.01.17-.03.34-.04.51-.03.34-.07.68-.11,1.02-.08.68-.15,1.35-.18,2.03l-.04.38-.02.19v.05s0,0,0,0h0s.02.05.03.05c.02-.02.03-.03.03-.03,0,0,.01,0,.02-.01l.12-.04.14-.04c.38-.11.77-.21,1.16-.28,1.18-.48,2.39-.83,3.45-1.48,1.17-.42,2.14-1.18,3.12-1.86,1-.65,1.95-1.34,2.75-2.17.79-.83,1.66-1.55,2.36-2.4.32-.45.68-.85,1.03-1.26.17-.21.34-.41.5-.63l.12-.16.03-.04v-.02s.03-.03.03-.03c.03-.05.04-.09.05-.12.01-.02.04-.04.03-.06,0-.01,0-.02-.02-.03,0,0-.02,0-.03-.01l-.13-.03c-.09-.03-.19-.05-.28-.08-.13-.04-.25-.07-.38-.11-.51-.15-1-.32-1.48-.51-.52-.08-.99-.27-1.44-.49-.45-.23-.87-.49-1.3-.71-.85-.45-1.76-.75-2.46-1.35-.87-.31-1.54-.88-2.23-1.34-.7-.46-1.45-.75-2.09-1.17-.37-.12-.7-.29-1.02-.45-.33-.16-.65-.32-.98-.41-.64-.29-1.3-.37-1.92-.48-.62-.06-1.21-.1-1.77-.13-.56,0-1.08.04-1.57.1-.73.09-1.37.22-1.92.36-.55.13-1.01.27-1.38.38-.74.23-1.13.36-1.14.33Z"/>
    <path class="cls-1" d="m1.23,6.96c.28-.08.55-.17.82-.26.46-.15.92-.3,1.39-.41.91-.32,1.78-.63,2.55-1.08.31-.16.61-.29.91-.42.54-.23,1.06-.44,1.43-.8l.08-.06c.32-.21.66-.37.99-.54.45-.22.87-.43,1.21-.72.55-.46,1.15-.72,1.73-.98.18-.08.36-.16.53-.24.75-.37,1.48-.66,2.16-.87.77-.25,1.57-.41,2.35-.5.69-.07,1.4-.09,2.11-.04,1.38.1,2.51.39,3.23.6.68.2,1.3.42,1.9.68.15.06.29.12.41.18.19-.09.48-.22.9-.38.38-.15.85-.31,1.41-.48.7-.21,1.35-.35,2-.46.56-.09,1.12-.15,1.67-.17.69-.03,1.33,0,1.94.09.27.07.48.09.71.12l.28.04c.35.05.78.13,1.18.34l.22.08c.6.23,1.22.47,1.85.75.38.17.75.38,1.13.6.33.19.67.38,1.02.55.41.14.77.41,1.13.67.35.25.68.49,1.06.61.43.21.78.4,1.14.6.45.24.91.49,1.38.72.7.45,1.46.71,2.27.99l.35.12c.46.24.89.41,1.39.55.11.03.23.06.35.09l.79.19c.1.03.15.05.2.07l.24.14s.1.06.16.15c.03.03.08.11.12.2.04.1.11.27.05.47l-.06.21-.17.33-.49-.19.39.32-.42.51c-.17.2-.33.4-.48.62-.29.39-.58.83-.91,1.36-.53.63-1.06,1.17-1.58,1.68-.3.29-.6.59-.89.9-1.08,1.01-2,1.74-2.91,2.33-.89.78-2,1.45-3.25,1.96-.96.63-2.12,1.14-3.64,1.58-.39.11-.77.24-1.15.37l-.95.3c-.32.1-.65.2-.99.29l-.76.21.46-2.65c.02-.13.05-.25.08-.38.08-.53.14-1.15.2-1.9.02-.33.05-.66.07-.99l.07-1.31-.06-.3.86-.49c.14-.08.28-.16.41-.25.27-.17.54-.35.79-.54.53-.41,1-.85,1.37-1.32.25-.27.49-.55.72-.84l-.08-.25-.22-.2c-.49-.16-1.02-.38-1.55-.65-.71-.36-1.37-.8-1.94-1.18-.18-.1-.4-.23-.6-.35-.4-.24-.8-.48-1.21-.68-.65-.33-1.23-.51-1.79-.55-.6-.09-1.23-.07-1.92.07-.33.07-.66.15-.99.25-.16.05-.33.1-.5.16l-.89.32-.2-.11-.63-.25c-.16-.06-.32-.12-.48-.17-.35-.12-.67-.2-.97-.26-.67-.13-1.3-.13-1.87-.01-.64.14-1.24.34-1.85.61-.58.26-1.18.59-1.83.99-.5.24-.93.48-1.36.72l-.61.33c-.55.3-1.29.68-2.1.92h0c.1.12.2.25.3.37.21.24.43.48.67.69.45.45.94.87,1.49,1.3.26.2.52.39.79.58.13.09.27.19.4.27l.52.33c.17.1.23.28.23.45v.21c.02.17.04.28.06.38l.03.21c.02.17.04.35.05.53.03.34.04.68.05,1.02v.1c.02.63.04,1.23.14,1.81.02.21.03.36.05.52l.17,1.16v.07s-.53.07-.53.07l.49.08-.04.23-.34.26c-.06.03-.12.05-.18.08l-.32-.41.19.46-.16.07-.44-.1c-.14-.03-.28-.07-.42-.11l-.86-.25c-.33-.1-.65-.21-.97-.33-.82-.27-1.61-.64-2.37-1.01-.4-.19-.8-.38-1.2-.56l-.31-.16c-1.03-.55-2.09-1.11-3.01-1.85-.55-.31-1.09-.75-1.48-1.1l-.46-.41c-.29-.26-.57-.51-.87-.75-.98-.89-1.79-1.73-2.48-2.57-.36-.57-.74-1.04-1.12-1.51-.31-.39-.62-.78-.9-1.18l-.12-.18-.05-.04-.05-.11-.04-.06.04-.32c.01-.12.05-.22.08-.29.04-.09.08-.16.14-.23.04-.06.12-.15.24-.23.11-.08.23-.13.36-.15.03,0,.05-.01.08-.02m32.15,11.81l-.12.72c.07-.02.14-.04.21-.06l.4-.12-.38-.19-.11-.34h0Zm-16.11.64h.02s-.03-.22-.03-.22v.22Zm16.95-.24l-.04.03.2-.07s.1-.03.14-.05l-.14.04-.16.05Zm5.59-10.11c0,.14-.01.28-.06.41l-.06.13h0s-.02.04-.03.06l-.25.42-.03-.02c-.08.11-.16.22-.25.32-.43.55-.9,1.08-1.35,1.58l-.09.1c-.52.57-1.07,1.08-1.64,1.53-.29.23-.6.45-.91.65-.12.08-.24.15-.36.22l-.04.56c-.04.4-.07.73-.11,1.05-.08.71-.15,1.34-.18,1.97.29-.08.56-.14.81-.18.32-.13.65-.25.97-.37.84-.31,1.64-.61,2.36-1.05l.09-.04c.92-.33,1.73-.9,2.52-1.46l.49-.34c.81-.53,1.84-1.25,2.68-2.1.3-.31.6-.6.91-.9.51-.49,1-.96,1.42-1.47.25-.34.53-.68.82-1.02l.22-.25c.13-.15.25-.3.37-.46l-.21-.06c-.56-.17-1.04-.33-1.47-.51-.63-.1-1.17-.35-1.53-.53-.24-.12-.48-.26-.71-.39-.2-.11-.39-.22-.59-.32-.27-.14-.54-.27-.8-.39-.58-.27-1.17-.54-1.69-.96-.67-.26-1.22-.64-1.75-1.01-.17-.12-.34-.24-.51-.35-.34-.23-.71-.41-1.06-.6-.34-.17-.67-.34-.97-.54-.36-.12-.68-.28-.99-.44-.37-.19-.65-.32-.93-.39-.56-.25-1.09-.34-1.59-.42l-.28-.05c-.58-.06-1.16-.09-1.71-.13-.46,0-.95.04-1.48.1-.6.07-1.19.18-1.86.35-.54.13-.99.26-1.36.37l-.44.14c-.23.07-.43.13-.59.17-.07.04-.15.04-.26.04-.09,0-.16,0-.22-.04-.19-.04-.42-.12-.72-.21l-.11-.03c-.52-.16-1.22-.38-2.15-.57-.91-.19-2.15-.39-3.63-.29-.75.05-1.5.19-2.23.41-.75.22-1.56.55-2.41.98-.27.14-.54.3-.81.47-.41.25-.83.51-1.31.72-.21.12-.46.29-.72.46-.45.29-.92.59-1.44.85-.6.49-1.31.82-1.99,1.13l-.52.25c-.58.29-1.21.55-1.81.81-.31.13-.63.26-.94.4-.56.27-1.17.44-1.78.6.4.58.86,1.13,1.4,1.66.57.79,1.25,1.4,1.97,2.05l.37.34c.76.89,1.74,1.53,2.68,2.11l.63.4c.78.5,1.59,1.02,2.44,1.43,1.05.57,2.15.99,3.32,1.43.32.1.59.18.87.26-.1-.57-.18-1.24-.24-2-.03-.34-.05-.69-.07-1.04l-.03-.63c-.13-.08-.24-.15-.35-.22-.31-.2-.6-.42-.89-.65-.53-.42-1.07-.91-1.64-1.48-.24-.24-.49-.51-.76-.84-.12-.15-.23-.29-.34-.45l-.82-1.24c-.03-.06-.07-.12-.09-.2l-.03-.32c-.02-.24.13-.44.18-.5l.17-.16c.09-.11.2-.15.25-.17l.25-.1c.06-.02.12-.04.18-.06.14-.04.22-.06.25-.08l.27-.1c.07-.03.14-.06.21-.09.72-.26,1.33-.52,1.91-.81.56-.28,1.16-.61,1.82-1.02l.23-.13c.57-.33,1.15-.66,1.79-.96.81-.38,1.6-.65,2.36-.78.88-.04,1.71,0,2.53.15.4.07.79.15,1.19.25.2.05.39.11.58.17l.19.06c.08-.03.15-.06.22-.08.19-.07.38-.14.58-.2.42-.13.81-.23,1.21-.3.88-.16,1.74-.17,2.55-.04.76.1,1.56.35,2.39.74.65.31,1.24.67,1.82,1.02l.17.1c.25.14.52.29.78.44m.57.24-18.71,7.79l.03.61c.02.33.04.67.07,1.01.01.14.02.28.04.41,0-.11,0-.23-.01-.34v-.1c-.01-.33-.02-.65-.05-.98-.01-.16-.03-.32-.05-.48l-.02-.13Zm16.8-.4h-.01s0,0,.01,0Zm.21-.12v.04s.02-.05.02-.05h-.02Zm-17.1-.04l.02.06s0,0,0-.01l-.02-.05Zm-1.86-1.34c.11.09.22.18.33.27.27.21.54.41.83.6.05.03.1.06.15.1-.05-.04-.1-.07-.15-.1-.28-.19-.55-.4-.82-.6-.11-.09-.22-.18-.33-.26Zm23.28-2.54s-.06.08-.08.11c.03-.04.06-.07.09-.11h0Zm-26.24-.85l.13.23c0-.12.04-.24.12-.33l-.26.1Zm.07-.07h-.01s0,0,.01,0Zm-.09-.08h0s0,0,0,0Zm25.88-.21s0,0,0,0h0s0,0,0,0Zm11.4-.17l.14.07-.12-.1-.02.03Zm-15.37-1.72c.54.36,1.13.74,1.74,1.05.56.29,1.12.51,1.66.67-.54-.19-1.06-.42-1.65-.73-.37-.19-.73-.4-1.09-.61-.22-.12-.44-.25-.66-.38Zm-8.17-1.24v.02s.19-.07.19-.07c.18-.06.35-.11.53-.17.36-.11.72-.2,1.08-.27.53-.11,1.04-.16,1.53-.14-.5-.02-1.01.01-1.53.11-.35.06-.7.15-1.08.27-.18.06-.35.12-.53.18l-.19.07Zm-4.82-.55c-.43.08-.91.22-1.41.42.46-.18.93-.32,1.41-.42Z"/>
  </g>
  <g>
    <path class="cls-1" d="m16.49,12.29s.06.17.09.49c.02.16.03.36.05.59.02.23.04.51.07.81,0,.1.02.21.02.32.01.11.02.22.03.34.03.23.06.48.07.74-.06.27.19.53.09.83-.01.29.06.59.12.9.06.31.03.65.15.98.2.31-.06.72.19,1.05.05.18.1.36.13.54.02.09.03.19.05.28.02.09.04.19.06.28-.02.2.03.4.09.59.07.19.15.38.21.58-.02.22.02.42.09.63.03.1.08.2.12.3.05.1.1.19.16.29-.03.24,0,.46.08.67.08.21.2.4.38.58.17.42.29.87.57,1.25.11.21.23.41.35.61.06.1.12.21.18.31.06.1.12.21.18.31.05.04.09.09.13.13.04.04.09.09.13.13.08.09.16.18.23.28.07.1.14.2.2.3.03.05.06.11.09.16.03.05.06.11.09.16.42.29.72.67,1.07,1.04.17.19.39.31.62.43.12.05.23.11.34.17.11.05.22.12.32.2.46.22.96.31,1.46.37.12.02.25.05.38.05h.19c.07,0,.13.01.19,0,.26-.02.52-.09.75-.23.49-.18.94-.46,1.43-.7.36-.43.8-.74,1.25-1.11.36-.44.79-.84,1.04-1.38.08-.12.16-.25.23-.38.07-.13.13-.26.2-.4.07-.13.13-.27.2-.4.07-.13.14-.26.22-.39.15-.27.29-.53.41-.81.06-.14.12-.28.16-.42.04-.14.08-.29.11-.44.03-.15.07-.29.11-.43.04-.14.1-.28.15-.42.1-.28.21-.56.27-.85.14-.27.21-.55.25-.85.04-.29.08-.58.15-.86.1-.57.29-1.12.3-1.7.02-.28.05-.57.08-.84.03-.28.07-.56.13-.83-.17-.57.15-1.1.13-1.64.03-.13.05-.27.06-.4.01-.13,0-.27,0-.4,0-.27-.01-.53,0-.8,0-.13,0-.26,0-.4v-.05s0,0,0-.01v-.02s.02-.05.02-.05c0-.02,0-.04.01-.06,0,0,0-.01,0-.01h-.01s-.02,0-.03,0c-.04,0-.08,0-.12.03,0,0-.04,0-.07,0h-.1s-.19,0-.19,0c-.13,0-.26.01-.38.02-.25,0-.51.01-.76-.03-.5.11-.99-.09-1.47-.02-.48,0-.95,0-1.41-.02-.46-.17-.91-.03-1.35-.02-.44-.02-.87.1-1.29-.02-.42-.01-.82-.09-1.22-.02-.4.02-.78-.25-1.15-.02-.37.04-.73-.17-1.07-.02-.35.14-.68-.02-1-.02-.32,0-.63-.02-.92-.02-2.63-.07-4.14-.16-4.14-.25,0-.1,1.86-.2,5.06-.27.32,0,.65-.13,1-.02.35,0,.7-.09,1.07-.02.37-.16.75-.03,1.15-.02.39,0,.8.04,1.22-.02.42-.09.85.05,1.29-.02.44.1.89.07,1.35-.02.46.09.93-.02,1.41-.02.48.15.97.04,1.47-.02.25-.03.5-.02.76-.01.13,0,.25,0,.38,0,.06,0,.13,0,.19,0,.07,0,.15,0,.22,0,.23,0,.46,0,.69,0h.17s.09,0,.09,0c.02,0,.01.02.01.03v.04c0,.12,0,.23,0,.35,0,.22,0,.44,0,.67,0,.13,0,.27,0,.4.03.27.04.54.04.82,0,.14,0,.27-.02.41-.02.14-.04.27-.07.41.02.56-.07,1.12-.12,1.68,0,.29-.03.57-.07.86-.04.29-.1.57-.13.86-.06.59-.33,1.14-.29,1.75-.04.3-.12.59-.19.88-.07.29-.16.59-.22.89-.09.29-.18.59-.28.88-.05.15-.1.29-.14.44-.04.15-.09.3-.13.45-.09.13-.17.27-.23.41-.06.14-.13.29-.18.44-.1.3-.2.6-.3.91-.05.15-.12.29-.19.44-.07.14-.14.29-.22.43-.08.14-.16.28-.24.41-.09.13-.18.27-.27.4-.33.54-.72,1.05-1.15,1.51-.1.12-.21.24-.32.35-.11.11-.24.21-.36.31-.25.2-.5.39-.74.59-.12.11-.25.19-.39.27-.14.08-.28.14-.43.21-.14.07-.3.12-.44.17-.15.06-.3.11-.44.17-.59.23-1.25.32-1.87.19-.15-.01-.31-.05-.46-.08-.15-.04-.29-.09-.44-.13-.14-.05-.28-.1-.43-.14-.14-.05-.28-.09-.44-.12-.14-.06-.28-.11-.42-.16-.14-.06-.27-.12-.41-.18-.26-.14-.5-.32-.64-.59-.06-.04-.12-.08-.17-.13-.05-.05-.1-.1-.15-.14-.1-.1-.2-.2-.28-.31-.09-.11-.18-.21-.27-.31-.09-.1-.18-.2-.29-.29-.03-.06-.06-.13-.09-.18-.03-.06-.07-.12-.1-.17-.07-.11-.16-.21-.24-.31-.08-.1-.17-.2-.25-.3-.04-.05-.08-.1-.12-.15-.04-.05-.07-.11-.11-.16-.06-.11-.12-.23-.18-.34-.06-.11-.11-.23-.17-.34-.12-.22-.23-.44-.37-.65-.29-.41-.37-.9-.57-1.33-.14-.2-.18-.43-.23-.66-.05-.22-.1-.45-.21-.65-.03-.11-.06-.21-.1-.32-.03-.11-.06-.21-.09-.31-.06-.21-.13-.41-.16-.62-.16-.18-.21-.38-.23-.59-.02-.21,0-.42-.04-.62-.01-.1-.04-.19-.07-.29-.03-.09-.06-.19-.09-.28-.06-.19-.09-.37-.05-.57-.22-.34-.14-.72-.15-1.07,0-.35-.17-.67-.11-1-.15-.31,0-.63-.07-.92.05-.3-.04-.57-.04-.84-.04-.26-.05-.52-.02-.75,0-.12,0-.23,0-.34,0-.11,0-.22,0-.32,0-.31,0-.58.01-.82.01-.24.02-.44.04-.6.03-.32.05-.49.08-.49Z"/>
    <path class="cls-1" d="m25.2,31.44c-.23,0-.46-.02-.68-.07-.1,0-.26-.04-.42-.07l-.51-.15c-.17-.06-.29-.11-.42-.14-.15-.05-.26-.08-.39-.11l-.11-.03c-.13-.05-.26-.1-.4-.15-.17-.07-.31-.14-.46-.21-.25-.14-.57-.34-.79-.69-.04-.03-.07-.05-.1-.08-.07-.06-.12-.11-.17-.16l-.08-.08c-.09-.1-.19-.19-.27-.3-.08-.09-.16-.19-.24-.28-.08-.09-.16-.17-.24-.24l-.09-.08-.05-.11s-.05-.09-.07-.14c-.03-.06-.06-.1-.09-.14-.06-.09-.13-.17-.19-.25l-.27-.33c-.06-.07-.1-.12-.14-.18-.05-.07-.09-.13-.13-.2l-.37-.71c-.14-.25-.23-.43-.34-.59-.22-.31-.34-.66-.45-.96-.05-.15-.1-.3-.17-.44-.14-.19-.2-.47-.25-.69l-.04-.16c-.04-.16-.07-.31-.13-.41l-.05-.13c-.03-.1-.06-.2-.09-.3l-.13-.44c-.04-.15-.09-.29-.12-.44-.19-.27-.24-.55-.26-.75,0-.1-.01-.2-.01-.3s0-.19-.02-.29c-.01-.09-.03-.16-.05-.22l-.09-.29c-.06-.19-.1-.4-.09-.63-.16-.34-.14-.69-.14-.95,0-.07,0-.14,0-.21,0-.11-.02-.23-.05-.35-.04-.18-.08-.37-.07-.59-.08-.25-.06-.47-.05-.65,0-.09.01-.18,0-.23l-.02-.1.02-.1c.02-.11,0-.23-.02-.38-.02-.13-.03-.25-.03-.38-.04-.22-.05-.52-.02-.81v-.27s0-.33,0-.33c0-.32,0-.59.01-.83.01-.25.02-.46.04-.62.02-.2.03-.41.09-.58.03-.48.41-.52,5.54-.65.09,0,.17-.01.26-.03.23-.03.5-.07.81,0,.09,0,.18-.01.27-.02.21-.02.44-.04.69-.01.33-.1.65-.06.91-.03.1.01.2.02.31.03.12,0,.26,0,.41,0,.25,0,.49.01.73-.02.26-.06.54-.04.78-.02.18.01.35.03.5,0h.09s.09,0,.09,0c.33.07.7.07,1.15-.02l.1-.02.1.02c.22.04.48.02.75,0,.19-.02.38-.04.57-.03l.14.02c.3.09.64.05,1.04,0l.23-.03c.28-.03.55-.02.83-.02h.55s.21,0,.21,0c.25,0,.47,0,.7,0h.17c.11-.03.29,0,.42.1l.21.16-.02.28v1.03c.01.14,0,.29,0,.43.03.21.04.5.04.8,0,.15-.01.31-.03.46-.02.14-.04.27-.06.4,0,.43-.03.84-.08,1.25l-.04.43c0,.27-.03.57-.07.88l-.04.27c-.03.19-.06.38-.08.58-.02.26-.09.52-.16.78-.08.31-.16.6-.14.89v.05s0,.05,0,.05c-.03.24-.09.47-.15.71l-.14.55c-.05.18-.09.36-.13.54l-.29.93c-.05.15-.1.29-.14.43l-.2.59c-.07.11-.14.22-.19.34-.06.14-.12.26-.16.39l-.3.9c-.05.15-.11.28-.18.42-.11.23-.19.39-.28.54-.08.13-.16.28-.24.42l-.28.42c-.34.55-.74,1.09-1.2,1.58-.09.11-.21.24-.34.36-.09.09-.19.17-.29.25l-.41.33c-.15.12-.3.23-.44.35-.14.13-.31.23-.46.32-.14.08-.3.16-.46.22-.12.06-.24.1-.35.14l-.13.05c-.06.03-.14.05-.21.08-.07.03-.14.05-.21.08-.51.2-1.01.29-1.49.29Zm2.63-1.91c-.14.07-.28.14-.42.22-.13.07-.27.14-.41.21.06-.02.11-.04.17-.07.15-.07.27-.11.38-.18.11-.06.21-.12.28-.18Zm-5.82-.08c.07.06.16.12.27.18.1.05.22.11.35.16.03.01.06.02.1.03,0,0-.01,0-.02,0-.12-.06-.22-.11-.33-.16-.12-.06-.25-.13-.38-.21Zm1.5-.31c.41.18.86.26,1.26.31l.15.02c.07.01.14.02.21.03h.17s.07.01.1,0c.24-.02.42-.08.57-.16.38-.15.67-.31.98-.47.13-.07.26-.14.39-.21.29-.33.62-.59.94-.85l.3-.24s.12-.16.22-.27c.27-.31.53-.6.68-.94.12-.18.19-.3.26-.42l.39-.77c.05-.1.11-.21.18-.32l.05-.09c.16-.29.28-.51.38-.75.07-.16.11-.26.14-.37.04-.13.08-.26.1-.39.03-.17.07-.33.12-.48.05-.15.11-.3.16-.45l.04-.11c.08-.21.16-.43.2-.65l.05-.13c.09-.18.16-.4.2-.68.04-.33.08-.63.17-.92.02-.15.07-.35.11-.55.08-.36.16-.7.16-1.02.03-.33.05-.61.09-.9.02-.25.06-.51.11-.76-.09-.41,0-.79.07-1.1.04-.19.08-.38.08-.54v-.07s.01-.07.01-.07c.03-.11.04-.22.05-.33,0-.12,0-.24,0-.36v-.12c0-.13,0-.26,0-.39l-.04-.37h-.28c-.24.02-.5.02-.77-.01-.31.05-.59.02-.85-.01-.2-.02-.39-.04-.55-.02h-.38c-.38,0-.76,0-1.13-.01l-.15-.03c-.22-.08-.46-.05-.73-.02-.14.02-.29.03-.43.04-.18,0-.32,0-.46.01-.28.02-.59.04-.91-.04-.12,0-.23-.01-.34-.02-.26-.02-.5-.04-.72,0-.27.02-.47-.02-.64-.06-.19-.04-.28-.06-.34-.03l-.21.07c-.22.03-.43-.01-.6-.04-.14-.02-.27-.05-.33-.02-.37.15-.71.09-.96.05-.08-.01-.17-.03-.25-.03l-.92-.02c-1.76-.05-2.85-.09-3.53-.14.01.13.02.28.04.44l.12,1.45c.03.23.06.49.07.77v.06s-.01.06-.01.06c0,0,.02.06.04.11.05.16.13.4.06.68,0,.18.04.39.09.61l.02.12c.03.14.04.28.05.42.01.16.03.31.07.44.14.26.13.53.12.72,0,.09-.01.2.01.23l.08.16c.06.19.11.39.15.59l.12.63v.07c-.01.11,0,.23.06.39l.08.21c.05.12.1.25.14.38l.03.1v.1c-.02.12,0,.24.06.42.03.07.06.15.1.23.04.08.09.16.14.25l.09.15-.02.17c-.02.15,0,.3.05.42.07.16.15.3.27.41l.11.16c.05.12.09.24.14.36.11.29.21.57.37.79.15.26.26.46.38.65l.15.25c.08.13.14.23.19.33.03.03.06.06.09.09l.14.14c.09.1.18.21.26.33.07.1.15.21.22.33.03.06.07.12.1.18.01.02.02.04.03.06.35.26.62.57.89.86l.16.18c.11.13.3.23.48.32.1.04.22.11.34.17.12.06.24.13.35.21Zm5.72-.81l-.33.27c-.3.24-.58.46-.81.72.09-.07.18-.14.26-.21l.38-.31c.08-.06.15-.13.22-.2.09-.09.18-.19.27-.29Zm2-3.06l-.05.09c-.05.09-.1.18-.15.27l-.4.8c-.03.06-.07.11-.1.16l.11-.16c.07-.11.14-.24.22-.38.08-.13.14-.26.2-.39.08-.18.13-.28.17-.39h0Zm.9-2.37c-.02.06-.04.12-.06.17-.03.09-.05.19-.08.28l.08-.26c.02-.07.04-.13.06-.2Zm1.22-5.93c-.03.16-.05.32-.06.49,0,.06-.01.12-.02.17l.03-.18c.02-.16.04-.32.05-.48Zm.11-1.33s0,.04-.01.07c-.06.26-.11.49-.06.7l.02-.23c.02-.18.04-.36.05-.53Zm.06-3.28l.02.02v-.02h-.02Z"/>
  </g>
</svg>