<?xml version="1.0" encoding="UTF-8"?>
<svg id="Layer_1" data-name="Layer 1" xmlns="http://www.w3.org/2000/svg" viewBox="0 0 41.47 57.75">
  <defs>
    <style>
      .cls-1 {
        fill: #3495d6;
        stroke-width: 0px;
      }
    </style>
  </defs>
  <path class="cls-1" d="m4.49,27.15c6.78-7.8,17.59-8.4,25-3.58,1.6,1.04,3.03,2.29,4.24,3.78.31.34.62.68.93,1.03.03.11.07.22.1.33-.01.12.06.16.16.18.52.91,1.04,1.82,1.57,2.73.14.39.28.78.42,1.17,1.95,6.14,1.45,12.02-2.48,17.2-4.76,6.27-11.28,8.81-19,7.36-7.47-1.41-12.46-5.97-14.71-13.29-1.05-3.43-.89-6.92.11-10.36.14-.49.25-.99.37-1.48.41-.72.81-1.45,1.22-2.17.19-.33.39-.65.58-.98.5-.64.99-1.28,1.49-1.92Zm14.7,1.24c-.74-.15-1.47-.14-2.17.17-.49-.03-.96.1-1.41.27-.66.22-1.33.42-1.88.87-.52.18-.94.52-1.37.85-.34.29-.68.59-1.02.88-.39.35-.74.75-1.01,1.2-.51.08-.46.59-.65.9-2.57,4.23-1.98,9.46,1.43,13.09,3.28,3.48,8.56,4.34,12.87,2.09,5.84-3.05,7.67-11.02,3.65-15.95-.22-.39-.5-.73-.85-1-1.11-1.34-2.53-2.21-4.15-2.79-.43-.12-.86-.24-1.29-.37-.24-.06-.48-.12-.73-.17-.47-.11-.95-.13-1.43-.05Z"/>
  <path class="cls-1" d="m33.32,22.96c-4.52.17-8.42-3.52-8.57-8.09-.15-4.5,3.48-8.4,8-8.58,4.63-.19,8.57,3.39,8.72,7.92.15,4.8-3.37,8.58-8.14,8.76Zm4.22-8.31c0-2.46-1.94-4.43-4.37-4.44-2.47,0-4.49,1.97-4.51,4.41-.02,2.39,2.07,4.47,4.48,4.47,2.38,0,4.4-2.04,4.4-4.44Z"/>
  <path class="cls-1" d="m20.22,11.81c-3.28-.07-5.84-2.75-5.78-6.06C14.49,2.55,17.22-.05,20.46,0c3.25.05,5.86,2.79,5.78,6.07-.07,3.22-2.79,5.8-6.02,5.74Zm.15-2.6c1.84-.02,3.3-1.49,3.28-3.32-.02-1.83-1.5-3.25-3.36-3.23-1.8.02-3.23,1.46-3.23,3.27,0,1.83,1.48,3.3,3.32,3.29Z"/>
</svg>