<?xml version="1.0" encoding="utf-8"?>
<!-- Generator: Adobe Illustrator 27.8.0, SVG Export Plug-In . SVG Version: 6.00 Build 0)  -->
<svg version="1.1" id="Layer_1" xmlns="http://www.w3.org/2000/svg" xmlns:xlink="http://www.w3.org/1999/xlink" x="0px" y="0px"
	 viewBox="0 0 58.98 54.63" style="enable-background:new 0 0 58.98 54.63;" xml:space="preserve">
<style type="text/css">
	.st0{fill:#3895D1;}
</style>
<g>
	<path class="st0" d="M21.05,14.6c1.49,0,2.99,0,4.49,0c1.17,0,1.77,0.61,1.78,1.78c0.01,1.36,0.02,2.72,0.01,4.08
		c0,0.32,0.02,0.43,0.41,0.33c1.35-0.36,2.62-0.07,3.8,0.61c1.66,0.97,2.44,3.61,1.65,5.56c-0.1,0.25-0.23,0.49-0.38,0.82
		c0.63-0.21,1.17-0.52,1.78-0.65c3.29-0.66,6.14,2.1,5.5,5.4c-0.11,0.57,0.04,0.63,0.54,0.61c1.28-0.04,2.56-0.04,3.85-0.04
		c1.17,0,1.79,0.61,1.8,1.77c0.02,1.68,0.03,3.35,0.06,5.03c0.03,1.6-1.14,2.33-2.54,1.59c-1.1-0.58-2.18-0.44-3.1,0.28
		c-0.81,0.62-0.98,1.61-0.8,2.58c0.19,1.06,0.87,1.76,1.9,2.04c0.71,0.2,1.39,0.1,2.05-0.26c1.35-0.74,2.53-0.04,2.54,1.49
		c0.01,1.74,0.01,3.47,0.01,5.21c0,1.05-0.63,1.68-1.69,1.68c-1.62,0.01-3.24-0.06-4.85,0.04c-1.33,0.08-2.12-1.21-1.6-2.35
		c0.67-1.44-0.05-3.06-1.49-3.59c-0.94-0.34-2.37-0.1-2.92,0.6c-0.68,0.87-0.92,1.87-0.47,2.93c0.19,0.43,0.31,0.85,0.19,1.31
		c-0.18,0.69-0.81,1.13-1.61,1.14c-1.74,0.02-3.47,0.09-5.21,0.02c-6.15-0.25-12.3,0.04-18.45,0.03c-1.28,0-2.16-0.63-2.08-2.06
		c0.07-1.28,0-2.56,0.01-3.85c0-0.35-0.07-0.42-0.43-0.34c-2.08,0.49-4.06-0.31-5.11-2.03c-1.03-1.69-0.91-4.1,0.43-5.57
		c1.19-1.3,2.76-1.69,4.48-1.37C6.03,39.5,6.16,39.5,6.14,39C6.08,35.82,6.04,32.65,6,29.48c-0.01-1.37,1.03-2.05,2.32-1.52
		c1.23,0.51,2.51,0.16,3.26-0.87c0.71-0.98,0.65-2.56-0.15-3.47c-0.6-0.68-2.06-0.96-3.03-0.56c-1.47,0.59-2.42-0.02-2.44-1.58
		c-0.02-1.66-0.04-3.31-0.05-4.97c-0.01-1.17,0.61-1.79,1.77-1.8c1.34-0.01,2.68-0.02,4.02-0.01c0.36,0,0.53-0.03,0.43-0.48
		c-0.49-2.03,0.32-4,2.04-5.06c1.7-1.04,4.11-0.92,5.57,0.43c1.32,1.23,1.73,2.82,1.36,4.59c-0.02,0.1-0.05,0.19-0.07,0.29
		C21.02,14.5,21.04,14.54,21.05,14.6z M16.53,52.63c0-0.03,0-0.06,0-0.09c2.64,0,5.28-0.01,7.93,0.01c0.43,0,0.53-0.14,0.52-0.55
		c-0.03-1.06-0.03-2.13-0.02-3.19c0-0.37-0.04-0.49-0.48-0.39c-2.12,0.48-4.17-0.45-5.16-2.3c-1.01-1.86-0.55-4.64,1.01-5.78
		c1.25-0.92,2.66-1.26,4.19-0.89c0.32,0.08,0.42,0,0.41-0.33c-0.02-0.87-0.04-1.74-0.02-2.6c0.01-0.4-0.09-0.54-0.52-0.53
		c-1.28,0.04-2.56,0.03-3.84,0.03c-0.48,0-0.94-0.06-1.37-0.29c-1.31-0.72-1.73-2.21-1-3.55c0.46-0.85,0.31-1.95-0.32-2.35
		c-0.73-0.46-1.66-0.39-2.25,0.17c-0.59,0.56-0.68,1.37-0.24,2.16c1.02,1.84-0.12,3.86-2.22,3.89c-1.52,0.03-3.04,0.04-4.55,0.03
		c-0.38,0-0.51,0.1-0.5,0.49c0.03,1.16,0.03,2.33,0.02,3.49c0,0.76-0.41,1.32-1.05,1.55c-0.51,0.19-0.96,0.06-1.42-0.14
		c-1.2-0.5-2.75-0.05-3.28,0.95c-0.62,1.14-0.5,2.41,0.29,3.3c0.79,0.88,1.95,1.09,3.19,0.57c1.23-0.52,2.28,0.18,2.29,1.52
		c0.01,1.42,0.03,2.84,0.02,4.26c0,0.42,0.1,0.57,0.56,0.57C11.33,52.61,13.93,52.63,16.53,52.63z M7.89,21.11
		c0.34-0.06,0.61-0.13,0.88-0.16c1.62-0.17,3.1,0.21,4.18,1.45c1.34,1.52,1.45,3.81,0.42,5.53c-1.02,1.7-2.86,2.49-4.93,2.1
		c-0.36-0.07-0.5-0.01-0.49,0.38c0.03,1.1,0.04,2.21,0.03,3.31c0,0.37,0.16,0.41,0.46,0.41c1.52-0.02,3.04-0.02,4.56-0.05
		c0.78-0.01,0.97-0.35,0.6-1.05c-0.64-1.2-0.68-2.42,0-3.61c1.22-2.15,3.94-2.46,5.76-0.92c0.93,0.78,1.6,2.74,0.63,4.48
		c-0.4,0.73-0.19,1.07,0.63,1.07c1.32,0,2.64-0.01,3.96-0.01c0.69,0,0.85-0.17,0.85-0.88c0-1.3-0.01-2.6-0.01-3.91
		c0-1.36,1.08-2.08,2.33-1.56c1.21,0.51,2.48,0.19,3.24-0.8c0.76-1,0.73-2.44-0.06-3.47c-0.58-0.75-2.11-1.02-3.18-0.56
		c-1.29,0.55-2.34-0.15-2.35-1.57c-0.01-1.4-0.03-2.8-0.02-4.2c0-0.44-0.12-0.58-0.57-0.56c-1.42,0.04-2.84,0.05-4.26,0.05
		c-0.9,0-1.46-0.41-1.7-1.18c-0.14-0.45,0.01-0.85,0.18-1.25c0.43-1.02,0.13-2.53-0.6-3.11c-0.97-0.76-2.47-0.8-3.42-0.07
		c-1.03,0.78-1.34,2.03-0.81,3.28c0.57,1.33-0.12,2.38-1.57,2.39c-1.42,0.01-2.84,0.01-4.26,0.01c-0.28,0-0.49-0.01-0.48,0.39
		C7.9,18.37,7.89,19.71,7.89,21.11z M44.34,39.54c0-1.36-0.01-2.67,0.01-3.99c0.01-0.4-0.14-0.49-0.51-0.48
		c-1.4,0.03-2.8,0.02-4.2,0.03c-1.51,0-2.19-1.01-1.63-2.4c0.47-1.17,0.13-2.45-0.84-3.18c-0.97-0.73-2.48-0.69-3.48,0.1
		c-0.71,0.56-0.99,2.06-0.58,3.07c0.59,1.43-0.06,2.43-1.6,2.46c-1.3,0.02-2.6,0.02-3.9,0.03c-0.91,0.01-0.76-0.11-0.76,0.79
		c-0.01,1.4,0.02,2.8,0.01,4.2c-0.01,0.85-0.59,1.46-1.42,1.53c-0.39,0.04-0.73-0.11-1.08-0.25c-0.99-0.39-2.44-0.08-3.01,0.62
		c-0.79,0.98-0.82,2.49-0.07,3.47c0.76,0.99,2.03,1.3,3.24,0.79c1.37-0.58,2.4,0.11,2.41,1.6c0.01,1.4,0.03,2.8,0.01,4.2
		c0,0.38,0.1,0.51,0.5,0.5c1.1-0.03,2.21-0.05,3.31-0.01c0.55,0.02,0.64-0.1,0.54-0.66c-0.31-1.65,0.08-3.21,1.34-4.32
		c1.33-1.17,2.98-1.52,4.7-0.91c2.25,0.79,3.43,2.92,3,5.31c-0.07,0.39-0.05,0.56,0.42,0.54c1.06-0.05,2.13-0.05,3.19-0.03
		c0.39,0.01,0.5-0.12,0.49-0.51c-0.04-1.14-0.04-2.29-0.04-3.43c0-0.41-0.05-0.56-0.51-0.4c-1.17,0.41-2.35,0.32-3.44-0.25
		c-1.75-0.91-2.69-2.39-2.57-4.36c0.12-2,0.97-3.46,2.96-4.13C42,39.09,43.15,39.13,44.34,39.54z M27.42,29.67c0,1.11,0,2.19,0,3.27
		c0,0.21,0.08,0.26,0.28,0.26c1.15-0.01,2.31,0,3.5,0c-0.46-1.5-0.25-2.86,0.53-4.28C30.33,29.9,28.94,30.1,27.42,29.67z"/>
	<path class="st0" d="M34.1,9.55c-1.52-0.97-2.4-2.24-2.43-4.01c-0.03-2.11,1.26-3.87,3.21-4.43c2.04-0.58,4.21,0.23,5.25,2.06
		c0.3,0.52,0.44,0.45,0.8,0.11c0.95-0.89,1.92-1.76,2.88-2.64c0.96-0.88,1.64-0.85,2.52,0.09c1.14,1.23,2.29,2.45,3.43,3.68
		c1.03,1.11,0.64,2.38-0.82,2.76c-1.16,0.3-2.27,1.52-2.19,2.57c0.08,1.05,0.57,1.92,1.55,2.42c0.97,0.49,1.91,0.4,2.79-0.22
		c0.48-0.34,0.81-0.79,0.97-1.37c0.19-0.68,0.61-1.16,1.32-1.28c0.72-0.12,1.2,0.26,1.65,0.8c1.02,1.2,2.1,2.35,3.17,3.51
		c1.07,1.16,1.05,1.74-0.12,2.83c-1.1,1.02-2.19,2.04-3.29,3.07c-0.98,0.92-2.22,0.63-2.69-0.62c-0.48-1.27-1.52-1.99-2.74-1.89
		c-1.27,0.1-2.48,1.22-2.72,2.51c-0.22,1.17,0.43,2.32,1.65,2.9c1.19,0.57,1.4,1.79,0.45,2.67c-1.23,1.14-2.47,2.26-3.72,3.38
		c-0.73,0.66-1.44,0.63-2.13-0.07c-1.31-1.33-2.55-2.74-3.86-4.08c-0.89-0.9-0.39-2.3,0.87-2.6c1.38-0.34,2.21-1.31,2.22-2.61
		c0.01-1.36-1.03-2.55-2.43-2.79c-0.95-0.17-2.37,0.78-2.76,1.85c-0.6,1.62-1.83,1.86-2.97,0.59c-1.1-1.21-2.21-2.42-3.31-3.63
		c-0.82-0.9-0.8-1.61,0.09-2.44C31.84,11.65,32.95,10.62,34.1,9.55z M47.95,5.37c-0.89-0.96-1.78-1.89-2.64-2.86
		c-0.24-0.27-0.37-0.25-0.62-0.02c-1.08,1.01-2.17,2.01-3.28,2.98c-0.81,0.71-1.92,0.58-2.48-0.25c-0.16-0.24-0.24-0.53-0.35-0.8
		c-0.51-1.15-1.86-1.79-3.03-1.45c-1.15,0.33-1.86,1.19-1.93,2.33c-0.07,1.04,0.57,2.08,1.59,2.55c0.41,0.19,0.76,0.41,0.97,0.81
		c0.35,0.68,0.15,1.5-0.51,2.13c-1.04,0.97-2.07,1.94-3.11,2.9c-0.13,0.12-0.36,0.22-0.14,0.46c0.92,1,1.84,2.01,2.77,3.02
		c1.08-1.94,3.12-3.11,4.83-2.82c1.92,0.33,3.66,1.97,3.98,3.74c0.18,1,0.08,1.95-0.31,2.89c-0.51,1.22-1.44,1.99-2.69,2.48
		c0.94,1.02,1.84,1.98,2.73,2.94c0.21,0.23,0.41,0.18,0.61,0c0.89-0.8,1.77-1.6,2.67-2.42c-1.91-1.24-2.72-2.96-2.23-5.1
		c0.47-2.08,1.91-3.41,4-3.78c2.24-0.4,3.91,0.61,5.04,2.6c0.93-0.86,1.83-1.71,2.74-2.55c0.18-0.16,0.16-0.27,0-0.43
		c-0.93-1.01-1.85-2.02-2.78-3.04c-1.15,2.08-2.96,3.04-5.03,2.69c-2.01-0.34-3.64-2.06-3.94-4.17C44.55,8.4,45.78,6.49,47.95,5.37z
		"/>
</g>
</svg>
