<?xml version="1.0" encoding="UTF-8"?>
<svg id="Layer_1" data-name="Layer 1" xmlns="http://www.w3.org/2000/svg" viewBox="0 0 48.64 38.12">
  <defs>
    <style>
      .cls-1 {
        fill: #3895d1;
        stroke-width: 0px;
      }
    </style>
  </defs>
  <path class="cls-1" d="m13.97,38.12v-.04s.02-.04.02-.04v-.04s.02-.04.02-.04v-.04s.02-.04.02-.04v-.04s.02-.04.02-.04v-.04s.02-.04.02-.04v-.04s.02-.04.02-.04v-.04s.02-.04.02-.04v-.04s.02-.04.02-.04v-.04s.02-.04.02-.04v-.04s.02-.04.02-.04v-.04s.02-.04.02-.04v-.04s.02-.04.02-.04v-.04s.02-.04.02-.04v-.04s.02-.04.02-.04v-.04s.02-.04.02-.04v-.04s.02-.04.02-.04v-.04s.02-.04.02-.04v-.04s.02-.04.02-.04v-.04s.02-.04.02-.04v-.04s.02-.04.02-.04v-.04s.02-.04.02-.04v-.04s.02-.04.02-.04v-.04s.02-.04.02-.04v-.04s.02-.04.02-.04v-.04s.02-.04.02-.04v-.04s.02-.04.02-.04v-.04s.02-.04.02-.04v-.04s.02-.04.02-.04v-.04s.02-.04.02-.04v-.04s.02-.04.02-.04v-.04s.02-.04.02-.04v-.04s.02-.04.02-.04c0-.02,0-.04.01-.06,0-.02,0-.04.01-.06,0-.02,0-.04.01-.06,0-.02,0-.04.01-.06,0-.02,0-.04.01-.06,0-.02,0-.04.01-.06,0-.02,0-.04.01-.06s0-.04.01-.06c0-.02,0-.04.01-.06,0-.02,0-.04.01-.06,0-.02,0-.04.01-.06s0-.04.01-.06c0-.02,0-.04.01-.06,0-.02,0-.04.01-.06,0-.02,0-.04.01-.06,0-.02,0-.04.01-.06,0-.02,0-.04.01-.06,0-.02,0-.04.01-.06,0-.02,0-.04.01-.06,0-.02,0-.04.01-.06,0-.02,0-.04.01-.06s0-.04.01-.06,0-.04.01-.06c0-.02,0-.04.01-.06,0-.02,0-.04.01-.06s0-.04.01-.06c0-.02,0-.04.01-.06,0-.02,0-.04.01-.06,0-.02,0-.04.01-.06,0-.02,0-.04.01-.06s0-.04,0-.06c0-.02,0-.04,0-.06,0-.02,0-.04,0-.06,0-.02,0-.04,0-.06s0-.04,0-.06c0-.02,0-.04,0-.06,0-.02,0-.04,0-.06s0-.04,0-.06,0-.04,0-.06c0-.02,0-.04,0-.06,0-.02,0-.04,0-.06,0-.02,0-.04,0-.05,0-.02,0-.04,0-.05,0-.02,0-.04,0-.05,0-.02,0-.04,0-.05s0-.04,0-.05,0-.04,0-.05,0-.04,0-.05c0-.02,0-.04,0-.05,0-.02,0-.04,0-.05,0-.02,0-.04,0-.05s0-.04,0-.05c0-.02,0-.04,0-.05,0-.02,0-.04,0-.05,0-.02,0-.04,0-.05,0-.02,0-.04,0-.05,0-.02,0-.04,0-.05,0-.02,0-.04,0-.05,0-.02,0-.04,0-.05,0-.02,0-.04,0-.05,0-.02,0-.03,0-.05s0-.03,0-.05,0-.03,0-.05,0-.03,0-.05v-.04s0-.04,0-.04v-.04s0-.04,0-.04v-.04s0-.04,0-.04v-.04s0-.04,0-.04v-.04s0-.04,0-.04v-.04s0-.04,0-.04v-.04s0-.04,0-.04v-.04s0-.04,0-.04v-.04s0-.04,0-.04v-.04s0-.04,0-.04v-.04s0-.04,0-.04v-.04s0-.04,0-.04v-.04s0-.04,0-.04v-.04s0-.04,0-.04v-.04s0-.04,0-.04v-.04s0-.04,0-.04v-.04s0-.04,0-.04v-.04s0-.04,0-.04v-.04s0-.04,0-.04v-.04s0-.04,0-.04v-.04s0-.04,0-.04v-.04s0-.04,0-.04v-.04s0-.04,0-.04v-.04s0-.04,0-.04v-.04s0-.04,0-.04v-.04s0-.04,0-.04v-.04s0-.04,0-.04v-.04s0-.04,0-.04v-.04s0-.04,0-.04v-.04s0-.04,0-.04v-.04s0-.04,0-.04v-.04s0-.04,0-.04h-.04s-.04-.01-.04-.01h-.04s-.04-.01-.04-.01h-.04s-.04-.01-.04-.01h-.04s-.04-.01-.04-.01h-.04s-.04-.01-.04-.01h-.04s-.04-.01-.04-.01h-.04s-.04-.01-.04-.01h-.04s-.04-.01-.04-.01h-.04s-.04-.01-.04-.01h-.04s-.04-.01-.04-.01h-.04s-.04-.01-.04-.01h-.04s-.04-.01-.04-.01h-.04s-.04-.01-.04-.01h-.04s-.04-.01-.04-.01h-.04s-.04-.01-.04-.01h-.04s-.04-.01-.04-.01h-.04s-.04-.01-.04-.01h-.04s-.04-.01-.04-.01h-.04s-.04-.01-.04-.01h-.04s-.04-.01-.04-.01h-.04s-.04-.01-.04-.01h-.04s-.04-.01-.04-.01h-.04s-.04-.01-.04-.01h-.04s-.04-.01-.04-.01h-.04s-.04-.01-.04-.01h-.04s-.04-.01-.04-.01h-.04s-.04-.01-.04-.01h-.04s-.04-.01-.04-.01h-.04s-.04-.01-.04-.01h-.04s-.04-.01-.04-.01h-.04s-.04-.01-.04-.01h-.04s-.04-.01-.04-.01c-.06,0-.11-.01-.17-.02-.05,0-.11-.02-.16-.02-.05,0-.11-.02-.16-.03-.05,0-.11-.02-.16-.03-.05,0-.11-.02-.16-.03-.05,0-.11-.02-.16-.03-.05-.01-.11-.02-.16-.03s-.11-.02-.16-.03c-.05-.01-.11-.02-.16-.04s-.11-.03-.16-.04c-.05-.01-.11-.03-.16-.04-.05-.01-.11-.03-.16-.04-.05-.01-.11-.03-.16-.04-.05-.01-.11-.03-.16-.05-.05-.02-.11-.03-.16-.05-.05-.02-.1-.03-.16-.05-.05-.02-.1-.03-.16-.05-.05-.02-.1-.03-.16-.05-.05-.02-.1-.04-.16-.05s-.1-.04-.15-.06-.1-.04-.15-.06-.1-.04-.15-.06c-.05-.02-.1-.04-.15-.06-.05-.02-.1-.04-.15-.06-.05-.02-.1-.04-.15-.06-.05-.02-.1-.04-.15-.07s-.1-.04-.15-.07c-.05-.02-.1-.05-.15-.07s-.1-.05-.15-.07-.1-.05-.15-.07c-.05-.02-.1-.05-.15-.07-.05-.03-.1-.05-.15-.08-.05-.03-.1-.05-.14-.08-.05-.03-.1-.05-.14-.08-.05-.03-.1-.05-.14-.08-.05-.03-.09-.05-.14-.08-.05-.03-.09-.06-.14-.08-.05-.03-.09-.06-.14-.09-.05-.03-.09-.06-.14-.09-.05-.03-.09-.06-.14-.09-.05-.03-.09-.06-.14-.09-.05-.03-.09-.06-.14-.09-.05-.03-.09-.06-.14-.09s-.09-.06-.13-.1c-.04-.03-.09-.06-.13-.1-.04-.03-.09-.07-.13-.1-.04-.03-.09-.07-.13-.1-.04-.03-.09-.07-.13-.1-.04-.03-.09-.07-.13-.1-.04-.03-.09-.07-.13-.1s-.08-.07-.13-.11-.08-.07-.13-.11-.08-.07-.12-.11c-.04-.04-.08-.07-.12-.11-.04-.04-.08-.07-.12-.11-.04-.04-.08-.08-.12-.11s-.08-.08-.12-.11c-.04-.04-.08-.08-.12-.12-.04-.04-.08-.08-.12-.12s-.08-.08-.12-.12c-.04-.04-.08-.08-.12-.12-.04-.04-.08-.08-.11-.12-.04-.04-.08-.08-.11-.12-.04-.04-.07-.08-.11-.12-.04-.04-.07-.08-.11-.13s-.07-.08-.11-.13-.07-.08-.11-.13-.07-.09-.1-.13c-.03-.04-.07-.09-.1-.13-.03-.04-.07-.09-.1-.13-.03-.04-.07-.09-.1-.13-.03-.04-.07-.09-.1-.13-.03-.04-.06-.09-.1-.13-.03-.04-.06-.09-.1-.13-.03-.05-.06-.09-.09-.14s-.06-.09-.09-.14c-.03-.05-.06-.09-.09-.14s-.06-.09-.09-.14-.06-.09-.09-.14c-.03-.05-.06-.09-.09-.14s-.06-.09-.08-.14c-.03-.05-.06-.09-.08-.14-.03-.05-.05-.1-.08-.14-.03-.05-.05-.1-.08-.14-.03-.05-.05-.1-.08-.14-.03-.05-.05-.1-.08-.15-.02-.05-.05-.1-.07-.15-.02-.05-.05-.1-.07-.15-.02-.05-.05-.1-.07-.15-.02-.05-.05-.1-.07-.15-.02-.05-.05-.1-.07-.15-.02-.05-.04-.1-.07-.15-.02-.05-.04-.1-.06-.15-.02-.05-.04-.1-.06-.15-.02-.05-.04-.1-.06-.15-.02-.05-.04-.1-.06-.15-.02-.05-.04-.1-.06-.15-.02-.05-.04-.1-.06-.15-.02-.05-.04-.1-.05-.15-.02-.05-.03-.1-.05-.16-.02-.05-.03-.1-.05-.16-.02-.05-.03-.1-.05-.16-.02-.05-.03-.1-.05-.16-.02-.05-.03-.11-.04-.16s-.03-.11-.04-.16-.03-.11-.04-.16c-.01-.05-.03-.11-.04-.16-.01-.05-.03-.11-.04-.16s-.02-.11-.04-.16c-.01-.05-.02-.11-.03-.16-.01-.05-.02-.11-.03-.16-.01-.05-.02-.11-.03-.16s-.02-.11-.03-.16c0-.05-.02-.11-.03-.16,0-.05-.02-.11-.03-.16,0-.05-.02-.11-.02-.16,0-.05-.01-.11-.02-.16,0-.05-.01-.11-.02-.16,0-.05-.01-.11-.02-.16s-.01-.11-.02-.16c0-.05,0-.11-.01-.16s0-.11-.01-.17c0-.06,0-.11-.01-.17,0-.06,0-.11,0-.17s0-.11,0-.17c0-.06,0-.11,0-.17s0-.11,0-.17c0-.06,0-.11,0-.17,0-.06,0-.12,0-.18s0-.12,0-.18c0-.06,0-.12,0-.18,0-.06,0-.12,0-.18s0-.12,0-.18c0-.06,0-.12.01-.18,0-.06,0-.12.01-.18,0-.06.01-.12.02-.18,0-.06.01-.12.02-.18,0-.06.01-.12.02-.18,0-.06.01-.12.02-.18,0-.06.02-.12.03-.18,0-.06.02-.12.03-.18s.02-.12.03-.18c.01-.06.02-.12.03-.18.01-.06.02-.12.03-.18.01-.06.02-.12.04-.18.01-.06.02-.12.04-.17.01-.06.03-.12.04-.17.01-.06.03-.12.04-.17.01-.06.03-.12.04-.17s.03-.11.05-.17c.02-.06.03-.11.05-.17.02-.06.03-.11.05-.17.02-.06.03-.11.05-.17.02-.06.04-.11.05-.17.02-.06.04-.11.06-.17.02-.06.04-.11.06-.17s.04-.11.06-.17c.02-.06.04-.11.06-.17.02-.06.04-.11.06-.17.02-.05.04-.11.07-.16.02-.05.05-.11.07-.16.02-.05.05-.11.07-.16s.05-.11.07-.16c.02-.05.05-.11.07-.16.03-.05.05-.11.08-.16s.05-.11.08-.16c.03-.05.05-.11.08-.16.03-.05.05-.11.08-.16.03-.05.06-.1.08-.16.03-.05.06-.1.09-.16s.06-.1.09-.15c.03-.05.06-.1.09-.15.03-.05.06-.1.09-.15.03-.05.06-.1.09-.15s.06-.1.1-.15c.03-.05.07-.1.1-.15.03-.05.07-.1.1-.15.03-.05.07-.1.1-.15.03-.05.07-.1.1-.15.04-.05.07-.1.11-.14.04-.05.07-.1.11-.14.04-.05.07-.1.11-.14.04-.05.07-.09.11-.14.04-.05.08-.09.11-.14.04-.05.08-.09.12-.14.04-.05.08-.09.12-.14.04-.05.08-.09.12-.14s.08-.09.12-.14c.04-.04.08-.09.12-.13.04-.04.08-.09.12-.13s.08-.09.13-.13c.04-.04.09-.09.13-.13.04-.04.09-.09.13-.13s.09-.08.13-.13.09-.08.13-.12c.04-.04.09-.08.13-.12.04-.04.09-.08.14-.12.05-.04.09-.08.14-.12s.09-.08.14-.12c.05-.04.09-.08.14-.12.05-.04.09-.08.14-.11.05-.04.09-.07.14-.11.05-.04.09-.07.14-.11.05-.04.1-.07.14-.11.05-.04.1-.07.14-.11.05-.04.1-.07.15-.1.05-.03.1-.07.15-.1.05-.03.1-.07.15-.1.05-.03.1-.07.15-.1.05-.03.1-.06.15-.1.05-.03.1-.06.15-.09s.1-.06.15-.09c.05-.03.1-.06.15-.09.05-.03.1-.06.15-.09.05-.03.1-.06.16-.09.05-.03.1-.06.16-.08.05-.03.1-.06.16-.08s.11-.05.16-.08c.05-.03.11-.05.16-.08.05-.03.11-.05.16-.08.05-.03.11-.05.16-.08.05-.02.11-.05.16-.07.05-.02.11-.05.16-.07.05-.02.11-.05.16-.07.05-.02.11-.04.16-.07s.11-.04.17-.06c.06-.02.11-.04.17-.06.06-.02.11-.04.17-.06.06-.02.11-.04.17-.06.06-.02.11-.04.17-.06.06-.02.11-.04.17-.05.06-.02.11-.04.17-.05.06-.02.11-.03.17-.05.06-.02.11-.03.17-.05s.11-.03.17-.05c.06-.02.12-.03.17-.04s.12-.03.17-.04c.06-.01.12-.03.17-.04s.12-.03.17-.04c.06-.01.12-.02.18-.04.06-.01.12-.02.18-.03.06-.01.12-.02.18-.03.06-.01.12-.02.18-.03.06,0,.12-.02.18-.03s.12-.02.18-.03c.06,0,.12-.02.18-.02s.12-.01.18-.02.12-.01.18-.02c.06,0,.12-.01.18-.02.06,0,.12,0,.18-.01.06,0,.12,0,.18-.01.06,0,.12,0,.18,0,.06,0,.12,0,.18,0,.06,0,.12,0,.18,0s.12,0,.18,0c.06,0,.12,0,.18,0s.12,0,.18,0,.12,0,.18,0c.06,0,.12,0,.18,0,.06,0,.12,0,.18,0s.12,0,.18,0c.06,0,.12,0,.18.01.06,0,.12,0,.18.01.06,0,.12.01.18.02.06,0,.12.01.18.02.06,0,.12.01.18.02.06,0,.12.01.18.02.06,0,.12.02.18.03.06,0,.12.02.18.03s.12.02.18.03c.06.01.12.02.18.03.06.01.12.02.18.03.06.01.12.02.18.04.06.01.12.02.17.04.06.01.12.03.17.04.06.01.12.03.17.04.06.01.12.03.17.04s.11.03.17.05c.06.02.11.03.17.05.06.02.11.03.17.05.06.02.11.03.17.05.06.02.11.04.17.05.06.02.11.04.17.06.06.02.11.04.17.06s.11.04.17.06c.06.02.11.04.17.06.06.02.11.04.17.06.05.02.11.04.16.07.05.02.11.05.16.07.05.02.11.05.16.07s.11.05.16.07c.05.02.11.05.16.07.05.03.11.05.16.08s.11.05.16.08c.05.03.11.05.16.08.05.03.11.05.16.08.05.03.1.06.16.08.05.03.1.06.16.09s.1.06.15.09c.05.03.1.06.15.09.05.03.1.06.15.09.05.03.1.06.15.09s.1.06.15.1c.05.03.1.07.15.1.05.03.1.07.15.1.05.03.1.07.15.1.05.03.1.07.15.1.05.04.1.07.14.11.05.04.1.07.14.11.05.04.1.07.14.11.05.04.09.07.14.11.05.04.09.08.14.11.05.04.09.08.14.12.05.04.09.08.14.12.05.04.09.08.14.12s.09.08.14.12c.04.04.09.08.13.12.04.04.09.08.13.12s.09.08.13.13c.04.04.09.09.13.13s.09.09.13.13c.04.04.08.09.13.13s.08.09.12.13c.04.04.08.09.12.13s.08.09.12.14.08.09.12.14.08.09.12.14c.04.05.08.09.12.14.04.05.08.09.11.14.04.05.07.09.11.14s.07.09.11.14c.04.05.07.1.11.14.04.05.07.1.11.14.04.05.07.1.1.15s.07.1.1.15.07.1.1.15.07.1.1.15.06.1.1.15c.03.05.06.1.09.15.03.05.06.1.09.15.03.05.06.1.09.15.03.05.06.1.09.15.03.05.06.1.09.16.03.05.06.1.08.16.03.05.06.1.08.16s.05.11.08.16c.03.05.05.11.08.16.03.05.05.11.08.16.03.05.05.11.07.16.02.05.05.11.07.16.02.05.05.11.07.16.02.05.05.11.07.16.02.05.04.11.07.16s.04.11.06.17c.02.06.04.11.06.17.02.06.04.11.06.17s.04.11.06.17c.02.06.04.11.06.17.02.06.04.11.05.17.02.06.04.11.05.17.02.06.03.11.05.17.02.06.03.11.05.17s.03.11.05.17.03.12.04.17c.01.06.03.12.04.17.01.06.03.12.04.17s.03.12.04.17c.01.06.02.12.04.18.01.06.02.12.03.18.01.06.02.12.03.18.01.06.02.12.03.18,0,.06.02.12.03.18,0,.06.02.12.03.18,0,.06.02.12.02.18,0,.06.01.12.02.18,0,.06.01.12.02.18,0,.06.01.12.02.18,0,.06,0,.12.01.18,0,.06,0,.12.01.18,0,.06,0,.12,0,.18s0,.12,0,.18c0,.06,0,.12,0,.18,0,.06,0,.12,0,.18s0,.12,0,.18c0,.09,0,.18,0,.27s0,.18,0,.27c0,.09,0,.18,0,.27,0,.09,0,.18,0,.27,0,.09,0,.18-.01.27,0,.09,0,.18-.02.27,0,.09-.01.18-.02.27,0,.09-.01.18-.02.27,0,.09-.02.18-.02.27,0,.09-.02.18-.03.27s-.02.18-.03.26c-.01.09-.02.18-.03.26-.01.09-.02.18-.03.26-.01.09-.02.18-.04.26-.01.09-.03.17-.04.26-.01.09-.03.17-.04.26-.01.09-.03.17-.05.26-.02.09-.03.17-.05.26-.02.09-.03.17-.05.26s-.04.17-.05.26c-.02.09-.04.17-.06.26-.02.09-.04.17-.06.26-.02.09-.04.17-.06.26-.02.09-.04.17-.06.26-.02.09-.04.17-.07.26-.02.08-.05.17-.07.25s-.05.17-.07.25c-.02.08-.05.17-.08.25-.03.08-.05.17-.08.25-.03.08-.05.17-.08.25-.03.08-.06.17-.08.25-.03.08-.06.17-.09.25-.03.08-.06.17-.09.25s-.06.17-.09.25-.06.16-.09.25c-.03.08-.06.16-.1.25-.03.08-.07.16-.1.24-.03.08-.07.16-.1.24-.03.08-.07.16-.1.24-.04.08-.07.16-.11.24s-.07.16-.11.24c-.04.08-.07.16-.11.24-.04.08-.08.16-.12.24-.04.08-.08.16-.12.24-.04.08-.08.16-.12.24-.04.08-.08.16-.12.24-.04.08-.08.16-.13.23-.04.08-.08.16-.13.23-.04.08-.09.15-.13.23s-.09.15-.13.23-.09.15-.14.23c-.05.08-.09.15-.14.23-.05.08-.09.15-.14.23s-.1.15-.14.23c-.05.08-.1.15-.15.23-.05.07-.1.15-.15.22s-.1.15-.15.22-.1.15-.15.22c-.05.07-.1.15-.16.22-.05.07-.11.15-.16.22s-.11.15-.16.22c-.05.07-.11.14-.16.22s-.11.14-.17.22c-.06.07-.11.14-.17.21-.03.04-.06.08-.1.12-.03.04-.07.08-.1.12-.03.04-.07.08-.1.12-.03.04-.07.08-.1.12s-.07.08-.1.12c-.03.04-.07.08-.1.12-.03.04-.07.08-.1.12-.03.04-.07.08-.1.12-.03.04-.07.08-.1.12-.03.04-.07.08-.1.12-.03.04-.07.08-.1.12-.03.04-.07.08-.1.11-.04.04-.07.08-.11.11s-.07.08-.11.11c-.04.04-.07.08-.11.11-.04.04-.07.07-.11.11-.04.04-.07.07-.11.11s-.07.07-.11.11c-.04.04-.07.07-.11.11-.04.04-.07.07-.11.11-.04.04-.07.07-.11.11-.04.04-.07.07-.11.11-.04.04-.07.07-.11.11-.04.04-.08.07-.11.11s-.08.07-.11.11-.08.07-.11.11-.08.07-.11.11-.08.07-.12.1c-.04.03-.08.07-.12.1-.04.03-.08.07-.12.1-.04.03-.08.07-.12.1-.04.03-.08.07-.12.1-.04.03-.08.07-.12.1-.04.03-.08.07-.12.1s-.08.07-.12.1-.08.07-.12.1c-.04.03-.08.07-.12.1-.04.03-.08.07-.12.1s-.08.06-.12.1c-.04.03-.08.06-.12.1s-.08.06-.12.1c-.04.03-.08.06-.12.1-.04.03-.08.06-.12.09-.04.03-.08.06-.13.09-.04.03-.08.06-.13.09-.04.03-.08.06-.13.09-.04.03-.08.06-.13.09s-.08.06-.13.09c-.04.03-.09.06-.13.09-.04.03-.09.06-.13.09s-.09.06-.13.09-.09.06-.13.09c-.04.03-.09.06-.13.09s-.09.06-.13.09-.09.06-.13.09-.09.06-.13.09c-.04.03-.09.06-.13.08-.04.03-.09.06-.13.08-.04.03-.09.06-.13.08-.04.03-.09.06-.13.08-.04.03-.09.05-.14.08-.05.03-.09.05-.14.08-.05.03-.09.05-.14.08-.05.03-.09.05-.14.08l-.03.02-.03.02-.03.02-.03.02-.03.02-.03.02-.03.02-.03.02-.03.02-.03.02-.03.02-.03.02-.03.02-.03.02-.03.02-.03.02-.03.02-.03.02-.03.02-.03.02-.03.02-.03.02-.03.02-.03.02-.03.02-.03.02-.03.02-.03.02-.03.02-.03.02-.03.02-.03.02-.03.02-.03.02-.03.02-.03.02-.03.02-.03.02-.03.02-.03.02-.03.02-.03.02-.03.02-.03.02-.03.02-.03.02-.03.02-.03.02-.03.02-.03.02-.03.02-.03.02-.03.02-.03.02-.03.02-.03.02-.03.02-.03.02-.03.02-.03.02-.03.02-.03.02-.03.02-.03.02Zm.64-35.98c-.05,0-.1,0-.16,0s-.1,0-.16,0c-.05,0-.1,0-.16,0-.05,0-.1,0-.16,0-.05,0-.1,0-.15,0s-.1,0-.15.01c-.05,0-.1,0-.15.01s-.1,0-.15.01c-.05,0-.1.01-.15.02-.05,0-.1.01-.15.02s-.1.01-.15.02c-.05,0-.1.01-.15.02-.05,0-.1.02-.15.02-.05,0-.1.02-.15.03-.05,0-.1.02-.15.03-.05,0-.1.02-.15.03-.05,0-.1.02-.15.03-.05.01-.1.02-.15.03-.05.01-.1.02-.15.03-.05.01-.1.02-.15.04-.05.01-.1.02-.15.04-.05.01-.1.03-.15.04-.05.01-.1.03-.15.04-.05.01-.1.03-.15.04-.05.01-.1.03-.15.04s-.1.03-.14.05c-.05.02-.1.03-.14.05-.05.02-.1.03-.14.05-.05.02-.1.03-.14.05-.05.02-.09.04-.14.05-.05.02-.09.04-.14.06s-.09.04-.14.06-.09.04-.14.06c-.05.02-.09.04-.14.06-.05.02-.09.04-.14.06s-.09.04-.14.06c-.05.02-.09.04-.14.07-.05.02-.09.04-.14.07-.05.02-.09.05-.14.07-.04.02-.09.05-.13.07-.04.02-.09.05-.13.07-.04.02-.09.05-.13.07-.04.03-.09.05-.13.08-.04.03-.09.05-.13.08-.04.03-.09.05-.13.08-.04.03-.09.05-.13.08-.04.03-.09.05-.13.08s-.09.06-.13.08c-.04.03-.08.06-.13.09s-.08.06-.13.09c-.04.03-.08.06-.12.09-.04.03-.08.06-.12.09-.04.03-.08.06-.12.09-.04.03-.08.06-.12.09-.04.03-.08.06-.12.1-.04.03-.08.06-.12.1-.04.03-.08.07-.12.1-.04.03-.08.07-.12.1-.04.03-.08.07-.12.1s-.08.07-.12.1c-.04.03-.08.07-.11.1-.04.04-.08.07-.11.11-.04.04-.07.07-.11.11-.04.04-.07.07-.11.11-.04.04-.07.07-.11.11-.04.04-.07.07-.11.11-.04.04-.07.08-.11.11s-.07.08-.1.11c-.03.04-.07.08-.1.12-.03.04-.07.08-.1.12s-.07.08-.1.12c-.03.04-.07.08-.1.12-.03.04-.06.08-.1.12s-.06.08-.1.12-.06.08-.09.12c-.03.04-.06.08-.09.12-.03.04-.06.08-.09.12-.03.04-.06.08-.09.12-.03.04-.06.08-.09.13-.03.04-.06.08-.09.13-.03.04-.06.08-.08.13-.03.04-.06.09-.08.13-.03.04-.05.09-.08.13s-.05.09-.08.13c-.03.04-.05.09-.08.13-.03.04-.05.09-.08.13-.03.04-.05.09-.07.13s-.05.09-.07.13c-.02.04-.05.09-.07.13-.02.04-.05.09-.07.14-.02.05-.05.09-.07.14-.02.05-.04.09-.07.14s-.04.09-.06.14-.04.09-.06.14-.04.09-.06.14c-.02.05-.04.09-.06.14-.02.05-.04.09-.06.14-.02.05-.04.09-.06.14-.02.05-.04.09-.05.14-.02.05-.03.09-.05.14-.02.05-.03.1-.05.14-.02.05-.03.1-.05.14-.02.05-.03.1-.05.14-.02.05-.03.1-.04.15-.01.05-.03.1-.04.15-.01.05-.03.1-.04.15-.01.05-.03.1-.04.15-.01.05-.03.1-.04.15-.01.05-.02.1-.04.15-.01.05-.02.1-.03.15-.01.05-.02.1-.03.15-.01.05-.02.1-.03.15s-.02.1-.03.15c0,.05-.02.1-.03.15,0,.05-.02.1-.03.15s-.02.1-.02.15-.01.1-.02.15-.01.1-.02.15c0,.05-.01.1-.02.15,0,.05-.01.1-.02.15,0,.05,0,.1-.01.15s0,.1-.01.15,0,.1-.01.15c0,.05,0,.1,0,.15,0,.05,0,.1,0,.16,0,.05,0,.1,0,.16s0,.1,0,.16,0,.1,0,.16c0,.05,0,.09,0,.14s0,.09,0,.14c0,.05,0,.09,0,.14s0,.09,0,.14c0,.05,0,.09,0,.14s0,.09,0,.14c0,.05,0,.09.01.14,0,.05,0,.09.01.14,0,.05,0,.09.01.14,0,.05,0,.09.02.14,0,.05.01.09.02.14,0,.05.01.09.02.14,0,.05.01.09.02.14,0,.05.01.09.02.14s.02.09.02.14c0,.05.02.09.02.14s.02.09.03.14c0,.05.02.09.03.14,0,.05.02.09.03.14,0,.05.02.09.03.14s.02.09.03.14c.01.05.02.09.03.14.01.05.02.09.04.14.01.05.02.09.04.14.01.04.03.09.04.13.01.04.03.09.04.13.01.04.03.09.04.13s.03.09.04.13.03.09.04.13.03.09.05.13c.02.04.03.09.05.13.02.04.03.09.05.13.02.04.03.09.05.13.02.04.03.09.05.13.02.04.04.09.05.13s.04.09.05.13c.02.04.04.09.06.13.02.04.04.09.06.13.02.04.04.08.06.13.02.04.04.08.06.13.02.04.04.08.06.13.02.04.04.08.06.12.02.04.04.08.06.12.02.04.04.08.07.12.02.04.04.08.07.12.02.04.05.08.07.12s.05.08.07.12.05.08.07.12c.02.04.05.08.07.12.02.04.05.08.07.12.03.04.05.08.08.12s.05.08.08.12c.03.04.05.08.08.12.03.04.05.08.08.12s.05.08.08.12c.03.04.05.08.08.11.03.04.06.08.08.11.03.04.06.08.09.11.03.04.06.07.09.11.03.04.06.07.09.11.03.04.06.07.09.11.03.04.06.07.09.11.03.04.06.07.09.11.03.04.06.07.09.11.03.04.06.07.1.11.03.04.06.07.1.11.03.03.06.07.1.1.03.03.07.07.1.1.03.03.07.07.1.1.03.03.07.07.1.1s.07.07.1.1c.03.03.07.07.1.1.03.03.07.06.1.1.03.03.07.06.1.1s.07.06.11.09.07.06.11.09c.04.03.07.06.11.09.04.03.07.06.11.09.04.03.07.06.11.09.04.03.07.06.11.09s.07.06.11.09c.04.03.07.06.11.09s.08.06.11.08c.04.03.08.06.11.08.04.03.08.05.11.08s.08.05.12.08.08.05.12.08.08.05.12.08c.04.03.08.05.12.08.04.03.08.05.12.07.04.02.08.05.12.07.04.02.08.05.12.07.04.02.08.05.12.07.04.02.08.05.12.07.04.02.08.05.12.07s.08.04.12.07.08.04.12.06c.04.02.08.04.12.06s.08.04.13.06c.04.02.08.04.13.06.04.02.08.04.13.06.04.02.08.04.13.06s.09.04.13.06.09.04.13.05c.04.02.09.04.13.05.04.02.09.03.13.05s.09.03.13.05c.04.02.09.03.13.05.04.02.09.03.13.05.04.02.09.03.13.05.04.02.09.03.13.04s.09.03.13.04c.04.01.09.03.13.04.04.01.09.03.13.04.05.01.09.03.14.04s.09.02.14.04c.05.01.09.02.14.04.05.01.09.02.14.03.05.01.09.02.14.03.05.01.09.02.14.03.05.01.09.02.14.03.05,0,.09.02.14.03.05,0,.09.02.14.03.05,0,.09.02.14.02.05,0,.09.02.14.02.05,0,.09.01.14.02.05,0,.09.01.14.02.05,0,.09.01.14.02h.07s.07.02.07.02h.07s.07.02.07.02h.07s.07.02.07.02h.07s.07.02.07.02h.07s.07.02.07.02h.07s.07.02.07.02h.07s.07.02.07.02h.07s.07.02.07.02h.07s.07.02.07.02h.07s.07.02.07.02h.07s.07.02.07.02h.07s.07.02.07.02h.07s.07.02.07.02h.07s.07.02.07.02h.07s.07.02.07.02h.07s.07.02.07.02h.07s.07.02.07.02h.07s.07.02.07.02h.07s.07.02.07.02h.07s.07.02.07.02h.07s.07.02.07.02h.07s.07.02.07.02h.07s.07.02.07.02h.07s.07.02.07.02h.07s.07.02.07.02h.07s.07.02.07.02h.07s.07.02.07.02h.07s.07.02.07.02h.07s.07.02.07.02h.07s.07.02.07.02h.07s.07.02.07.02h.07s.07.02.07.02v.07s-.01.07-.01.07v.07s-.01.07-.01.07v.07s-.01.07-.01.07v.07s-.01.07-.01.07v.07s-.01.07-.01.07v.07s-.01.07-.01.07v.07s-.01.07-.01.07v.07s-.01.07-.01.07v.07s-.01.07-.01.07v.07s-.01.07-.01.07v.07s-.01.07-.01.07v.07s-.01.07-.01.07v.07s-.01.07-.01.07v.07s-.01.07-.01.07v.07s-.01.07-.01.07v.07s-.01.07-.01.07v.07s-.01.07-.01.07v.07s-.01.07-.01.07v.07s-.01.07-.01.07v.07s-.01.07-.01.07v.07s-.01.07-.01.07v.07s-.01.07-.01.07v.07s-.01.07-.01.07v.07s-.01.07-.01.07v.07s-.01.07-.01.07v.07s-.01.07-.01.07v.07s-.01.07-.01.07v.07s-.01.07-.01.07v.07s-.01.07-.01.07v.07s-.01.07-.01.07v.07s-.01.07-.01.07v.07s-.01.07-.01.07c0,0,0,.01,0,.02,0,0,0,.01,0,.02,0,0,0,.01,0,.02,0,0,0,.01,0,.02,0,0,0,.01,0,.02v.02s0,.01,0,.02c0,0,0,.01,0,.02,0,0,0,.01,0,.02,0,0,0,.01,0,.02,0,0,0,.01,0,.02s0,.01,0,.02v.02s0,.01,0,.02c0,0,0,.01,0,.02s0,.01,0,.02c0,0,0,.01,0,.02v.02s0,.01,0,.02c0,0,0,.01,0,.02v.02s0,.01,0,.02c0,0,0,.01,0,.02s0,.01,0,.02c0,0,0,.01,0,.02s0,.01,0,.02c0,0,0,.01,0,.02,0,0,0,.01,0,.02s0,.01,0,.02c0,0,0,.01,0,.02,0,0,0,.01,0,.02s0,.01,0,.02c0,0,0,.01,0,.02,0,0,0,.01,0,.02,0,0,0,.01,0,.02,0,0,0,.01,0,.02s0,.01,0,.02c0,0,0,.01,0,.02,0,0,0,.01,0,.02,0,0,0,.01,0,.02,0,0,0,.01,0,.02,0,0,0,.01,0,.02,0,0,0,.01,0,.02,0,0,0,.01,0,.02,0,0,0,.01,0,.02s0,.01,0,.02c0,0,0,.01,0,.02s0,.01,0,.02c0,0,0,.01,0,.02v.02s0,.01,0,.02c0,0,0,.01,0,.02,0,0,0,.01,0,.02,0,0,0,.01,0,.02,0,0,0,.01,0,.02,0,0,0,.01,0,.02,0,0,0,.01,0,.02,0,0,0,.01,0,.02,0,0,0,.01,0,.02s0,.01,0,.02c0,0,0,.01,0,.02,0,0,0,.01,0,.02s0,.01,0,.02c0,0,0,.01,0,.02.03-.02.06-.04.09-.06.03-.02.06-.04.09-.06.03-.02.06-.04.08-.06s.06-.04.08-.06c.03-.02.06-.04.08-.06.03-.02.06-.04.08-.06.03-.02.06-.04.08-.06.03-.02.06-.04.08-.06.03-.02.06-.04.08-.06.03-.02.06-.04.08-.06.03-.02.06-.04.08-.07s.05-.04.08-.07.05-.04.08-.07c.03-.02.05-.04.08-.07.03-.02.05-.04.08-.07s.05-.04.08-.07c.03-.02.05-.04.08-.07.03-.02.05-.04.08-.07s.05-.05.08-.07.05-.05.08-.07c.03-.02.05-.05.08-.07.03-.02.05-.05.08-.07.03-.02.05-.05.08-.07.03-.02.05-.05.08-.07s.05-.05.08-.07c.03-.02.05-.05.08-.07s.05-.05.08-.07c.03-.02.05-.05.08-.07.03-.02.05-.05.08-.07.03-.02.05-.05.08-.07.03-.02.05-.05.08-.07.03-.02.05-.05.08-.07.03-.02.05-.05.08-.07s.05-.05.08-.07c.03-.02.05-.05.08-.07.03-.02.05-.05.07-.07.02-.02.05-.05.07-.07.02-.02.05-.05.07-.07s.05-.05.07-.07c.02-.02.05-.05.07-.07s.05-.05.07-.07c.02-.03.05-.05.07-.08s.05-.05.07-.08c.02-.03.05-.05.07-.08.02-.03.05-.05.07-.08.02-.03.05-.05.07-.08.02-.03.05-.05.07-.08.02-.03.05-.05.07-.08.02-.03.05-.05.07-.08.02-.03.05-.05.07-.08.02-.03.05-.05.07-.08s.05-.05.07-.08c.02-.03.05-.05.07-.08.02-.03.05-.05.07-.08.02-.03.05-.05.07-.08.02-.03.05-.05.07-.08.02-.03.05-.05.07-.08.02-.03.05-.05.07-.08s.04-.05.07-.08c.02-.03.04-.05.07-.08.02-.03.04-.05.07-.08.02-.03.04-.05.07-.08s.04-.05.07-.08c.02-.03.04-.05.07-.08.05-.07.1-.13.15-.2.05-.07.1-.13.15-.2.05-.07.1-.13.15-.2.05-.07.1-.13.15-.2s.1-.13.15-.2c.05-.07.1-.13.14-.2s.09-.13.14-.2c.05-.07.09-.14.14-.2.05-.07.09-.14.14-.2.04-.07.09-.14.13-.21.04-.07.09-.14.13-.21.04-.07.09-.14.13-.21.04-.07.08-.14.13-.21.04-.07.08-.14.12-.21.04-.07.08-.14.12-.21.04-.07.08-.14.12-.21.04-.07.08-.14.12-.21.04-.07.08-.14.11-.21s.08-.14.11-.22.07-.14.11-.22c.04-.07.07-.14.11-.22s.07-.15.11-.22c.03-.07.07-.15.1-.22.03-.07.07-.15.1-.22s.07-.15.1-.22c.03-.07.06-.15.1-.22.03-.07.06-.15.09-.22.03-.07.06-.15.09-.22.03-.07.06-.15.09-.22.03-.08.06-.15.09-.23.03-.08.06-.15.08-.23.03-.08.05-.15.08-.23s.05-.15.08-.23c.03-.08.05-.15.08-.23s.05-.15.07-.23c.02-.08.05-.15.07-.23s.05-.15.07-.23c.02-.08.04-.15.07-.23s.04-.16.06-.23c.02-.08.04-.16.06-.23.02-.08.04-.16.06-.23s.04-.16.06-.23.04-.16.05-.24.03-.16.05-.24c.02-.08.03-.16.05-.24.02-.08.03-.16.05-.24s.03-.16.04-.24c.01-.08.03-.16.04-.24s.03-.16.04-.24c.01-.08.02-.16.04-.24s.02-.16.03-.24c.01-.08.02-.16.03-.24.01-.08.02-.16.03-.24,0-.08.02-.16.03-.24,0-.08.02-.16.02-.24,0-.08.01-.16.02-.24,0-.08.01-.16.02-.24,0-.08.01-.16.02-.24,0-.08,0-.16.01-.25s0-.16.01-.25c0-.08,0-.16,0-.25,0-.08,0-.16,0-.25,0-.08,0-.16,0-.25s0-.16,0-.25c0-.05,0-.1,0-.16s0-.1,0-.16,0-.1,0-.16c0-.05,0-.1,0-.16,0-.05,0-.1,0-.15,0-.05,0-.1-.01-.15s0-.1-.01-.15,0-.1-.01-.15c0-.05-.01-.1-.02-.15,0-.05-.01-.1-.02-.15,0-.05-.01-.1-.02-.15s-.01-.1-.02-.15-.02-.1-.02-.15-.02-.1-.03-.15c0-.05-.02-.1-.03-.15,0-.05-.02-.1-.03-.15s-.02-.1-.03-.15-.02-.1-.03-.15-.02-.1-.03-.15c-.01-.05-.02-.1-.04-.15s-.02-.1-.04-.15c-.01-.05-.03-.1-.04-.15-.01-.05-.03-.1-.04-.15-.01-.05-.03-.1-.04-.15-.01-.05-.03-.1-.04-.15-.02-.05-.03-.1-.05-.14-.02-.05-.03-.1-.05-.14s-.03-.1-.05-.14-.03-.1-.05-.14c-.02-.05-.04-.09-.05-.14-.02-.05-.04-.09-.06-.14-.02-.05-.04-.09-.06-.14-.02-.05-.04-.09-.06-.14-.02-.05-.04-.09-.06-.14-.02-.05-.04-.09-.06-.14-.02-.05-.04-.09-.06-.14-.02-.05-.04-.09-.07-.14s-.04-.09-.07-.14c-.02-.05-.05-.09-.07-.14-.02-.04-.05-.09-.07-.13-.02-.04-.05-.09-.07-.13s-.05-.09-.07-.13c-.02-.04-.05-.09-.08-.13-.03-.04-.05-.09-.08-.13-.03-.04-.05-.09-.08-.13-.03-.04-.05-.09-.08-.13-.03-.04-.05-.09-.08-.13s-.06-.09-.08-.13-.06-.08-.09-.13c-.03-.04-.06-.08-.09-.13-.03-.04-.06-.08-.09-.12-.03-.04-.06-.08-.09-.12-.03-.04-.06-.08-.09-.12s-.06-.08-.09-.12c-.03-.04-.06-.08-.1-.12-.03-.04-.06-.08-.1-.12-.03-.04-.07-.08-.1-.12s-.07-.08-.1-.12c-.03-.04-.07-.08-.1-.12-.03-.04-.07-.08-.1-.12-.03-.04-.07-.08-.1-.11-.04-.04-.07-.08-.11-.11-.04-.04-.07-.07-.11-.11-.04-.04-.07-.07-.11-.11-.04-.04-.07-.07-.11-.11-.04-.04-.07-.07-.11-.11s-.08-.07-.11-.11-.08-.07-.11-.1-.08-.07-.12-.1-.08-.07-.12-.1c-.04-.03-.08-.07-.12-.1-.04-.03-.08-.07-.12-.1-.04-.03-.08-.06-.12-.1-.04-.03-.08-.06-.12-.1-.04-.03-.08-.06-.12-.09-.04-.03-.08-.06-.12-.09-.04-.03-.08-.06-.12-.09-.04-.03-.08-.06-.12-.09-.04-.03-.08-.06-.13-.09s-.08-.06-.13-.09c-.04-.03-.08-.06-.13-.08-.04-.03-.09-.06-.13-.08-.04-.03-.09-.05-.13-.08-.04-.03-.09-.05-.13-.08-.04-.03-.09-.05-.13-.08-.04-.03-.09-.05-.13-.08s-.09-.05-.13-.07-.09-.05-.13-.07c-.04-.02-.09-.05-.13-.07-.04-.02-.09-.05-.14-.07-.05-.02-.09-.05-.14-.07-.05-.02-.09-.04-.14-.07-.05-.02-.09-.04-.14-.06-.05-.02-.09-.04-.14-.06-.05-.02-.09-.04-.14-.06-.05-.02-.09-.04-.14-.06-.05-.02-.09-.04-.14-.06-.05-.02-.09-.04-.14-.06-.05-.02-.09-.04-.14-.05-.05-.02-.09-.03-.14-.05s-.1-.03-.14-.05c-.05-.02-.1-.03-.14-.05-.05-.02-.1-.03-.14-.05-.05-.02-.1-.03-.15-.04-.05-.01-.1-.03-.15-.04-.05-.01-.1-.03-.15-.04-.05-.01-.1-.03-.15-.04s-.1-.03-.15-.04c-.05-.01-.1-.02-.15-.04-.05-.01-.1-.02-.15-.03-.05-.01-.1-.02-.15-.03-.05-.01-.1-.02-.15-.03-.05,0-.1-.02-.15-.03-.05,0-.1-.02-.15-.03-.05,0-.1-.02-.15-.03s-.1-.02-.15-.02-.1-.01-.15-.02c-.05,0-.1-.01-.15-.02-.05,0-.1-.01-.15-.02-.05,0-.1-.01-.15-.02-.05,0-.1,0-.15-.01s-.1,0-.15-.01-.1,0-.15-.01c-.05,0-.1,0-.15,0-.05,0-.1,0-.16,0-.05,0-.1,0-.16,0s-.1,0-.16,0-.1,0-.16,0Z"/>
  <path class="cls-1" d="m33.39,38.12v-.04s.02-.04.02-.04v-.04s.02-.04.02-.04v-.04s.02-.04.02-.04v-.04s.02-.04.02-.04v-.04s.02-.04.02-.04v-.04s.02-.04.02-.04v-.04s.02-.04.02-.04v-.04s.02-.04.02-.04v-.04s.02-.04.02-.04v-.04s.02-.04.02-.04v-.04s.02-.04.02-.04v-.04s.02-.04.02-.04v-.04s.02-.04.02-.04v-.04s.02-.04.02-.04v-.04s.02-.04.02-.04v-.04s.02-.04.02-.04v-.04s.02-.04.02-.04v-.04s.02-.04.02-.04v-.04s.02-.04.02-.04v-.04s.02-.04.02-.04v-.04s.02-.04.02-.04v-.04s.02-.04.02-.04v-.04s.02-.04.02-.04v-.04s.02-.04.02-.04v-.04s.02-.04.02-.04v-.04s.02-.04.02-.04v-.04s.02-.04.02-.04v-.04s.02-.04.02-.04v-.04s.02-.04.02-.04v-.04s.02-.04.02-.04v-.04s.02-.04.02-.04v-.04s.02-.04.02-.04c0-.02,0-.04.01-.06,0-.02,0-.04.01-.06,0-.02,0-.04.01-.06,0-.02,0-.04.01-.06,0-.02,0-.04.01-.06,0-.02,0-.04.01-.06,0-.02,0-.04.01-.06s0-.04.01-.06c0-.02,0-.04.01-.06,0-.02,0-.04.01-.06,0-.02,0-.04.01-.06s0-.04.01-.06,0-.04.01-.06c0-.02,0-.04.01-.06,0-.02,0-.04.01-.06,0-.02,0-.04.01-.06,0-.02,0-.04.01-.06,0-.02,0-.04.01-.06,0-.02,0-.04.01-.06,0-.02,0-.04.01-.06,0-.02,0-.04.01-.06s0-.04.01-.06,0-.04.01-.06c0-.02,0-.04.01-.06,0-.02,0-.04.01-.06s0-.04.01-.06c0-.02,0-.04.01-.06,0-.02,0-.04.01-.06,0-.02,0-.04.01-.06s0-.04.01-.06c0-.02,0-.04.01-.06,0-.02,0-.04,0-.06,0-.02,0-.04,0-.06s0-.04,0-.06,0-.04,0-.06c0-.02,0-.04,0-.06s0-.04,0-.06,0-.04,0-.06c0-.02,0-.04,0-.06,0-.02,0-.04,0-.06s0-.04,0-.06c0-.02,0-.04,0-.05,0-.02,0-.04,0-.05,0-.02,0-.04,0-.05,0-.02,0-.04,0-.05s0-.04,0-.05,0-.04,0-.05,0-.04,0-.05c0-.02,0-.04,0-.05,0-.02,0-.04,0-.05,0-.02,0-.04,0-.05s0-.04,0-.05c0-.02,0-.04,0-.05,0-.02,0-.04,0-.05,0-.02,0-.04,0-.05s0-.04,0-.05c0-.02,0-.04,0-.05s0-.04,0-.05c0-.02,0-.04,0-.05,0-.02,0-.04,0-.05,0-.02,0-.03,0-.05s0-.03,0-.05c0-.02,0-.03,0-.05s0-.03,0-.05v-.04s0-.04,0-.04v-.04s0-.04,0-.04v-.04s0-.04,0-.04v-.04s0-.04,0-.04v-.04s0-.04,0-.04v-.04s0-.04,0-.04v-.04s0-.04,0-.04v-.04s0-.04,0-.04v-.04s0-.04,0-.04v-.04s0-.04,0-.04v-.04s0-.04,0-.04v-.04s0-.04,0-.04v-.04s0-.04,0-.04v-.04s0-.04,0-.04v-.04s0-.04,0-.04v-.04s0-.04,0-.04v-.04s0-.04,0-.04v-.04s0-.04,0-.04v-.04s0-.04,0-.04v-.04s0-.04,0-.04v-.04s0-.04,0-.04v-.04s0-.04,0-.04v-.04s0-.04,0-.04v-.04s0-.04,0-.04v-.04s0-.04,0-.04v-.04s0-.04,0-.04v-.04s0-.04,0-.04v-.04s0-.04,0-.04v-.04s0-.04,0-.04v-.04s0-.04,0-.04v-.04s0-.04,0-.04v-.04s0-.04,0-.04h-.04s-.04-.01-.04-.01h-.04s-.04-.01-.04-.01h-.04s-.04-.01-.04-.01h-.04s-.04-.01-.04-.01h-.04s-.04-.01-.04-.01h-.04s-.04-.01-.04-.01h-.04s-.04-.01-.04-.01h-.04s-.04-.01-.04-.01h-.04s-.04-.01-.04-.01h-.04s-.04-.01-.04-.01h-.04s-.04-.01-.04-.01h-.04s-.04-.01-.04-.01h-.04s-.04-.01-.04-.01h-.04s-.04-.01-.04-.01h-.04s-.04-.01-.04-.01h-.04s-.04-.01-.04-.01h-.04s-.04-.01-.04-.01h-.04s-.04-.01-.04-.01h-.04s-.04-.01-.04-.01h-.04s-.04-.01-.04-.01h-.04s-.04-.01-.04-.01h-.04s-.04-.01-.04-.01h-.04s-.04-.01-.04-.01h-.04s-.04-.01-.04-.01h-.04s-.04-.01-.04-.01h-.04s-.04-.01-.04-.01h-.04s-.04-.01-.04-.01h-.04s-.04-.01-.04-.01h-.04s-.04-.01-.04-.01h-.04s-.04-.01-.04-.01h-.04s-.04-.01-.04-.01h-.04s-.04-.01-.04-.01c-.06,0-.11-.01-.17-.02-.06,0-.11-.02-.16-.02s-.11-.02-.16-.03c-.05,0-.11-.02-.16-.03-.05,0-.11-.02-.16-.03-.05,0-.11-.02-.16-.03-.05-.01-.11-.02-.16-.03-.05-.01-.11-.02-.16-.03-.05-.01-.11-.02-.16-.04-.05-.01-.11-.03-.16-.04-.05-.01-.11-.03-.16-.04-.05-.01-.11-.03-.16-.04-.05-.01-.11-.03-.16-.04-.05-.01-.11-.03-.16-.05-.05-.02-.11-.03-.16-.05-.05-.02-.11-.03-.16-.05s-.1-.03-.16-.05c-.05-.02-.1-.03-.16-.05-.05-.02-.1-.04-.16-.05-.05-.02-.1-.04-.15-.06s-.1-.04-.15-.06c-.05-.02-.1-.04-.15-.06-.05-.02-.1-.04-.15-.06-.05-.02-.1-.04-.15-.06s-.1-.04-.15-.06-.1-.04-.15-.07-.1-.04-.15-.07c-.05-.02-.1-.05-.15-.07-.05-.02-.1-.05-.15-.07-.05-.02-.1-.05-.15-.07s-.1-.05-.15-.07c-.05-.03-.1-.05-.15-.08-.05-.03-.1-.05-.14-.08-.05-.03-.1-.05-.14-.08-.05-.03-.1-.05-.14-.08s-.09-.05-.14-.08-.09-.06-.14-.08c-.05-.03-.09-.06-.14-.09s-.09-.06-.14-.09-.09-.06-.14-.09c-.05-.03-.09-.06-.14-.09-.05-.03-.09-.06-.14-.09s-.09-.06-.14-.09-.09-.06-.13-.1c-.04-.03-.09-.06-.13-.1-.04-.03-.09-.07-.13-.1-.04-.03-.09-.07-.13-.1s-.09-.07-.13-.1c-.04-.03-.09-.07-.13-.1-.04-.03-.09-.07-.13-.1-.04-.04-.08-.07-.13-.11-.04-.04-.08-.07-.13-.11s-.08-.07-.12-.11c-.04-.04-.08-.07-.12-.11-.04-.04-.08-.07-.12-.11-.04-.04-.08-.08-.12-.11s-.08-.08-.12-.11c-.04-.04-.08-.08-.12-.12s-.08-.08-.12-.12-.08-.08-.12-.12c-.04-.04-.08-.08-.12-.12s-.08-.08-.11-.12-.08-.08-.11-.12c-.04-.04-.07-.08-.11-.12-.04-.04-.07-.08-.11-.13-.04-.04-.07-.08-.11-.13-.04-.04-.07-.08-.11-.13s-.07-.09-.1-.13c-.03-.04-.07-.09-.1-.13-.03-.04-.07-.09-.1-.13-.03-.04-.07-.09-.1-.13-.03-.04-.07-.09-.1-.13s-.06-.09-.1-.13c-.03-.04-.06-.09-.1-.13-.03-.05-.06-.09-.09-.14-.03-.05-.06-.09-.09-.14-.03-.05-.06-.09-.09-.14-.03-.05-.06-.09-.09-.14-.03-.05-.06-.09-.09-.14-.03-.05-.06-.09-.09-.14-.03-.05-.06-.09-.08-.14-.03-.05-.06-.09-.08-.14-.03-.05-.05-.1-.08-.14-.03-.05-.05-.1-.08-.14-.03-.05-.05-.1-.08-.14s-.05-.1-.08-.15c-.02-.05-.05-.1-.07-.15-.02-.05-.05-.1-.07-.15s-.05-.1-.07-.15-.05-.1-.07-.15c-.02-.05-.05-.1-.07-.15-.02-.05-.04-.1-.07-.15-.02-.05-.04-.1-.06-.15-.02-.05-.04-.1-.06-.15-.02-.05-.04-.1-.06-.15-.02-.05-.04-.1-.06-.15-.02-.05-.04-.1-.06-.15-.02-.05-.04-.1-.06-.15-.02-.05-.04-.1-.05-.15-.02-.05-.03-.1-.05-.16s-.03-.1-.05-.16c-.02-.05-.03-.1-.05-.16-.02-.05-.03-.1-.05-.16-.02-.05-.03-.11-.04-.16-.01-.05-.03-.11-.04-.16s-.03-.11-.04-.16-.03-.11-.04-.16c-.01-.05-.03-.11-.04-.16s-.02-.11-.04-.16c-.01-.05-.02-.11-.03-.16-.01-.05-.02-.11-.03-.16-.01-.05-.02-.11-.03-.16,0-.05-.02-.11-.03-.16,0-.05-.02-.11-.03-.16s-.02-.11-.03-.16-.02-.11-.02-.16c0-.05-.01-.11-.02-.16,0-.05-.01-.11-.02-.16,0-.05-.01-.11-.02-.16s-.01-.11-.02-.16c0-.05,0-.11-.01-.16s0-.11-.01-.17c0-.06,0-.11-.01-.17,0-.06,0-.11,0-.17s0-.11,0-.17c0-.06,0-.11,0-.17,0-.06,0-.11,0-.17,0-.06,0-.11,0-.17,0-.06,0-.12,0-.18s0-.12,0-.18c0-.06,0-.12,0-.18,0-.06,0-.12,0-.18s0-.12,0-.18c0-.06,0-.12.01-.18,0-.06,0-.12.01-.18,0-.06.01-.12.02-.18,0-.06.01-.12.02-.18,0-.06.01-.12.02-.18,0-.06.01-.12.02-.18,0-.06.02-.12.03-.18,0-.06.02-.12.03-.18s.02-.12.03-.18c.01-.06.02-.12.03-.18.01-.06.02-.12.03-.18.01-.06.02-.12.04-.18.01-.06.02-.12.04-.17.01-.06.03-.12.04-.17.01-.06.03-.12.04-.17.01-.06.03-.12.04-.17s.03-.11.05-.17c.02-.06.03-.11.05-.17.02-.06.03-.11.05-.17.02-.06.03-.11.05-.17.02-.06.04-.11.05-.17.02-.06.04-.11.06-.17.02-.06.04-.11.06-.17s.04-.11.06-.17c.02-.06.04-.11.06-.17.02-.06.04-.11.06-.17.02-.05.04-.11.07-.16.02-.05.05-.11.07-.16.02-.05.05-.11.07-.16s.05-.11.07-.16c.02-.05.05-.11.07-.16.03-.05.05-.11.08-.16s.05-.11.08-.16c.03-.05.05-.11.08-.16.03-.05.05-.11.08-.16.03-.05.06-.1.08-.16.03-.05.06-.1.09-.16s.06-.1.09-.15c.03-.05.06-.1.09-.15.03-.05.06-.1.09-.15.03-.05.06-.1.09-.15s.06-.1.1-.15c.03-.05.07-.1.1-.15.03-.05.07-.1.1-.15.03-.05.07-.1.1-.15.03-.05.07-.1.1-.15.04-.05.07-.1.11-.14.04-.05.07-.1.11-.14.04-.05.07-.1.11-.14.04-.05.07-.09.11-.14.04-.05.08-.09.11-.14.04-.05.08-.09.12-.14.04-.05.08-.09.12-.14.04-.05.08-.09.12-.14s.08-.09.12-.14c.04-.04.08-.09.12-.13.04-.04.08-.09.12-.13s.08-.09.13-.13c.04-.04.09-.09.13-.13s.09-.09.13-.13c.04-.04.09-.08.13-.13s.09-.08.13-.12c.04-.04.09-.08.13-.12.04-.04.09-.08.14-.12s.09-.08.14-.12.09-.08.14-.12c.05-.04.09-.08.14-.12.05-.04.09-.08.14-.11.05-.04.09-.07.14-.11s.09-.07.14-.11c.05-.04.1-.07.14-.11.05-.04.1-.07.14-.11.05-.04.1-.07.15-.1.05-.03.1-.07.15-.1s.1-.07.15-.1c.05-.03.1-.07.15-.1.05-.03.1-.06.15-.1.05-.03.1-.06.15-.09.05-.03.1-.06.15-.09.05-.03.1-.06.15-.09.05-.03.1-.06.15-.09.05-.03.1-.06.16-.09.05-.03.1-.06.16-.08.05-.03.1-.06.16-.08s.11-.05.16-.08c.05-.03.11-.05.16-.08.05-.03.11-.05.16-.08.05-.03.11-.05.16-.08.05-.02.11-.05.16-.07.05-.02.11-.05.16-.07.05-.02.11-.05.16-.07.05-.02.11-.04.16-.07s.11-.04.17-.06c.06-.02.11-.04.17-.06.06-.02.11-.04.17-.06s.11-.04.17-.06c.06-.02.11-.04.17-.06.06-.02.11-.04.17-.05.06-.02.11-.04.17-.05.06-.02.11-.03.17-.05.06-.02.11-.03.17-.05s.11-.03.17-.05.12-.03.17-.04c.06-.01.12-.03.17-.04.06-.01.12-.03.17-.04s.12-.03.17-.04c.06-.01.12-.02.18-.04.06-.01.12-.02.18-.03.06-.01.12-.02.18-.03.06-.01.12-.02.18-.03.06,0,.12-.02.18-.03.06,0,.12-.02.18-.03.06,0,.12-.02.18-.02.06,0,.12-.01.18-.02.06,0,.12-.01.18-.02.06,0,.12-.01.18-.02.06,0,.12,0,.18-.01.06,0,.12,0,.18-.01.06,0,.12,0,.18,0s.12,0,.18,0c.06,0,.12,0,.18,0,.06,0,.12,0,.18,0s.12,0,.18,0,.12,0,.18,0c.06,0,.12,0,.18,0s.12,0,.18,0c.06,0,.12,0,.18,0,.06,0,.12,0,.18,0,.06,0,.12,0,.18.01.06,0,.12,0,.18.01.06,0,.12.01.18.02.06,0,.12.01.18.02s.12.01.18.02c.06,0,.12.01.18.02.06,0,.12.02.18.03.06,0,.12.02.18.03.06,0,.12.02.18.03.06.01.12.02.18.03.06.01.12.02.18.03.06.01.12.02.18.04.06.01.12.02.17.04s.12.03.17.04c.06.01.12.03.17.04.06.01.12.03.17.04.06.02.11.03.17.05.06.02.11.03.17.05.06.02.11.03.17.05.06.02.11.03.17.05.06.02.11.04.17.05.06.02.11.04.17.06.06.02.11.04.17.06.06.02.11.04.17.06.06.02.11.04.17.06.06.02.11.04.17.06.05.02.11.04.16.07.05.02.11.05.16.07.05.02.11.05.16.07s.11.05.16.07c.05.02.11.05.16.07.05.03.11.05.16.08.05.03.11.05.16.08.05.03.11.05.16.08s.11.05.16.08c.05.03.1.06.16.08.05.03.1.06.16.09.05.03.1.06.15.09.05.03.1.06.15.09.05.03.1.06.15.09.05.03.1.06.15.09.05.03.1.06.15.1.05.03.1.07.15.1.05.03.1.07.15.1.05.03.1.07.15.1.05.03.1.07.15.1s.1.07.14.11c.05.04.1.07.14.11.05.04.1.07.14.11.05.04.09.07.14.11s.09.08.14.11c.05.04.09.08.14.12.05.04.09.08.14.12.05.04.09.08.14.12s.09.08.14.12.09.08.13.12c.04.04.09.08.13.12.04.04.09.08.13.13.04.04.09.09.13.13.04.04.09.09.13.13.04.04.08.09.13.13.04.04.08.09.12.13.04.04.08.09.12.13.04.04.08.09.12.14.04.05.08.09.12.14.04.05.08.09.12.14.04.05.08.09.12.14.04.05.08.09.11.14s.07.09.11.14c.04.05.07.09.11.14.04.05.07.1.11.14.04.05.07.1.11.14s.07.1.1.15c.03.05.07.1.1.15s.07.1.1.15c.03.05.07.1.1.15.03.05.06.1.1.15.03.05.06.1.09.15.03.05.06.1.09.15.03.05.06.1.09.15s.06.1.09.15c.03.05.06.1.09.16.03.05.06.1.08.16.03.05.06.1.08.16s.05.11.08.16c.03.05.05.11.08.16.03.05.05.11.08.16.03.05.05.11.08.16.02.05.05.11.07.16s.05.11.07.16c.02.05.05.11.07.16.02.05.04.11.07.16.02.05.04.11.06.17.02.06.04.11.06.17.02.06.04.11.06.17.02.06.04.11.06.17s.04.11.06.17c.02.06.04.11.05.17.02.06.04.11.05.17.02.06.03.11.05.17.02.06.03.11.05.17s.03.11.05.17c.02.06.03.12.04.17.01.06.03.12.04.17.01.06.03.12.04.17.01.06.03.12.04.17.01.06.02.12.04.18.01.06.02.12.03.18.01.06.02.12.03.18.01.06.02.12.03.18,0,.06.02.12.03.18,0,.06.02.12.03.18,0,.06.02.12.02.18,0,.06.01.12.02.18s.01.12.02.18c0,.06.01.12.02.18,0,.06,0,.12.01.18,0,.06,0,.12.01.18,0,.06,0,.12,0,.18,0,.06,0,.12,0,.18,0,.06,0,.12,0,.18s0,.12,0,.18c0,.06,0,.12,0,.18,0,.09,0,.18,0,.27,0,.09,0,.18,0,.27,0,.09,0,.18,0,.27,0,.09,0,.18,0,.27,0,.09,0,.18-.01.27,0,.09,0,.18-.02.27,0,.09-.01.18-.02.27,0,.09-.01.18-.02.27,0,.09-.02.18-.02.27,0,.09-.02.18-.03.27,0,.09-.02.18-.03.26-.01.09-.02.18-.03.26-.01.09-.02.18-.03.26s-.02.18-.04.26c-.01.09-.03.17-.04.26-.01.09-.03.17-.04.26-.01.09-.03.17-.05.26-.02.09-.03.17-.05.26-.02.09-.03.17-.05.26-.02.09-.04.17-.05.26-.02.09-.04.17-.06.26-.02.09-.04.17-.06.26-.02.09-.04.17-.06.26-.02.09-.04.17-.06.26-.02.09-.04.17-.07.26-.02.08-.05.17-.07.25-.02.08-.05.17-.07.25s-.05.17-.08.25c-.03.08-.05.17-.08.25-.03.08-.05.17-.08.25s-.06.17-.08.25c-.03.08-.06.17-.09.25s-.06.17-.09.25-.06.17-.09.25c-.03.08-.06.16-.09.25s-.06.16-.1.25c-.03.08-.07.16-.1.24s-.07.16-.1.24c-.03.08-.07.16-.1.24-.04.08-.07.16-.11.24-.04.08-.07.16-.11.24-.04.08-.07.16-.11.24-.04.08-.08.16-.12.24-.04.08-.08.16-.12.24-.04.08-.08.16-.12.24-.04.08-.08.16-.12.24-.04.08-.08.16-.13.23-.04.08-.08.16-.13.23-.04.08-.09.15-.13.23-.04.08-.09.15-.13.23s-.09.15-.14.23-.09.15-.14.23c-.05.08-.09.15-.14.23-.05.08-.1.15-.14.23s-.1.15-.15.23c-.05.07-.1.15-.15.22s-.1.15-.15.22c-.05.07-.1.15-.15.22-.05.07-.1.15-.16.22-.05.07-.11.15-.16.22-.05.07-.11.15-.16.22s-.11.14-.16.22c-.05.07-.11.14-.17.22-.06.07-.11.14-.17.21-.03.04-.06.08-.1.12-.03.04-.07.08-.1.12-.03.04-.07.08-.1.12-.03.04-.07.08-.1.12-.03.04-.07.08-.1.12-.03.04-.07.08-.1.12-.03.04-.07.08-.1.12-.03.04-.07.08-.1.12-.03.04-.07.08-.1.12-.03.04-.07.08-.1.12-.03.04-.07.08-.1.12-.03.04-.07.08-.1.11-.04.04-.07.08-.11.11s-.07.08-.11.11c-.04.04-.07.08-.11.11-.04.04-.07.07-.11.11-.04.04-.07.07-.11.11-.04.04-.07.07-.11.11-.04.04-.07.07-.11.11-.04.04-.07.07-.11.11-.04.04-.07.07-.11.11-.04.04-.07.07-.11.11-.04.04-.07.07-.11.11-.04.04-.08.07-.11.11-.04.04-.08.07-.11.11s-.08.07-.11.11-.08.07-.11.11-.08.07-.12.1c-.04.03-.08.07-.12.1-.04.03-.08.07-.12.1-.04.03-.08.07-.12.1-.04.03-.08.07-.12.1-.04.03-.08.07-.12.1-.04.03-.08.07-.12.1-.04.03-.08.07-.12.1-.04.03-.08.07-.12.1-.04.03-.08.07-.12.1s-.08.07-.12.1-.08.06-.12.1c-.04.03-.08.06-.12.1-.04.03-.08.06-.12.1-.04.03-.08.06-.12.1-.04.03-.08.06-.12.09-.04.03-.08.06-.13.09-.04.03-.08.06-.13.09-.04.03-.08.06-.13.09-.04.03-.08.06-.13.09-.04.03-.08.06-.13.09-.04.03-.09.06-.13.09-.04.03-.09.06-.13.09s-.09.06-.13.09-.09.06-.13.09c-.04.03-.09.06-.13.09s-.09.06-.13.09-.09.06-.13.09-.09.06-.13.09c-.04.03-.09.06-.13.08-.04.03-.09.06-.13.08-.04.03-.09.06-.13.08-.04.03-.09.06-.13.08-.04.03-.09.05-.14.08-.05.03-.09.05-.14.08-.05.03-.09.05-.14.08-.05.03-.09.05-.14.08l-.03.02-.03.02-.03.02-.03.02-.03.02-.03.02-.03.02-.03.02-.03.02-.03.02-.03.02-.03.02-.03.02-.03.02-.03.02-.03.02-.03.02-.03.02-.03.02-.03.02-.03.02-.03.02-.03.02-.03.02-.03.02-.03.02-.03.02-.03.02-.03.02-.03.02-.03.02-.03.02-.03.02-.03.02-.03.02-.03.02-.03.02-.03.02-.03.02-.03.02-.03.02-.03.02-.03.02-.03.02-.03.02-.03.02-.03.02-.03.02-.03.02-.03.02-.03.02-.03.02-.03.02-.03.02-.03.02-.03.02-.03.02-.03.02-.03.02-.03.02-.03.02-.03.02-.03.02-.03.02Zm.64-35.98c-.05,0-.1,0-.16,0s-.1,0-.16,0-.1,0-.16,0c-.05,0-.1,0-.16,0-.05,0-.1,0-.15,0-.05,0-.1,0-.15.01s-.1,0-.15.01c-.05,0-.1,0-.15.01-.05,0-.1.01-.15.02-.05,0-.1.01-.15.02s-.1.01-.15.02c-.05,0-.1.01-.15.02-.05,0-.1.02-.15.02s-.1.02-.15.03c-.05,0-.1.02-.15.03-.05,0-.1.02-.15.03-.05,0-.1.02-.15.03-.05.01-.1.02-.15.03-.05.01-.1.02-.15.03-.05.01-.1.02-.15.04-.05.01-.1.02-.15.04s-.1.03-.15.04c-.05.01-.1.03-.15.04s-.1.03-.15.04c-.05.01-.1.03-.15.04-.05.02-.1.03-.14.05-.05.02-.1.03-.14.05-.05.02-.1.03-.14.05-.05.02-.1.03-.14.05-.05.02-.09.04-.14.05s-.09.04-.14.06c-.05.02-.09.04-.14.06s-.09.04-.14.06c-.05.02-.09.04-.14.06-.05.02-.09.04-.14.06-.05.02-.09.04-.14.06-.05.02-.09.04-.14.07-.05.02-.09.04-.14.07-.05.02-.09.05-.14.07s-.09.05-.13.07c-.04.02-.09.05-.13.07-.04.02-.09.05-.13.07-.04.03-.09.05-.13.08s-.09.05-.13.08c-.04.03-.09.05-.13.08-.04.03-.09.05-.13.08-.04.03-.09.05-.13.08-.04.03-.09.06-.13.08-.04.03-.08.06-.13.09s-.08.06-.13.09c-.04.03-.08.06-.12.09-.04.03-.08.06-.12.09-.04.03-.08.06-.12.09s-.08.06-.12.09c-.04.03-.08.06-.12.1-.04.03-.08.06-.12.1s-.08.07-.12.1-.08.07-.12.1c-.04.03-.08.07-.12.1s-.08.07-.12.1-.08.07-.11.1c-.04.04-.08.07-.11.11-.04.04-.07.07-.11.11-.04.04-.07.07-.11.11-.04.04-.07.07-.11.11-.04.04-.07.07-.11.11-.04.04-.07.08-.11.11s-.07.08-.1.11c-.03.04-.07.08-.1.12-.03.04-.07.08-.1.12s-.07.08-.1.12c-.03.04-.07.08-.1.12-.03.04-.06.08-.1.12-.03.04-.06.08-.1.12s-.06.08-.09.12c-.03.04-.06.08-.09.12-.03.04-.06.08-.09.12-.03.04-.06.08-.09.12-.03.04-.06.08-.09.13-.03.04-.06.08-.09.13s-.06.08-.08.13c-.03.04-.06.09-.08.13-.03.04-.05.09-.08.13-.03.04-.05.09-.08.13-.03.04-.05.09-.08.13-.03.04-.05.09-.08.13-.03.04-.05.09-.07.13s-.05.09-.07.13c-.02.04-.05.09-.07.13-.02.04-.05.09-.07.14-.02.05-.05.09-.07.14-.02.05-.04.09-.07.14s-.04.09-.06.14-.04.09-.06.14c-.02.05-.04.09-.06.14-.02.05-.04.09-.06.14-.02.05-.04.09-.06.14-.02.05-.04.09-.06.14-.02.05-.04.09-.05.14-.02.05-.03.09-.05.14-.02.05-.03.1-.05.14-.02.05-.03.1-.05.14-.02.05-.03.1-.05.14-.02.05-.03.1-.04.15-.01.05-.03.1-.04.15-.01.05-.03.1-.04.15-.01.05-.03.1-.04.15-.01.05-.03.1-.04.15-.01.05-.02.1-.04.15-.01.05-.02.1-.03.15-.01.05-.02.1-.03.15-.01.05-.02.1-.03.15s-.02.1-.03.15c0,.05-.02.1-.03.15,0,.05-.02.1-.03.15s-.02.1-.02.15-.01.1-.02.15c0,.05-.01.1-.02.15,0,.05-.01.1-.02.15,0,.05-.01.1-.02.15,0,.05,0,.1-.01.15s0,.1-.01.15,0,.1-.01.15c0,.05,0,.1,0,.15,0,.05,0,.1,0,.16,0,.05,0,.1,0,.16s0,.1,0,.16,0,.1,0,.16c0,.05,0,.09,0,.14s0,.09,0,.14,0,.09,0,.14,0,.09,0,.14c0,.05,0,.09,0,.14s0,.09,0,.14c0,.05,0,.09.01.14,0,.05,0,.09.01.14,0,.05,0,.09.01.14,0,.05,0,.09.02.14,0,.05.01.09.02.14,0,.05.01.09.02.14s.01.09.02.14c0,.05.01.09.02.14s.02.09.02.14c0,.05.02.09.02.14s.02.09.03.14c0,.05.02.09.03.14s.02.09.03.14c0,.05.02.09.03.14s.02.09.03.14c.01.05.02.09.03.14.01.05.02.09.04.14.01.05.02.09.04.14.01.04.03.09.04.13.01.04.03.09.04.13.01.04.03.09.04.13s.03.09.04.13.03.09.04.13.03.09.05.13c.02.04.03.09.05.13.02.04.03.09.05.13s.03.09.05.13c.02.04.03.09.05.13.02.04.04.09.05.13s.04.09.05.13c.02.04.04.09.06.13.02.04.04.09.06.13.02.04.04.08.06.13.02.04.04.08.06.13s.04.08.06.13c.02.04.04.08.06.12.02.04.04.08.06.12s.04.08.07.12.04.08.07.12.05.08.07.12c.02.04.05.08.07.12.02.04.05.08.07.12.02.04.05.08.07.12.02.04.05.08.07.12.03.04.05.08.08.12s.05.08.08.12c.03.04.05.08.08.12.03.04.05.08.08.12.03.04.05.08.08.12.03.04.05.08.08.11.03.04.06.08.08.11.03.04.06.08.09.11.03.04.06.07.09.11.03.04.06.07.09.11.03.04.06.07.09.11.03.04.06.07.09.11.03.04.06.07.09.11.03.04.06.07.09.11.03.04.06.07.1.11.03.04.06.07.1.11.03.03.06.07.1.1.03.03.07.07.1.1s.07.07.1.1c.03.03.07.07.1.1.03.03.07.07.1.1.03.03.07.07.1.1s.07.06.1.1.07.06.1.1c.04.03.07.06.11.09.04.03.07.06.11.09s.07.06.11.09c.04.03.07.06.11.09.04.03.07.06.11.09.04.03.07.06.11.09.04.03.07.06.11.09s.07.06.11.09c.04.03.08.06.11.08s.08.06.11.08c.04.03.08.05.11.08.04.03.08.05.12.08s.08.05.12.08c.04.03.08.05.12.08.04.03.08.05.12.08.04.03.08.05.12.07s.08.05.12.07.08.05.12.07c.04.02.08.05.12.07.04.02.08.05.12.07.04.02.08.05.12.07.04.02.08.04.12.07.04.02.08.04.12.06.04.02.08.04.12.06.04.02.08.04.13.06.04.02.08.04.13.06.04.02.08.04.13.06.04.02.08.04.13.06.04.02.09.04.13.06.04.02.09.04.13.05.04.02.09.04.13.05.04.02.09.03.13.05s.09.03.13.05c.04.02.09.03.13.05s.09.03.13.05c.04.02.09.03.13.05s.09.03.13.04c.04.01.09.03.13.04.04.01.09.03.13.04.04.01.09.03.13.04.05.01.09.03.14.04.05.01.09.03.14.04.05.01.09.02.14.04.05.01.09.02.14.03.05.01.09.02.14.03.05.01.09.02.14.03.05.01.09.02.14.03.05,0,.09.02.14.03.05,0,.09.02.14.03.05,0,.09.02.14.02s.09.02.14.02.09.01.14.02c.05,0,.09.01.14.02s.09.01.14.02h.07s.07.02.07.02h.07s.07.02.07.02h.07s.07.02.07.02h.07s.07.02.07.02h.07s.07.02.07.02h.07s.07.02.07.02h.07s.07.02.07.02h.07s.07.02.07.02h.07s.07.02.07.02h.07s.07.02.07.02h.07s.07.02.07.02h.07s.07.02.07.02h.07s.07.02.07.02h.07s.07.02.07.02h.07s.07.02.07.02h.07s.07.02.07.02h.07s.07.02.07.02h.07s.07.02.07.02h.07s.07.02.07.02h.07s.07.02.07.02h.07s.07.02.07.02h.07s.07.02.07.02h.07s.07.02.07.02h.07s.07.02.07.02h.07s.07.02.07.02h.07s.07.02.07.02h.07s.07.02.07.02h.07s.07.02.07.02h.07s.07.02.07.02h.07s.07.02.07.02h.07s.07.02.07.02h.07s.07.02.07.02v.07s-.01.07-.01.07v.07s-.01.07-.01.07v.07s-.01.07-.01.07v.07s-.01.07-.01.07v.07s-.01.07-.01.07v.07s-.01.07-.01.07v.07s-.01.07-.01.07v.07s-.01.07-.01.07v.07s-.01.07-.01.07v.07s-.01.07-.01.07v.07s-.01.07-.01.07v.07s-.01.07-.01.07v.07s-.01.07-.01.07v.07s-.01.07-.01.07v.07s-.01.07-.01.07v.07s-.01.07-.01.07v.07s-.01.07-.01.07v.07s-.01.07-.01.07v.07s-.01.07-.01.07v.07s-.01.07-.01.07v.07s-.01.07-.01.07v.07s-.01.07-.01.07v.07s-.01.07-.01.07v.07s-.01.07-.01.07v.07s-.01.07-.01.07v.07s-.01.07-.01.07v.07s-.01.07-.01.07v.07s-.01.07-.01.07v.07s-.01.07-.01.07v.07s-.01.07-.01.07v.07s-.01.07-.01.07v.07s-.01.07-.01.07c0,0,0,.01,0,.02,0,0,0,.01,0,.02,0,0,0,.01,0,.02,0,0,0,.01,0,.02,0,0,0,.01,0,.02v.02s0,.01,0,.02c0,0,0,.01,0,.02,0,0,0,.01,0,.02s0,.01,0,.02c0,0,0,.01,0,.02s0,.01,0,.02v.02s0,.01,0,.02c0,0,0,.01,0,.02s0,.01,0,.02c0,0,0,.01,0,.02v.02s0,.01,0,.02c0,0,0,.01,0,.02v.02s0,.01,0,.02c0,0,0,.01,0,.02s0,.01,0,.02c0,0,0,.01,0,.02,0,0,0,.01,0,.02,0,0,0,.01,0,.02,0,0,0,.01,0,.02s0,.01,0,.02c0,0,0,.01,0,.02v.02s0,.01,0,.02c0,0,0,.01,0,.02,0,0,0,.01,0,.02,0,0,0,.01,0,.02,0,0,0,.01,0,.02,0,0,0,.01,0,.02s0,.01,0,.02c0,0,0,.01,0,.02,0,0,0,.01,0,.02v.02s0,.01,0,.02v.02s0,.01,0,.02c0,0,0,.01,0,.02v.02s0,.01,0,.02,0,.01,0,.02c0,0,0,.01,0,.02,0,0,0,.01,0,.02,0,0,0,.01,0,.02v.02s0,.01,0,.02,0,.01,0,.02c0,0,0,.01,0,.02,0,0,0,.01,0,.02v.02s0,.01,0,.02v.02s0,.01,0,.02c0,0,0,.01,0,.02,0,0,0,.01,0,.02,0,0,0,.01,0,.02,0,0,0,.01,0,.02.03-.02.06-.04.09-.06.03-.02.06-.04.09-.06.03-.02.06-.04.08-.06s.06-.04.08-.06c.03-.02.06-.04.08-.06.03-.02.06-.04.08-.06.03-.02.06-.04.08-.06.03-.02.06-.04.08-.06.03-.02.06-.04.08-.06.03-.02.06-.04.08-.06.03-.02.06-.04.08-.07s.05-.04.08-.07.05-.04.08-.07c.03-.02.05-.04.08-.07.03-.02.05-.04.08-.07.03-.02.05-.04.08-.07.03-.02.05-.04.08-.07.03-.02.05-.04.08-.07s.05-.05.08-.07.05-.05.08-.07c.03-.02.05-.05.08-.07.03-.02.05-.05.08-.07.03-.02.05-.05.08-.07.03-.02.05-.05.08-.07.03-.02.05-.05.08-.07s.05-.05.08-.07.05-.05.08-.07c.03-.02.05-.05.08-.07s.05-.05.08-.07c.03-.02.05-.05.08-.07.03-.02.05-.05.08-.07.03-.02.05-.05.08-.07.03-.02.05-.05.08-.07s.05-.05.08-.07c.03-.02.05-.05.08-.07s.05-.05.07-.07c.02-.02.05-.05.07-.07s.05-.05.07-.07c.02-.02.05-.05.07-.07.02-.02.05-.05.07-.07.02-.02.05-.05.07-.07.02-.03.05-.05.07-.08.02-.03.05-.05.07-.08.02-.03.05-.05.07-.08.02-.03.05-.05.07-.08.02-.03.05-.05.07-.08.02-.03.05-.05.07-.08.02-.03.05-.05.07-.08.02-.03.05-.05.07-.08s.05-.05.07-.08c.02-.03.05-.05.07-.08s.05-.05.07-.08c.02-.03.05-.05.07-.08.02-.03.05-.05.07-.08.02-.03.05-.05.07-.08.02-.03.05-.05.07-.08.02-.03.05-.05.07-.08.02-.03.05-.05.07-.08s.04-.05.07-.08c.02-.03.04-.05.07-.08.02-.03.04-.05.07-.08.02-.03.04-.05.07-.08s.04-.05.07-.08c.02-.03.04-.05.07-.08.05-.07.1-.13.15-.2.05-.07.1-.13.15-.2.05-.07.1-.13.15-.2.05-.07.1-.13.15-.2s.1-.13.15-.2.1-.13.14-.2.09-.13.14-.2c.05-.07.09-.14.14-.2.05-.07.09-.14.14-.21.04-.07.09-.14.13-.21.04-.07.09-.14.13-.21.04-.07.09-.14.13-.21.04-.07.08-.14.13-.21.04-.07.08-.14.12-.21.04-.07.08-.14.12-.21.04-.07.08-.14.12-.21.04-.07.08-.14.12-.21.04-.07.08-.14.11-.21.04-.07.08-.14.11-.22.04-.07.07-.14.11-.22.04-.07.07-.14.11-.22.04-.07.07-.15.11-.22s.07-.15.1-.22c.03-.07.07-.15.1-.22s.07-.15.1-.22c.03-.07.06-.15.1-.22.03-.07.06-.15.09-.22.03-.07.06-.15.09-.22.03-.07.06-.15.09-.22.03-.08.06-.15.09-.23.03-.08.06-.15.08-.23.03-.08.05-.15.08-.23.03-.08.05-.15.08-.23.03-.08.05-.15.08-.23.03-.08.05-.15.07-.23.02-.08.05-.15.07-.23s.05-.15.07-.23c.02-.08.04-.15.07-.23.02-.08.04-.16.06-.23s.04-.16.06-.23.04-.16.06-.23c.02-.08.04-.16.06-.23.02-.08.04-.16.05-.24s.03-.16.05-.24c.02-.08.03-.16.05-.24.02-.08.03-.16.05-.24.02-.08.03-.16.04-.24.01-.08.03-.16.04-.24s.03-.16.04-.24c.01-.08.02-.16.04-.24.01-.08.02-.16.03-.24s.02-.16.03-.24c.01-.08.02-.16.03-.24s.02-.16.03-.24c0-.08.02-.16.02-.24,0-.08.01-.16.02-.24,0-.08.01-.16.02-.24s.01-.16.02-.24c0-.08,0-.16.01-.25,0-.08,0-.16.01-.25,0-.08,0-.16,0-.25s0-.16,0-.25,0-.16,0-.25c0-.08,0-.16,0-.25,0-.05,0-.1,0-.16s0-.1,0-.16,0-.1,0-.16c0-.05,0-.1,0-.16,0-.05,0-.1,0-.15,0-.05,0-.1-.01-.15s0-.1-.01-.15,0-.1-.01-.15c0-.05-.01-.1-.02-.15,0-.05-.01-.1-.02-.15,0-.05-.01-.1-.02-.15s-.01-.1-.02-.15-.02-.1-.02-.15c0-.05-.02-.1-.03-.15,0-.05-.02-.1-.03-.15,0-.05-.02-.1-.03-.15s-.02-.1-.03-.15c-.01-.05-.02-.1-.03-.15-.01-.05-.02-.1-.03-.15-.01-.05-.02-.1-.04-.15-.01-.05-.02-.1-.04-.15-.01-.05-.03-.1-.04-.15-.01-.05-.03-.1-.04-.15-.01-.05-.03-.1-.04-.15-.01-.05-.03-.1-.04-.15-.02-.05-.03-.1-.05-.14-.02-.05-.03-.1-.05-.14s-.03-.1-.05-.14c-.02-.05-.03-.1-.05-.14-.02-.05-.04-.09-.05-.14-.02-.05-.04-.09-.06-.14-.02-.05-.04-.09-.06-.14-.02-.05-.04-.09-.06-.14-.02-.05-.04-.09-.06-.14-.02-.05-.04-.09-.06-.14-.02-.05-.04-.09-.06-.14-.02-.05-.04-.09-.07-.14s-.04-.09-.07-.14c-.02-.05-.05-.09-.07-.14-.02-.04-.05-.09-.07-.13-.02-.04-.05-.09-.07-.13s-.05-.09-.07-.13c-.03-.04-.05-.09-.08-.13-.03-.04-.05-.09-.08-.13s-.05-.09-.08-.13-.05-.09-.08-.13c-.03-.04-.05-.09-.08-.13s-.06-.09-.08-.13c-.03-.04-.06-.08-.09-.13-.03-.04-.06-.08-.09-.13s-.06-.08-.09-.12c-.03-.04-.06-.08-.09-.12s-.06-.08-.09-.12c-.03-.04-.06-.08-.09-.12-.03-.04-.06-.08-.1-.12-.03-.04-.06-.08-.1-.12-.03-.04-.07-.08-.1-.12-.03-.04-.07-.08-.1-.12-.03-.04-.07-.08-.1-.12-.03-.04-.07-.08-.1-.12-.03-.04-.07-.08-.1-.11-.04-.04-.07-.08-.11-.11-.04-.04-.07-.07-.11-.11s-.07-.07-.11-.11c-.04-.04-.07-.07-.11-.11-.04-.04-.07-.07-.11-.11-.04-.04-.08-.07-.11-.11-.04-.04-.08-.07-.11-.1-.04-.03-.08-.07-.12-.1-.04-.03-.08-.07-.12-.1-.04-.03-.08-.07-.12-.1-.04-.03-.08-.07-.12-.1-.04-.03-.08-.06-.12-.1-.04-.03-.08-.06-.12-.1-.04-.03-.08-.06-.12-.09s-.08-.06-.12-.09-.08-.06-.12-.09c-.04-.03-.08-.06-.12-.09-.04-.03-.08-.06-.13-.09-.04-.03-.08-.06-.13-.09s-.08-.06-.13-.08-.09-.06-.13-.08c-.04-.03-.09-.05-.13-.08-.04-.03-.09-.05-.13-.08-.04-.03-.09-.05-.13-.08-.04-.03-.09-.05-.13-.08-.04-.03-.09-.05-.13-.07s-.09-.05-.13-.07c-.04-.02-.09-.05-.13-.07-.04-.02-.09-.05-.14-.07-.05-.02-.09-.05-.14-.07-.05-.02-.09-.04-.14-.07-.05-.02-.09-.04-.14-.06-.05-.02-.09-.04-.14-.06-.05-.02-.09-.04-.14-.06-.05-.02-.09-.04-.14-.06-.05-.02-.09-.04-.14-.06-.05-.02-.09-.04-.14-.06-.05-.02-.09-.04-.14-.05-.05-.02-.09-.03-.14-.05-.05-.02-.1-.03-.14-.05s-.1-.03-.14-.05c-.05-.02-.1-.03-.14-.05-.05-.02-.1-.03-.15-.04-.05-.01-.1-.03-.15-.04-.05-.01-.1-.03-.15-.04-.05-.01-.1-.03-.15-.04-.05-.01-.1-.03-.15-.04-.05-.01-.1-.02-.15-.04-.05-.01-.1-.02-.15-.03s-.1-.02-.15-.03c-.05-.01-.1-.02-.15-.03s-.1-.02-.15-.03c-.05,0-.1-.02-.15-.03-.05,0-.1-.02-.15-.03s-.1-.02-.15-.02-.1-.01-.15-.02-.1-.01-.15-.02c-.05,0-.1-.01-.15-.02-.05,0-.1-.01-.15-.02-.05,0-.1,0-.15-.01s-.1,0-.15-.01-.1,0-.15-.01c-.05,0-.1,0-.15,0-.05,0-.1,0-.16,0-.05,0-.1,0-.16,0s-.1,0-.16,0-.1,0-.16,0Z"/>
</svg>