<?xml version="1.0" encoding="UTF-8"?>
<svg id="Layer_1" data-name="Layer 1" xmlns="http://www.w3.org/2000/svg" viewBox="0 0 91.64 99.4">
  <defs>
    <style>
      .cls-1 {
        fill: #293071;
        stroke-width: 0px;
      }
    </style>
  </defs>
  <path class="cls-1" d="m24.79,72.64c1.37,14.98,14,26.76,29.34,26.76,16.25,0,29.46-13.22,29.46-29.47v-15.39c4.7-1.83,8.04-6.38,8.04-11.72,0-6.94-5.64-12.58-12.58-12.58s-12.58,5.64-12.58,12.58c0,5.18,3.15,9.63,7.63,11.56v15.54c0,11.01-8.96,19.97-19.97,19.97-10.11,0-18.47-7.56-19.77-17.32,14.44-2.36,24.47-15.03,24.47-31.86V4.75c0-2.62-2.13-4.75-4.75-4.75-1.08,0-2.07.38-2.87.99-.91-.52-1.96-.82-3.08-.82-3.44,0-6.23,2.8-6.23,6.23s2.8,6.23,6.23,6.23c.41,0,.81-.04,1.2-.12v28.21c0,13.4-8.19,22.77-19.92,22.77s-19.92-9.36-19.92-22.77V12.6c.18.02.36.03.54.03,3.44,0,6.23-2.8,6.23-6.23S13.48.17,10.04.17c-.96,0-1.87.23-2.69.62-.75-.49-1.64-.79-2.6-.79C2.13,0,0,2.13,0,4.75v35.98c0,16.96,10.18,29.7,24.79,31.92ZM2.85,4.75c0-1.05.85-1.9,1.9-1.9s1.9.85,1.9,1.9v35.98c0,15.08,9.36,25.61,22.77,25.61s22.77-10.53,22.77-25.61V4.75c0-1.05.85-1.9,1.9-1.9s1.9.85,1.9,1.9v35.98c0,17.04-11.17,29.41-26.56,29.41S2.85,57.77,2.85,40.72V4.75Zm9.62,1.65c0,1.34-1.09,2.43-2.43,2.43-.19,0-.37-.03-.54-.07v-4.02c0-.24-.04-.47-.07-.69.2-.05.4-.09.61-.09,1.34,0,2.43,1.09,2.43,2.43Zm33.23,0c0-1.34,1.09-2.43,2.43-2.43.46,0,.88.13,1.24.35-.01.14-.04.28-.04.43v3.76c-.36.2-.76.33-1.2.33-1.34,0-2.43-1.09-2.43-2.43Zm31.25,63.54v-27.17c0-1.05.85-1.9,1.9-1.9s1.9.85,1.9,1.9v27.17c0,14.68-11.94,26.62-26.62,26.62-13.66,0-24.95-10.35-26.44-23.62.57.03,1.14.05,1.73.05.71,0,1.41-.03,2.1-.08,1.46,11.18,11.04,19.85,22.62,19.85,12.58,0,22.82-10.24,22.82-22.82Zm2.11-36.84c5.37,0,9.73,4.37,9.73,9.73,0,3.73-2.11,6.97-5.19,8.6v-8.67c0-2.62-2.13-4.75-4.75-4.75s-4.75,2.13-4.75,4.75v8.43c-2.85-1.7-4.78-4.81-4.78-8.36,0-5.37,4.37-9.73,9.73-9.73Z"/>
</svg>